<?xml version="1.0" encoding="UTF-8" standalone="no"?>
<!-- Created with Inkscape (http://www.inkscape.org/) -->

<svg
   width="600"
   height="800"
   viewBox="0 0 600 800"
   version="1.1"
   id="svg1"
   xml:space="preserve"
   inkscape:version="1.4.2 (f4327f4, 2025-05-13)"
   sodipodi:docname="hex display stack.svg"
   inkscape:export-filename="D:\Development\Cursor\hexbound\src\client\public\images\tiles\hex.png"
   inkscape:export-xdpi="96"
   inkscape:export-ydpi="96"
   xmlns:inkscape="http://www.inkscape.org/namespaces/inkscape"
   xmlns:sodipodi="http://sodipodi.sourceforge.net/DTD/sodipodi-0.dtd"
   xmlns="http://www.w3.org/2000/svg"
   xmlns:svg="http://www.w3.org/2000/svg"><sodipodi:namedview
     id="namedview1"
     pagecolor="#ffffff"
     bordercolor="#111111"
     borderopacity="1"
     inkscape:showpageshadow="0"
     inkscape:pageopacity="0"
     inkscape:pagecheckerboard="1"
     inkscape:deskcolor="#d1d1d1"
     inkscape:document-units="px"
     showgrid="true"
     showguides="true"
     inkscape:zoom="1.4142136"
     inkscape:cx="174.65538"
     inkscape:cy="564.27122"
     inkscape:window-width="2560"
     inkscape:window-height="1334"
     inkscape:window-x="2549"
     inkscape:window-y="-11"
     inkscape:window-maximized="1"
     inkscape:current-layer="layer1"><inkscape:grid
       id="grid2"
       units="px"
       originx="0"
       originy="0"
       spacingx="10"
       spacingy="10"
       empcolor="#0099e5"
       empopacity="0.30196078"
       color="#0099e5"
       opacity="0.14901961"
       empspacing="4"
       enabled="true"
       visible="true" /></sodipodi:namedview><defs
     id="defs1"><clipPath
       clipPathUnits="userSpaceOnUse"
       id="clipPath24"><rect
         style="fill:none;stroke:#000000;stroke-width:0.999999;stroke-linecap:butt;stroke-linejoin:bevel;paint-order:stroke markers fill;stop-color:#000000"
         id="rect24"
         width="44.999748"
         height="77.937294"
         x="251.53429"
         y="222.73541" /></clipPath></defs><g
     inkscape:groupmode="layer"
     id="layer7"
     inkscape:label="Breakdown"><path
       style="fill:none;fill-opacity:1;stroke:#cccccc;stroke-width:0.92582;stroke-linejoin:round;stroke-dasharray:1.85164, 0.92582;stroke-dashoffset:0;stroke-opacity:1;paint-order:fill markers stroke"
       d="M 360,580 V 100"
       id="path186"
       inkscape:label="Vertical Connection right" /><path
       style="fill:none;fill-opacity:1;stroke:#cccccc;stroke-width:0.92582;stroke-linejoin:round;stroke-dasharray:1.85164, 0.92582;stroke-dashoffset:0;stroke-opacity:1;paint-order:fill markers stroke"
       d="M 240,580 V 100"
       id="path186-4"
       inkscape:label="Vertical Connection left" /><g
       inkscape:label="Foundation"
       inkscape:groupmode="layer"
       id="layer1"
       style="display:inline"><text
         xml:space="preserve"
         style="font-style:normal;font-variant:normal;font-weight:normal;font-stretch:normal;font-size:12px;font-family:Hexbound;-inkscape-font-specification:'Hexbound, Normal';font-variant-ligatures:normal;font-variant-caps:normal;font-variant-numeric:normal;font-variant-east-asian:normal;text-align:start;writing-mode:lr-tb;direction:ltr;text-anchor:start;fill:#000000;fill-opacity:1;stroke:none;stroke-linejoin:round;paint-order:fill markers stroke"
         x="380"
         y="579.25"
         id="text3"
         inkscape:label="Foundation Heading"><tspan
           sodipodi:role="line"
           id="tspan3"
           x="380"
           y="579.25">Foundation</tspan></text><text
         xml:space="preserve"
         style="font-style:normal;font-variant:normal;font-weight:normal;font-stretch:normal;font-size:20px;font-family:Hexbound;-inkscape-font-specification:'Hexbound, Normal';font-variant-ligatures:normal;font-variant-caps:normal;font-variant-numeric:normal;font-variant-east-asian:normal;text-align:start;writing-mode:lr-tb;direction:ltr;text-anchor:start;display:inline;fill:#000000;fill-opacity:1;stroke:none;stroke-linejoin:round;paint-order:fill markers stroke"
         x="84.570312"
         y="758.75"
         id="text3-3"
         inkscape:label="Foundation Heading"><tspan
           sodipodi:role="line"
           id="tspan3-0"
           x="84.570312"
           y="758.75">Hexbound Hex Tile Render Stack</tspan></text><text
         xml:space="preserve"
         style="font-style:normal;font-variant:normal;font-weight:normal;font-stretch:normal;font-size:10.6667px;font-family:Junction;-inkscape-font-specification:'Junction, Normal';font-variant-ligatures:normal;font-variant-caps:normal;font-variant-numeric:normal;font-variant-east-asian:normal;text-align:start;writing-mode:lr-tb;direction:ltr;text-anchor:start;display:inline;fill:#000000;fill-opacity:1;stroke:none;stroke-linejoin:round;paint-order:fill markers stroke"
         x="379.42401"
         y="598.7467"
         id="text3-8-1-8"
         inkscape:label="Foundation Subtext"><tspan
           sodipodi:role="line"
           id="tspan3-2-6-2"
           x="379.42401"
           y="598.7467">Biome styled tiles</tspan><tspan
           sodipodi:role="line"
           x="379.42401"
           y="612.08008"
           id="tspan1-4">Grass / Sand / Ocean / Tundra etc...</tspan></text><path
         style="display:inline;fill:#71c837;stroke:none;stroke-width:1;stroke-linecap:butt;stroke-linejoin:round;stroke-dasharray:none;stroke-dashoffset:0;stroke-opacity:1;paint-order:fill markers stroke"
         d="m 270,620 -30,-40 v 120 h 30 z"
         id="path4-14"
         sodipodi:nodetypes="ccccc"
         inkscape:label="West Wall" /><path
         style="display:inline;fill:#71c837;stroke:none;stroke-width:1;stroke-linecap:butt;stroke-linejoin:round;stroke-dasharray:none;stroke-dashoffset:0;stroke-opacity:1;paint-order:fill markers stroke"
         d="m 330,620 30,-40 v 120 h -30 z"
         id="path4-14-4"
         sodipodi:nodetypes="ccccc"
         inkscape:label="East Wall" /><path
         style="display:inline;fill:#8dd35f;stroke:none;stroke-width:1;stroke-linecap:butt;stroke-linejoin:round;stroke-dasharray:none;stroke-dashoffset:0;stroke-opacity:1;paint-order:fill markers stroke"
         d="m 270,620 h 60 v 80 h -60 z"
         id="path4-1"
         sodipodi:nodetypes="ccccc"
         inkscape:label="South Wall" /><path
         style="display:inline;fill:#aade87;stroke:none;stroke-width:1;stroke-linecap:butt;stroke-linejoin:round;stroke-dasharray:none;stroke-dashoffset:0;stroke-opacity:1;paint-order:fill markers stroke"
         d="m 240,580 30,-40 h 60 l 30,40 -30,40 h -60 z"
         id="path4"
         sodipodi:nodetypes="ccccccc"
         inkscape:label="Hex" /></g><g
       inkscape:groupmode="layer"
       id="layer6"
       inkscape:label="Layer 2"><text
         xml:space="preserve"
         style="font-style:normal;font-variant:normal;font-weight:normal;font-stretch:normal;font-size:10.6667px;font-family:Junction;-inkscape-font-specification:'Junction, Normal';font-variant-ligatures:normal;font-variant-caps:normal;font-variant-numeric:normal;font-variant-east-asian:normal;text-align:start;writing-mode:lr-tb;direction:ltr;text-anchor:start;display:inline;fill:#000000;fill-opacity:1;stroke:none;stroke-linejoin:round;paint-order:fill markers stroke"
         x="380.43713"
         y="498.7467"
         id="text3-8-1"
         inkscape:label="Hex Outline Subtext"><tspan
           sodipodi:role="line"
           id="tspan3-2-6"
           x="380.43713"
           y="498.7467">- Basic Outline</tspan><tspan
           sodipodi:role="line"
           x="380.43713"
           y="512.08008"
           id="tspan1">- &quot;Selected Tile&quot; outline</tspan></text><text
         xml:space="preserve"
         style="font-style:normal;font-variant:normal;font-weight:normal;font-stretch:normal;font-size:12px;font-family:Hexbound;-inkscape-font-specification:'Hexbound, Normal';font-variant-ligatures:normal;font-variant-caps:normal;font-variant-numeric:normal;font-variant-east-asian:normal;text-align:start;writing-mode:lr-tb;direction:ltr;text-anchor:start;display:inline;fill:#000000;fill-opacity:1;stroke:none;stroke-linejoin:round;paint-order:fill markers stroke"
         x="380"
         y="479.25"
         id="text3-8"
         inkscape:label="Hex Outline Heading"><tspan
           sodipodi:role="line"
           id="tspan3-2"
           x="380"
           y="479.25">Hex Outline</tspan></text><path
         style="display:inline;fill:none;fill-opacity:1;stroke:#666666;stroke-width:1;stroke-linecap:butt;stroke-linejoin:round;stroke-dasharray:none;stroke-dashoffset:0;stroke-opacity:1;paint-order:fill markers stroke"
         d="m 240,490 30,-40 h 60 l 30,40 -30,40 h -60 z"
         id="path4-8-7"
         sodipodi:nodetypes="ccccccc"
         inkscape:label="Hex Outline Hex" /><path
         style="display:inline;fill:none;stroke:#ffd42a;stroke-width:2;stroke-linecap:butt;stroke-linejoin:round;stroke-dasharray:4, 2;stroke-dashoffset:0;stroke-opacity:1;paint-order:fill markers stroke"
         d="m 240,480 30,-40 h 60 l 30,40 -30,40 h -60 z"
         id="path4-8"
         sodipodi:nodetypes="ccccccc" /></g><g
       inkscape:groupmode="layer"
       id="layer5"
       inkscape:label="Detail"><text
         xml:space="preserve"
         style="font-style:normal;font-variant:normal;font-weight:normal;font-stretch:normal;font-size:10.6667px;font-family:Junction;-inkscape-font-specification:'Junction, Normal';font-variant-ligatures:normal;font-variant-caps:normal;font-variant-numeric:normal;font-variant-east-asian:normal;text-align:start;writing-mode:lr-tb;direction:ltr;text-anchor:start;display:inline;fill:#000000;fill-opacity:1;stroke:none;stroke-linejoin:round;paint-order:fill markers stroke"
         x="379.42401"
         y="408.7467"
         id="text3-8-1-85"
         inkscape:label="Detail Subtext"><tspan
           sodipodi:role="line"
           x="379.42401"
           y="408.7467"
           id="tspan1-6">Lanscape Features</tspan><tspan
           sodipodi:role="line"
           x="379.42401"
           y="422.08008"
           id="tspan9">Trees / Mountains / Farms etc...</tspan></text><text
         xml:space="preserve"
         style="font-style:normal;font-variant:normal;font-weight:normal;font-stretch:normal;font-size:12px;font-family:Hexbound;-inkscape-font-specification:'Hexbound, Normal';font-variant-ligatures:normal;font-variant-caps:normal;font-variant-numeric:normal;font-variant-east-asian:normal;text-align:start;writing-mode:lr-tb;direction:ltr;text-anchor:start;display:inline;fill:#000000;fill-opacity:1;stroke:none;stroke-linejoin:round;paint-order:fill markers stroke"
         x="380"
         y="390"
         id="text3-8-14"
         inkscape:label="Detail Heading"><tspan
           sodipodi:role="line"
           id="tspan3-2-2"
           x="380"
           y="390">Detail</tspan></text><path
         style="display:inline;fill:none;fill-opacity:1;stroke:#cccccc;stroke-width:1;stroke-linecap:butt;stroke-linejoin:round;stroke-dasharray:none;stroke-dashoffset:0;stroke-opacity:1;paint-order:fill markers stroke"
         d="m 240,390 30,-40 h 60 l 30,40 -30,40 h -60 z"
         id="path4-11"
         sodipodi:nodetypes="ccccccc"
         inkscape:label="Detail Hex" /><g
         id="g9"
         transform="matrix(0.91798178,0,0,1.0810095,245.52756,325.8273)"
         inkscape:label="Mountain"
         style="display:inline"><g
           id="g18"><path
             d="m 25.06,43.51 c 0,0 10.96,-10.5 15.44,-27.21 l 6.93,0.82 c 0,0 4.84,-12.98 8.97,-17.12 4.48,2.85 8.15,5.71 8.15,5.71 0,0 2.85,9.78 11,19.16 l 3.26,-0.82 c 0,0 7.74,15.49 15.9,22.01 -0.57,8.44 -25.11,14.58 -48.75,7.18 -7.4,2.17 -24,-3.97 -20.89,-9.72 z"
             style="fill:#e7c78a"
             id="path1" /><path
             d="M 57.32,27 C 54.34,21.95 47.43,17.12 47.43,17.12 L 40.5,16.3 c -4.48,16.71 12.21,13.85 12.21,13.85 21.08,-0.84 26.11,-6.11 26.11,-6.11 l -3.26,0.82 C 72.87,25.68 60.69,26.68 57.32,27 Z"
             style="fill:#f4d29a"
             id="path2" /><path
             d="m 64.55,5.71 c 0,0 -3.67,-2.85 -8.15,-5.71 -1.79,1.8 0.33,2.63 -1.28,5.98 5.16,1.77 9.43,-0.27 9.43,-0.27 z"
             style="fill:#f4d29a"
             id="path3" /><path
             d="m 56.66,7.78 c 6.19,-0.37 7.89,-2.07 7.89,-2.07 0,0 -2.89,1.01 -7.38,-1.85 -4.13,4.14 -1.5,3.98 -0.51,3.92 z"
             style="fill:#bf8a3d"
             id="path4-3" /><path
             d="m 75.56,24.86 c 0,0 -7.24,-6.38 -16.25,-5.52 -0.65,0.06 -2.91,4.58 -1.99,7.66 11.28,0.64 18.24,-2.14 18.24,-2.14 z"
             style="fill:#dcb268"
             id="path5" /><path
             d="M 52.71,30.16 C 49.6,35.91 45.53,40.32 45.96,53.24 69.6,60.64 94.15,54.5 94.71,46.06 92.44,53.48 72.28,51.76 63.07,44.9 54.93,38.84 52.71,30.16 52.71,30.16 Z"
             style="fill:#dcb268"
             id="path6" /><path
             d="m 25.06,43.51 c 0,0 10.96,-10.5 15.44,-27.21 5.77,13.3 12.21,13.85 12.21,13.85 0,0 -5.88,10.11 -6.75,23.08 -7.4,2.17 -24,-3.97 -20.89,-9.72 z"
             style="fill:#d1a052"
             id="path7" /><path
             d="M 57.32,27 C 65.04,19.12 56.66,7.78 56.66,7.78 c 0,0 1.31,-4.6 -0.26,-7.78 -4.13,4.14 -8.97,17.12 -8.97,17.12 0,0 4.14,6.6 9.89,9.88 z"
             style="fill:#d1a052"
             id="path8" /><path
             d="m 25.06,43.51 c 0,0 -1.19,8.27 14.27,-0.91 9.15,-5.44 13.38,-12.45 13.38,-12.45 0,0 -5.88,10.11 -6.75,23.08 -7.4,2.17 -24,-3.97 -20.89,-9.72 z"
             style="fill:#bf8a3d"
             id="path9" /><path
             d="m 57.32,27 c 0,0 -12.36,-11.95 -0.92,-27 -4.13,4.14 -8.97,17.12 -8.97,17.12 0,0 4.14,6.6 9.89,9.88 z"
             style="fill:#bf8a3d"
             id="path10" /><path
             d="m 25.06,43.51 c 0,0 -1.21,2.49 2,4.79 4.35,3.12 13.95,6.12 18.99,4.12 13.14,5.08 45.48,5.27 48.66,-6.37 -0.57,8.44 -25.11,14.75 -48.75,7.35 -7.4,2.17 -24,-4.14 -20.89,-9.89 z"
             style="fill:#aa732b"
             id="path11" /><path
             d="m 56.66,7.78 c 6.19,-0.37 7.89,-2.07 7.89,-2.07 0,0 0.19,0.52 0.2,0.63 -4.83,1.94 -8.09,1.45 -8.09,1.45 z"
             style="fill:#aa732b"
             id="path12" /><g
             style="opacity:0.6"
             id="g13"><path
               d="m 64.55,5.71 c 0,0 -3.89,0.66 -6.92,-2.28 C 57.49,2.21 57.17,1.06 56.4,0 c 1.11,2.67 -0.19,7.94 -0.19,7.94 0,0 8.44,11.59 1.11,19.06 8.23,-7.8 -0.16,-19.2 -0.16,-19.2 0,0 0.65,-1.69 0.53,-3.62 4.35,2.52 6.86,1.53 6.86,1.53 z"
               style="fill:#ffffff"
               id="path13" /></g><path
             d="M 75.56,24.86 75.24,24.44 C 74.59,24.5 69.76,27.25 57.33,27 68.61,27.64 75.57,24.86 75.57,24.86 Z"
             style="fill:#bf8a3d"
             id="path14" /><path
             d="m 57.32,27 c 0,0 -4.07,-2.23 -9.65,-10.5 -0.15,0.4 -0.24,0.62 -0.24,0.62 0,0 4.14,6.6 9.89,9.88 z"
             style="fill:#aa732b"
             id="path15" /><g
             style="opacity:0.6"
             id="g16"><path
               d="m 41.36,16.4 -0.85,-0.1 -0.22,0.8 c 5.71,12.8 12.43,13.06 12.43,13.06 0,0 -6.92,-1.95 -11.35,-13.75 z"
               style="fill:#ffffff"
               id="path16" /></g><g
             style="opacity:0.6"
             id="g17"><path
               d="m 52.71,30.16 c 21.08,-0.84 26.11,-6.11 26.11,-6.11 l -1.32,0.33 c -5.65,4.5 -24.78,5.78 -24.78,5.78 z"
               style="fill:#ffffff"
               id="path17" /></g></g><g
           id="g23"><g
             style="opacity:0.2"
             id="g19"><path
               d="m 111.58,60.4 0.98,-1.2 c 2.1,-3.43 -11.82,-5.91 -17.85,-13.14 -0.2,2.96 -3.35,5.63 -8.37,7.54 -0.59,-0.08 -0.95,-0.12 -0.95,-0.12 l -7.86,2.35 c -8.96,1.38 -20.36,0.91 -31.57,-2.59 -7.4,2.17 -24,-3.97 -20.89,-9.72 0,0 -5.79,7.24 16.36,14.54 0.74,1.79 2.68,3.84 5.19,5.65 -1.01,0.33 -1.62,0.54 -1.62,0.54 0,0 14.88,7.44 24.32,8.44 7.44,-2 5.86,-2 5.86,-2 0,0 -0.88,-1.75 -2.35,-3.88 0.65,-0.1 1.29,-0.22 1.9,-0.34 3.71,1.8 7.78,3.39 11.23,3.89 0.78,-0.04 2.06,-0.37 3.55,-0.85 5.12,2.51 11.13,4.69 13.33,2.47 l 2.1,-3.43 1.62,-1.99 c 2.77,0.19 6.05,-0.94 7.5,-1.69 1.38,0.65 4.71,-0.73 5.04,-1.14 -0.95,-0.98 -4.25,-2.25 -7.51,-3.32 z"
               style="fill:#683600"
               id="path18" /></g><g
             style="opacity:0.2"
             id="g20"><path
               d="M 30.56,63.97 26.84,58.96 0.38,57.67 c 0,0 9.58,12.16 21.31,14.88 5.29,-2.57 8.87,-8.58 8.87,-8.58 z"
               style="fill:#683600"
               id="path19" /></g><g
             style="opacity:0.2"
             id="g21"><path
               d="M 83.79,78 63.6,78.33 c 0,0 6.44,6.09 16.88,6.54 5.29,-1.86 4.71,-4.02 4.71,-4.02 z"
               style="fill:#683600"
               id="path20" /></g><g
             style="opacity:0.2"
             id="g22"><path
               d="m 24.76,76.91 c 0,0 7.01,7.44 12.73,7.22 6.01,2.93 12.37,4.15 14.45,3.93 8.01,-3.5 11.59,-7.87 11.59,-7.87 L 56.19,74.51 24.77,76.9 Z"
               style="fill:#683600"
               id="path21" /></g></g><g
           id="g27"><path
             d="m 83.79,78 c -4.9,3.26 -9.76,4.7 -11.73,4.4 -2.6,-0.39 -3.21,-7.72 -2.33,-8.11 0.87,-0.39 7.43,-1.52 7.78,-1.48 0.35,0.04 4.54,3.47 6.28,5.19 z"
             style="fill:#dcb268"
             id="path23" /><path
             d="m 63.6,78.32 c 2.4,2.27 10.02,4.71 8.19,3.93 -1.83,-0.78 -2.94,-7.57 -2.06,-7.96 l -3.21,-1.28 c -0.63,2.23 -4.17,4.07 -2.92,5.31 z"
             style="fill:#d1a052"
             id="path24" /><path
             d="m 77.51,72.81 c -2.11,0.07 -8.66,1.87 -7.78,1.48 l -3.21,-1.28 c 0,0 4.48,-1.45 11,-0.21 z"
             style="fill:#f4d29a"
             id="path25" /><g
             style="opacity:0.6"
             id="g26"><path
               d="m 66.52,73.01 c 0,0 1.67,0.42 3.4,1.11 1.72,-0.4 7.28,-1.35 7.6,-1.32 0.35,0.04 -4.92,0.86 -7.48,1.71 -0.75,6.65 2.03,7.88 2.03,7.88 -2.75,-0.97 -2.85,-6.78 -2.64,-7.96 L 66.52,73 Z"
               style="fill:#ffffff"
               id="path26" /></g><path
             d="m 72.21,82.16 c 0.86,0.25 4.3,-0.16 11.58,-4.17 -4.9,3.26 -9.76,4.7 -11.73,4.4 -0.27,0.03 -6.37,-2.09 -8.47,-4.07 2.59,2.08 8.62,3.84 8.62,3.84 z"
             style="fill:#aa732b"
             id="path27" /></g><g
           id="g33"><g
             id="g31"><path
               d="m 0,57.8 c 6.36,5.21 12.91,7.89 15.68,7.75 3.66,-0.18 3.64,-17.12 2.48,-17.79 C 17,47.09 7.74,44.86 7.25,44.86 c -0.28,0 -2.6,5.51 -2.6,5.51 0,0 1.37,4.66 -4.64,7.42 z"
               style="fill:#dcb268"
               id="path28" /><path
               d="m 28.01,61.07 c -3.65,2.82 -11.93,4.31 -11.93,4.31 0.46,-2.77 -1.26,-9.96 0.03,-11.42 l 5.82,-6.33 c 0.56,3.19 5.86,9.24 6.09,13.44 z"
               style="fill:#d1a052"
               id="path29" /><path
               d="m 7.25,44.87 c 2.93,0.39 8.86,9.1 8.86,9.1 l 5.82,-6.33 c 0,0 -5.45,-3.58 -14.68,-2.77 z"
               style="fill:#f4d29a"
               id="path30" /><path
               d="M 15.51,65.21 C 14.28,65.44 9.56,64.38 0,57.8 c 6.36,5.21 12.91,7.89 15.68,7.75 0.37,0.07 9.14,-2.01 12.33,-4.48 C 24.13,63.59 15.5,65.2 15.5,65.2 Z"
               style="fill:#aa732b"
               id="path31" /></g><g
             style="opacity:0.6"
             id="g32"><path
               d="m 16.37,54.18 5.55,-6.54 -5.82,5.65 c 0,0 -5.26,-8.26 -8.86,-8.42 2.71,0.36 7.82,8.52 8.55,9.71 -0.73,2.2 0.27,8 0.28,10.8 0,0 0.71,-2.09 -0.06,-8.21 -0.12,-0.97 0.04,-1.99 0.35,-3 z"
               style="fill:#ffffff"
               id="path32" /></g></g><g
           id="g42"><path
             d="m 94.56,61.53 c 6.04,-4.11 9.13,-9.25 9.13,-9.25 0,0 2.51,-1.07 5.49,-2.02 1.73,2.97 2.54,11.08 2.54,11.08 0,0 -6.58,4.22 -17.15,0.19 z"
             style="fill:#e7c78a"
             id="path33" /><path
             d="m 103.69,52.28 c 0,0 2.51,-1.07 5.49,-2.02 0.75,1.29 -0.58,1.45 -0.17,3.59 -3.2,0.23 -5.32,-1.57 -5.32,-1.57 z"
             style="fill:#f4d29a"
             id="path34" /><path
             d="m 107.87,54.64 c -3.46,-1.14 -4.18,-2.36 -4.18,-2.36 0,0 1.49,1.01 4.47,0.05 1.73,2.97 0.26,2.49 -0.3,2.31 z"
             style="fill:#bf8a3d"
             id="path35" /><path
             d="m 94.56,61.53 c 0,0 5.07,-2.55 10.07,-0.71 0.36,0.13 0.97,3.04 -0.02,4.65 C 98.1,64.14 94.56,61.52 94.56,61.52 Z"
             style="fill:#dcb268"
             id="path36" /><path
             d="m 104.61,65.48 c -3.21,-5.64 3.25,-10.83 3.25,-10.83 0,0 -0.06,-2.81 1.32,-4.39 1.73,2.97 2.54,11.08 2.54,11.08 0,0 -3.34,3.13 -7.1,4.14 z"
             style="fill:#d1a052"
             id="path37" /><path
             d="m 104.61,65.48 c 0,0 8.82,-4.95 4.57,-15.22 1.73,2.97 2.54,11.08 2.54,11.08 0,0 -3.34,3.13 -7.1,4.14 z"
             style="fill:#bf8a3d"
             id="path38" /><path
             d="m 107.87,54.64 c -3.46,-1.14 -4.18,-2.36 -4.18,-2.36 0,0 -0.19,0.27 -0.21,0.33 2.45,1.83 4.38,2.03 4.38,2.03 z"
             style="fill:#aa732b"
             id="path39" /><g
             style="opacity:0.6"
             id="g40"><path
               d="m 103.69,52.28 c 0,0 2.11,0.96 4.28,-0.26 0.26,-0.68 0.62,-1.28 1.21,-1.77 -1.03,1.35 -1.08,4.55 -1.08,4.55 0,0 -6.54,5.32 -3.49,10.67 -3.51,-5.67 2.97,-10.9 2.97,-10.9 0,0 -0.12,-1.06 0.24,-2.14 -2.85,0.78 -4.13,-0.16 -4.13,-0.16 z"
               style="fill:#ffffff"
               id="path40" /></g><path
             d="m 94.56,61.53 0.25,-0.19 c 0.34,0.13 2.78,2.55 9.58,3.72 0.32,0.06 0.22,0.42 0.22,0.42 C 98.1,64.15 94.56,61.53 94.56,61.53 Z"
             style="fill:#bf8a3d"
             id="path41" /><path
             d="m 104.61,65.48 -0.22,-0.42 c 2.95,-0.45 4.97,-2.08 7.28,-4.11 0.03,0.25 0.04,0.39 0.04,0.39 0,0 -3.34,3.13 -7.1,4.14 z"
             style="fill:#aa732b"
             id="path42" /></g><g
           id="g50"><path
             d="m 89.47,46.96 c 0,0 -5.46,-1.51 -8.63,-3.43 -1.33,-0.8 -12.65,2.03 -11.93,2.54 1.27,0.89 5.58,4.7 10.28,6.09 0,1.4 11.29,1.65 10.28,-5.2 z"
             style="fill:#f4d29a"
             id="path43" /><path
             d="m 63.45,60.03 c 0,0 4.19,-14.85 5.46,-13.96 1.27,0.89 5.58,4.7 10.28,6.09 1.4,3.93 -0.63,15.1 -0.63,15.1 0,0 -10.15,-3.55 -15.1,-7.23 z"
             style="fill:#bf8a3d"
             id="path44" /><path
             d="m 96.83,58 c 0,0 -4.44,-5.84 -7.36,-11.04 0,0 -3.68,6.35 -10.28,5.2 1.4,3.93 -0.63,15.1 -0.63,15.1 0,0 13.33,-3.05 18.27,-9.26 z"
             style="fill:#dcb268"
             id="path45" /><path
             d="m 63.45,60.03 c 0,0 4.19,-14.85 5.46,-13.96 1.27,0.89 5.58,4.7 10.28,6.09 0,1.4 -9.01,9.26 -15.74,7.87 z"
             style="fill:#d1a052"
             id="path46" /><path
             d="m 89.47,46.96 c 0,0 -3.68,6.35 -10.28,5.2 0.76,4.06 -0.63,15.1 -0.63,15.1 0,0 11.04,-8.25 10.91,-20.31 z"
             style="fill:#d1a052"
             id="path47" /><path
             d="m 78.55,66.5 c -0.98,0.41 -15.1,-6.47 -15.1,-6.47 4.95,3.68 15.1,7.23 15.1,7.23 0,0 13.33,-3.05 18.27,-9.26 0,0 -4.82,5.84 -18.27,8.5 z"
             style="fill:#aa732b"
             id="path48" /><g
             style="opacity:0.6"
             id="g49"><path
               d="m 79.47,51.8 c 0,0 0,-0.01 0,-0.02 -4.7,-1.4 -9.29,-4.82 -10.56,-5.71 2.28,3.68 9.97,6.6 9.97,6.6 0.64,1.54 -0.32,14.59 -0.32,14.59 0,0 1.47,-10.58 1.02,-14.77 1.41,0.11 6.78,0.12 9.89,-5.54 0,0 -3.55,4.79 -9.99,4.84 z"
               style="fill:#ffffff"
               id="path49" /></g></g><g
           id="g54"><path
             d="m 40.53,60.18 c 6.36,5.21 12.91,7.89 15.68,7.75 3.66,-0.18 5.54,-10.28 4.38,-10.94 -1.16,-0.66 -10.11,-3.15 -10.61,-3.15 -0.5,0 -6.8,4.18 -9.45,6.34 z"
             style="fill:#dcb268"
             id="path50" /><path
             d="M 68.54,63.46 C 64.89,66.28 53.95,68.6 56.61,67.77 59.27,66.94 61.75,57.66 60.59,57 l 4.64,-1.33 c 0.56,3.19 5.22,6.24 3.32,7.79 z"
             style="fill:#d1a052"
             id="path51" /><path
             d="m 49.98,53.84 c 2.93,0.39 11.77,3.81 10.61,3.15 l 4.64,-1.33 c 0,0 -6.02,-2.63 -15.25,-1.82 z"
             style="fill:#f4d29a"
             id="path52" /><g
             style="opacity:0.6"
             id="g53"><path
               d="m 65.23,55.67 c 0,0 -2.38,0.35 -4.88,1.07 -2.33,-0.8 -9.92,-2.89 -10.37,-2.89 -0.5,0 6.71,1.88 10.16,3.43 0.11,9.34 -3.93,10.66 -3.93,10.66 3.96,-0.97 4.91,-9.02 4.78,-10.69 z"
               style="fill:#ffffff"
               id="path53" /></g><path
             d="m 56.03,67.59 c -1.23,0.23 -5.95,-0.83 -15.51,-7.41 6.36,5.21 12.91,7.89 15.68,7.75 0.37,0.07 9.14,-2.01 12.33,-4.48 -3.88,2.52 -12.51,4.13 -12.51,4.13 z"
             style="fill:#aa732b"
             id="path54" /></g><g
           id="g63"><path
             d="m 48.67,59.93 -1.54,0.54 c -0.2,-0.32 -0.38,-0.64 -0.57,-0.96 -1.78,0.83 -3.69,1.24 -5.42,1.49 -3.33,0.48 -6.97,-1.19 -8.43,-5.85 -0.48,-0.08 -1.17,-0.19 -2.17,-0.36 -2.12,11.08 -7.3,18.04 -7.3,18.04 -1.47,3.81 6.38,7.88 9.88,6.45 11.18,4.91 22.8,0.84 23.06,-4.76 -3.86,-4.32 -7.52,-14.6 -7.52,-14.6 z"
             style="fill:#e7c78a"
             id="path55" /><path
             d="m 40.18,56.3 c -0.22,0.1 -6.36,-0.97 -6.36,-0.97 l -3.28,-0.54 c -2.12,11.08 5.77,9.19 5.77,9.19 9.97,-0.56 12.35,-4.05 12.35,-4.05 0,0 -1.4,-0.38 -3.57,-1.29 -1.88,-0.72 -4.2,-0.51 -4.92,-2.33 z"
             style="fill:#f4d29a"
             id="path56" /><path
             d="m 36.32,63.98 c -1.47,3.81 -3.4,6.74 -3.19,15.3 11.18,4.91 22.8,0.84 23.06,-4.76 -1.07,4.92 -10.61,3.78 -14.97,-0.77 -3.85,-4.02 -4.9,-9.77 -4.9,-9.77 z"
             style="fill:#dcb268"
             id="path57" /><path
             d="m 23.24,72.83 c 0,0 5.18,-6.96 7.3,-18.04 2.73,8.82 5.77,9.19 5.77,9.19 0,0 -2.78,6.71 -3.19,15.3 -3.5,1.44 -11.36,-2.63 -9.88,-6.45 z"
             style="fill:#d1a052"
             id="path58" /><path
             d="m 23.24,72.83 c 0,0 -0.56,5.48 6.75,-0.6 4.33,-3.6 6.33,-8.26 6.33,-8.26 0,0 -2.78,6.71 -3.19,15.3 -3.5,1.44 -11.36,-2.63 -9.88,-6.45 z"
             style="fill:#bf8a3d"
             id="path59" /><path
             d="m 23.24,72.83 c 0,0 -0.57,1.65 0.94,3.18 2.06,2.07 6.6,4.06 8.98,2.73 6.21,3.37 21.52,3.5 23.02,-4.22 -0.27,5.6 -11.88,9.78 -23.06,4.87 -3.5,1.44 -11.36,-2.75 -9.88,-6.56 z"
             style="fill:#aa732b"
             id="path60" /><g
             style="opacity:0.6"
             id="g61"><path
               d="m 30.95,54.86 -0.4,-0.07 -0.1,0.53 c 2.7,8.49 5.88,8.66 5.88,8.66 0,0 -3.27,-1.29 -5.37,-9.12 z"
               style="fill:#ffffff"
               id="path61" /></g><g
             style="opacity:0.6"
             id="g62"><path
               d="m 36.32,63.98 c 9.97,-0.56 12.35,-4.05 12.35,-4.05 l -0.63,0.22 c -2.67,2.98 -11.72,3.83 -11.72,3.83 z"
               style="fill:#ffffff"
               id="path62" /></g></g></g></g><g
       inkscape:groupmode="layer"
       id="layer4"
       inkscape:label="Text and Icons"><text
         xml:space="preserve"
         style="font-style:normal;font-variant:normal;font-weight:normal;font-stretch:normal;font-size:10.6667px;font-family:Junction;-inkscape-font-specification:'Junction, Normal';font-variant-ligatures:normal;font-variant-caps:normal;font-variant-numeric:normal;font-variant-east-asian:normal;text-align:start;writing-mode:lr-tb;direction:ltr;text-anchor:start;display:inline;fill:#000000;fill-opacity:1;stroke:none;stroke-linejoin:round;paint-order:fill markers stroke"
         x="379.42401"
         y="288.7467"
         id="text3-8-1-85-3"
         inkscape:label="Text and Icons Subtext"><tspan
           sodipodi:role="line"
           x="379.42401"
           y="288.7467"
           id="tspan9-7">Debug Info / Resource Yields</tspan><tspan
           sodipodi:role="line"
           x="379.42401"
           y="302.08008"
           id="tspan10">Other Text</tspan></text><text
         xml:space="preserve"
         style="font-style:normal;font-variant:normal;font-weight:normal;font-stretch:normal;font-size:12px;font-family:Hexbound;-inkscape-font-specification:'Hexbound, Normal';font-variant-ligatures:normal;font-variant-caps:normal;font-variant-numeric:normal;font-variant-east-asian:normal;text-align:start;writing-mode:lr-tb;direction:ltr;text-anchor:start;display:inline;fill:#000000;fill-opacity:1;stroke:none;stroke-linejoin:round;paint-order:fill markers stroke"
         x="380"
         y="270"
         id="text3-8-14-1"
         inkscape:label="Text and Icons Heading"><tspan
           sodipodi:role="line"
           id="tspan3-2-2-1"
           x="380"
           y="270">Text / Icons</tspan></text><path
         style="display:inline;fill:none;fill-opacity:1;stroke:#cccccc;stroke-width:1;stroke-linecap:butt;stroke-linejoin:round;stroke-dasharray:none;stroke-dashoffset:0;stroke-opacity:1;paint-order:fill markers stroke"
         d="m 240,280 30,-40 h 60 l 30,40 -30,40 h -60 z"
         id="path4-11-1"
         sodipodi:nodetypes="ccccccc"
         inkscape:label="Text and Icons Hex" /><text
         xml:space="preserve"
         style="font-style:normal;font-variant:normal;font-weight:bold;font-stretch:normal;font-size:10.6667px;font-family:Junction;-inkscape-font-specification:'Junction, Bold';font-variant-ligatures:normal;font-variant-caps:normal;font-variant-numeric:normal;font-variant-east-asian:normal;text-align:start;writing-mode:lr-tb;direction:ltr;text-anchor:start;display:inline;fill:#000000;fill-opacity:1;stroke:none;stroke-width:1;stroke-linejoin:round;stroke-dasharray:none;stroke-dashoffset:0;stroke-opacity:1;paint-order:fill markers stroke"
         x="278"
         y="270"
         id="text11"
         inkscape:label="Text"><tspan
           sodipodi:role="line"
           id="tspan11"
           x="278"
           y="270">Tile Text</tspan></text></g><g
       inkscape:groupmode="layer"
       id="layer3"
       inkscape:label="Route Paths"><text
         xml:space="preserve"
         style="font-style:normal;font-variant:normal;font-weight:normal;font-stretch:normal;font-size:10.6667px;font-family:Junction;-inkscape-font-specification:'Junction, Normal';font-variant-ligatures:normal;font-variant-caps:normal;font-variant-numeric:normal;font-variant-east-asian:normal;text-align:start;writing-mode:lr-tb;direction:ltr;text-anchor:start;display:inline;fill:#000000;fill-opacity:1;stroke:none;stroke-linejoin:round;paint-order:fill markers stroke"
         x="379.42401"
         y="198.7467"
         id="text3-8-1-85-3-9"
         inkscape:label="Route Paths Subtext"><tspan
           sodipodi:role="line"
           x="379.42401"
           y="198.7467"
           id="tspan10-6">I.e. for unit movements over the map</tspan></text><text
         xml:space="preserve"
         style="font-style:normal;font-variant:normal;font-weight:normal;font-stretch:normal;font-size:12px;font-family:Hexbound;-inkscape-font-specification:'Hexbound, Normal';font-variant-ligatures:normal;font-variant-caps:normal;font-variant-numeric:normal;font-variant-east-asian:normal;text-align:start;writing-mode:lr-tb;direction:ltr;text-anchor:start;display:inline;fill:#000000;fill-opacity:1;stroke:none;stroke-linejoin:round;paint-order:fill markers stroke"
         x="380"
         y="180"
         id="text3-8-14-1-3"
         inkscape:label="Route Paths Heading"><tspan
           sodipodi:role="line"
           id="tspan3-2-2-1-1"
           x="380"
           y="180">Route Paths</tspan></text><path
         style="display:inline;fill:none;fill-opacity:1;stroke:#cccccc;stroke-width:1;stroke-linecap:butt;stroke-linejoin:round;stroke-dasharray:none;stroke-dashoffset:0;stroke-opacity:1;paint-order:fill markers stroke"
         d="m 240,190 30,-40 h 60 l 30,40 -30,40 h -60 z"
         id="path4-11-1-9"
         sodipodi:nodetypes="ccccccc"
         inkscape:label="Route Paths Hex" /><path
         style="fill:none;fill-opacity:1;stroke:#00aad4;stroke-width:5.1;stroke-linejoin:round;stroke-dasharray:none;stroke-dashoffset:0;stroke-opacity:1;paint-order:fill markers stroke"
         d="m 345,210 -45,-20 -45,20"
         id="path63"
         sodipodi:nodetypes="ccc"
         inkscape:label="Route Path" /></g><g
       inkscape:groupmode="layer"
       id="layer2"
       inkscape:label="Units"><text
         xml:space="preserve"
         style="font-style:normal;font-variant:normal;font-weight:normal;font-stretch:normal;font-size:12px;font-family:Hexbound;-inkscape-font-specification:'Hexbound, Normal';font-variant-ligatures:normal;font-variant-caps:normal;font-variant-numeric:normal;font-variant-east-asian:normal;text-align:start;writing-mode:lr-tb;direction:ltr;text-anchor:start;display:inline;fill:#000000;fill-opacity:1;stroke:none;stroke-linejoin:round;paint-order:fill markers stroke"
         x="381.10547"
         y="99.25"
         id="text3-8-14-1-3-4"
         inkscape:label="Units Heading"><tspan
           sodipodi:role="line"
           id="tspan3-2-2-1-1-8"
           x="381.10547"
           y="99.25">Units</tspan></text><path
         style="display:inline;fill:none;fill-opacity:1;stroke:#cccccc;stroke-width:1;stroke-linecap:butt;stroke-linejoin:round;stroke-dasharray:none;stroke-dashoffset:0;stroke-opacity:1;paint-order:fill markers stroke"
         d="m 240,100 30,-40 h 60 l 30,40 -30,40 h -60 z"
         id="path4-11-1-9-2"
         sodipodi:nodetypes="ccccccc"
         inkscape:label="Warrior Hex" /><g
         id="Layer_1"
         style="isolation:isolate"
         transform="matrix(0.6274993,0,0,0.6274993,263.14697,24.60904)"
         inkscape:label="Warrior"><polygon
           points="3.23,33.68 3.49,34.63 3.04,35.22 2.09,35.22 0.27,34.15 0,33.4 0.4,32.78 1.02,32.55 1.69,31.36 3.89,32.12 4.02,32.17 3.91,32.39 "
           style="fill:#809093"
           id="polygon1" /><polygon
           points="2.09,35.22 0.27,34.15 0,33.4 0.4,32.78 1.02,32.55 1.69,31.36 3.89,32.12 3.91,32.39 4.02,33.68 1.69,33.68 "
           style="opacity:0.3;mix-blend-mode:multiply;fill:#809093"
           id="polygon2" /><path
           d="M 40.39,34.83 C 34.72,37.81 22.46,36.8 22.46,36.8 14.27,36.72 6.04,28.97 5.63,28.57 c -0.01,0 2.42,-2.82 2.42,-2.82 7.94,0.75 13.99,3.78 13.99,3.78 5.97,-3.15 11.3,-2.69 11.3,-2.69 h 2.06 l 3.33,5.33 z"
           style="fill:#ffad80"
           id="path2-0" /><path
           d="M 40.39,34.83 C 34.72,37.81 22.46,36.8 22.46,36.8 14.27,36.72 6.04,28.97 5.63,28.57 c 0.41,0.17 10.98,4.69 16.64,5.34 3.78,0.44 11.55,-0.82 16.46,-1.73 l 1.66,2.66 z"
           style="opacity:0.3;mix-blend-mode:multiply;fill:#cc825a"
           id="path3-6" /><path
           d="m 87.92,134.23 -3.25,3.19 c 0,0 -1.18,2.8 -1.18,4.99 0,2.19 1.51,1.9 1.68,3.81 0.17,1.9 1.57,5.27 3.42,5.88 1.85,0.61 7.06,0.56 7.67,-1.96 0.61,-2.52 -3.25,-6.11 -3.53,-7.84 -0.28,-1.74 -1.61,-6.11 -1.61,-6.11 z"
           style="fill:#5e3c2f"
           id="path4-13" /><path
           d="m 21.37,102.19 c 0,0 -4.65,2.69 -7.28,3.03 -2.63,0.34 -6.11,2.63 -4.31,4.82 1.79,2.18 4.59,2.69 8.29,2.3 3.7,-0.39 5.43,-1.9 8.57,-2.3 3.14,-0.39 6.61,-1.85 3.42,-8.74 0,0 -5.77,2.07 -8.68,0.9 z"
           style="fill:#5e3c2f"
           id="path5-8" /><path
           d="m 89.49,139.66 c -3.93,1.24 -4.82,-2.24 -4.82,-2.24 -0.34,-3.25 -4.03,-10.98 -7.17,-19.38 -0.77,-2.06 -1.26,-4.05 -1.58,-5.89 -0.98,-5.69 -0.21,-9.91 -0.21,-9.91 L 74,98.95 72.79,96.63 C 72.6,96.22 72.4,95.82 72.19,95.41 66.84,85.32 52.96,75.79 52.96,75.79 c -13.22,1.85 -21.79,8.97 -21.79,8.97 1.58,1.61 1.98,4.3 1.77,6.78 -0.2,2.35 -0.95,4.52 -1.77,5.42 -1.68,1.85 -1.12,4.32 -1.12,4.32 0,0 -0.28,2.52 -3.64,2.91 -3.36,0.4 -5.04,-2.02 -5.04,-2.02 1.29,-4.93 0.4,-11.7 -1.45,-14.12 -1.85,-2.41 0,-5.88 0,-5.88 6.44,-17.75 25.21,-26.22 25.21,-26.22 2.07,6.25 8.48,8.09 11.68,8.63 6.74,0.91 15.21,-2.47 15.21,-2.47 12.1,19.49 12.99,39.66 12.99,39.66 4.71,11.43 3.81,28.12 5.6,32.6 1.79,4.48 -1.12,5.26 -1.12,5.26 z"
           style="fill:#ffad80"
           id="path6-9" /><path
           d="m 74.54,95.08 -2.35,0.34 C 66.84,85.33 52.96,75.8 52.96,75.8 c -13.22,1.85 -21.79,8.97 -21.79,8.97 1.58,1.61 1.98,4.3 1.77,6.78 l -3.66,-2.6 c 0,0 -2.08,-3.79 2.04,-8.84 C 35.44,75.06 34.1,66.3 34.1,66.3 l 37.64,0.97 2.79,27.82 z"
           style="opacity:0.3;mix-blend-mode:multiply;fill:#cc825a"
           id="path7-3" /><path
           d="M 84.1,99.67 79,114.8 75.91,112.16 c -0.98,-5.69 -0.21,-9.91 -0.21,-9.91 l -1.71,-3.29 2.82,-1.36 7.28,2.07 z"
           style="opacity:0.3;mix-blend-mode:multiply;fill:#cc825a"
           id="path8-4" /><path
           d="m 17.62,82.86 c 0.97,-1.2 6.91,0.86 9.35,6.11 0,0 3.91,0.74 5.46,-2.15 0,0 2.39,4.1 -0.36,10.05 0,0 -1.57,1.96 -2.02,4.43 0,0 0.03,3.81 -4.55,3.53 -4.58,-0.28 -4.68,-2.33 -4.68,-2.33 1.49,-9.83 -2.76,-11 -3.21,-19.63 z"
           style="fill:#809093"
           id="path9-4" /><path
           d="m 25.76,89.54 c -1.59,-3.4 -5.79,-5.32 -7.55,-5.62 0.28,2.82 1.39,4.99 2.1,6.87 1.11,2.96 1.84,5.89 1.01,11.71 0.21,0.32 1.79,1.38 3.98,1.54 0.84,-5.11 1.52,-10.57 0.55,-14.32 l -0.08,-0.18 z"
           style="fill:#bbd2d6"
           id="path10-6" /><path
           d="m 91.12,135 c -3.09,-13.96 0.07,-31.94 -4.56,-35.53 -4.69,-0.39 -6.93,3 -7.77,10.15 -0.16,1.34 -2.18,1.26 -3.45,0.59 2.16,14.37 8.15,20 8.35,27.3 0,0 0.84,3.54 5.69,2.65 0,0 2.7,-0.78 1.74,-5.15 z"
           style="fill:#809093"
           id="path11-0" /><path
           d="m 85.52,138.26 c -0.14,-3.54 -5.99,-25.52 -5.83,-26.88 0.6,-5.09 1.47,-10.47 6.58,-10.34 1.84,1.98 2.12,7.63 2.27,14.38 0.14,6.16 0.47,13.25 1.85,19.49 1.15,5.2 -4.51,4.59 -4.87,3.35 z"
           style="fill:#bbd2d6"
           id="path12-6" /><path
           d="m 78.12,74.02 c -2.57,-0.75 -4.62,-0.85 -6.35,-0.54 -0.13,0.02 -0.26,0.05 -0.38,0.08 -5.14,1.12 -7.42,5.97 -12.31,8.08 -1.79,0.77 -3.93,1.18 -6.68,0.9 C 50.1,82.31 48.17,81.11 46.42,79.45 42.33,75.56 39.2,69.13 34.54,66.59 34.41,66.51 34.27,66.44 34.13,66.37 33.26,65.95 32.32,65.65 31.32,65.54 36.17,60.34 45.34,54.75 45.34,54.75 l 13.39,1.65 12.04,1.48 c 1.53,2.03 3.02,5.06 4.26,7.95 1.82,4.25 3.09,8.19 3.09,8.19 z"
           style="fill:#5e3c2f"
           id="path13-6" /><path
           d="m 59.3,84.07 c -6.5,2.53 -13.28,-1.53 -13.28,-1.53 0.05,-0.89 0.19,-1.94 0.4,-3.09 1.28,-6.92 5.06,-17.3 5.06,-17.3 h 5.97 l 1.64,19.49 z"
           style="fill:#809093"
           id="path14-1" /><path
           d="m 54.72,83.55 c -3.2,0 -6.01,-1.17 -7.29,-1.79 0.58,-5.4 3.95,-15.28 5,-18.28 h 3.78 l 1.66,19.65 c -0.99,0.28 -2.05,0.42 -3.15,0.42 z"
           style="fill:#bbd2d6"
           id="path15-8" /><path
           d="m 44.17,25.43 c 0,0 -3.83,3.29 -1.59,10.24 2.24,6.95 1.99,18.04 1.88,20.05 -0.11,2.02 3.28,9.14 9.82,10.06 6.54,0.92 12.81,1.03 15.39,-3.22 2.58,-4.26 1.2,-23.11 1.99,-25.46 0.78,-2.35 -2.77,-5.57 -12.97,-8.04 -10.2,-2.46 -5.1,-3.96 -14.51,-3.63 z"
           style="fill:#bbd2d6"
           id="path16-4" /><path
           d="m 42.43,23.71 c 0,0 -4.71,5.83 -2.46,12.77 2.24,6.95 4.59,15.46 4.48,17.48 -0.11,2.02 3.28,9.14 9.82,10.06 6.54,0.92 12.81,1.03 15.39,-3.22 2.58,-4.26 4.03,-23.19 4.82,-25.54 0.78,-2.35 -5.6,-5.49 -15.8,-7.95 -10.2,-2.46 -6.83,-3.92 -16.25,-3.59 z"
           style="fill:#5e3c2f"
           id="path17-9" /><path
           d="m 77.5,60.01 -2.47,5.81 -3.25,7.65 c -0.13,0.02 -0.26,0.05 -0.38,0.08 -5.14,1.12 -7.42,5.97 -12.31,8.08 l 0.21,2.43 c -6.5,2.53 -13.28,-1.53 -13.28,-1.53 0.05,-0.89 0.19,-1.94 0.4,-3.09 C 42.33,75.55 39.2,69.12 34.54,66.58 34.41,66.5 34.27,66.43 34.13,66.36 L 34.1,66.3 c 0,0 8.57,0.43 13.32,-4.16 2.51,-2.43 7,-3.51 11.31,-5.75 3.83,-1.99 7.53,-4.9 9.59,-10.49 4.36,-11.88 9.18,14.11 9.18,14.11 z"
           style="opacity:0.3;mix-blend-mode:multiply;fill:#5e3c2f"
           id="path18-6" /><path
           d="m 45.35,23.67 c 0,0 -2.18,2.45 -2.24,7.64 -0.06,4.56 -2.9,5.92 -2.9,5.92 -7.72,-3.07 -6.84,-11 -6.84,-11 0.24,-0.29 0.49,-0.55 0.75,-0.79 3.41,-3.27 7.78,-2.73 9.93,-2.18 0.81,0.2 1.31,0.41 1.31,0.41 z"
           style="fill:#809093"
           id="path19-3" /><path
           d="m 44.04,23.26 c -1.26,1.86 -2.24,5.1 -2.27,8.03 -0.03,2.57 -1.09,3.87 -1.7,4.41 -4.65,-2.19 -5.96,-6.43 -5.96,-10.26 3.41,-3.27 7.78,-2.73 9.93,-2.18 z"
           style="fill:#bbd2d6"
           id="path20-7" /><path
           d="m 79,40.84 c 0,0 -4.3,4.37 -7.5,4.98 -1.52,0.29 -2.78,-0.26 -3.23,-2.51 -1.38,-7 3.12,-11.64 3.12,-11.64 0.4,0.07 0.77,0.14 1.13,0.24 6.95,1.81 6.47,8.92 6.47,8.92 z"
           style="fill:#809093"
           id="path21-8" /><path
           d="m 79,40.84 c 0,0 -4.3,4.37 -7.5,4.98 -0.89,-0.23 -1.58,-0.97 -1.88,-2.51 -1.2,-6.06 2.02,-10.36 2.9,-11.39 6.95,1.81 6.47,8.92 6.47,8.92 z"
           style="fill:#bbd2d6"
           id="path22" /><g
           id="g25"><path
             d="m 68.27,42.81 1.11,68.06 c 0,0 18.49,-2.69 23.7,-18.32 L 91.2,23.66 C 88.15,32.87 79.27,38.49 68.28,42.81 Z"
             style="fill:#bbd2d6"
             id="path23-8" /><path
             d="m 70.99,44.61 c 5.9,-2.44 15.08,-6.45 19.73,-14.74 l 1.29,60.27 c -3.55,9.94 -14.99,15.93 -20,17.36 L 70.99,44.6 Z"
             style="fill:#d62228"
             id="path24-2" /><path
             d="m 86.78,70.11 c -0.99,2.62 -3,4.29 -4.48,3.73 -1.48,-0.56 -1.88,-3.14 -0.88,-5.76 0.99,-2.62 3,-4.29 4.48,-3.73 1.48,0.56 1.88,3.14 0.88,5.76 z"
             style="fill:#ffffff"
             id="path25-9" /></g><path
           d="M 8.77,29.51 8.12,31.19 7,32.06 5.82,31.37 5.09,32.26 4.72,32.37 3.21,32.79 1.17,31.7 -0.01,29.82 0.38,29.01 -0.01,28.36 0.52,27.35 V 26.54 L 1.67,25.76 2.06,24.89 H 5.6 c 0,0 2.6,1.99 2.74,2.04 l 0.42,2.58 z"
           style="fill:#ffad80"
           id="path26-1" /><polygon
           points="8.46,28.7 3.61,27.96 2.64,29.2 3.03,31.03 4.73,32.36 3.22,32.78 1.18,31.69 0,29.82 0.39,29 0,28.36 0.53,27.35 0.53,26.54 1.68,25.76 2.07,24.88 3.6,24.88 8.21,27.96 "
           style="opacity:0.3;mix-blend-mode:multiply;fill:#cc825a"
           id="polygon26" /><path
           d="M 3.25,23.17 0.86,22.31 0.17,23.14 0,24.03 9.35,29.2 10.18,28.23 10.24,27.61 8.93,26.7 c 0,0 0.08,0.09 0.12,0.14 C 9.02,26.79 8.97,26.75 8.93,26.7 L 7.97,26.03 8.07,25.78 C 6.72,24.62 4.87,23.96 3.32,23.01 l -0.06,0.16 z"
           style="fill:#809093"
           id="path27-3" /><ellipse
           cx="56.950001"
           cy="33.91"
           rx="6.7199998"
           ry="7.2199998"
           style="fill:#ffad80"
           id="ellipse27" /><path
           d="m 58.68,31.36 c 0,0 -7.74,-4.29 -8.91,1.42 -1.17,5.71 4.1,12.21 8.91,11.32 4.82,-0.9 7.18,-9.08 4.59,-11.99 -2.59,-2.91 -4.59,-0.75 -4.59,-0.75 z"
           style="opacity:0.3;mix-blend-mode:multiply;fill:#cc825a"
           id="path28-5" /><path
           d="M 15.71,2.3 15.27,0 13.86,0.9 c -1.57,1 -2.78,2.47 -3.46,4.2 l -7.37,18.53 1.76,1.6 3.02,1.12 7.47,-19.2 c 0.6,-1.54 0.75,-3.23 0.43,-4.85 z"
           style="fill:#bbd2d6"
           id="path29-9" /><path
           d="M 4.93,24.89 7.32,25.65 14.24,7.82 C 14.86,6.27 15.47,4.33 15.17,2.69 L 14.99,0.85 Z"
           style="fill:#ffffff"
           id="path30-8" /><path
           d="m 73.69,35.16 c 0.71,0.52 1.42,1.04 2.14,1.56 0.19,0.14 0.42,0.28 0.64,0.22 0.18,-0.05 0.3,-0.23 0.34,-0.41 0.04,-0.18 0,-0.37 -0.05,-0.55 -0.24,-0.86 -0.77,-1.63 -1.49,-2.16 -0.52,-0.38 -1.69,-1.04 -2.33,-0.54 -0.78,0.61 0.25,1.51 0.75,1.88 z"
           style="fill:#ffffff"
           id="path31-4" /><path
           d="m 40.63,26.75 c 0.04,0.16 0.12,0.34 0.27,0.4 0.23,0.08 0.44,-0.15 0.56,-0.35 0.28,-0.47 0.51,-0.99 0.66,-1.52 0.1,-0.34 0.17,-0.69 0.11,-1.04 -0.06,-0.35 -0.26,-0.69 -0.58,-0.83 -1.7,-0.77 -1.22,2.67 -1.03,3.35 z"
           style="fill:#ffffff"
           id="path32-0" /><path
           d="m 85.53,109.12 c 0.69,5.19 1.38,10.38 2.07,15.57 -0.03,-5.38 -0.07,-10.76 -0.1,-16.14 0,-0.67 -0.08,-3.68 -1.25,-3.63 -1.22,0.05 -0.81,3.51 -0.72,4.21 z"
           style="fill:#ffffff"
           id="path33-7" /><path
           d="m 23.31,90.59 c 0.49,1.5 0.99,3 1.48,4.5 0.62,-2.06 0.35,-4.37 -0.73,-6.24 -0.32,-0.56 -4.03,-4.66 -4.35,-2.69 -0.12,0.73 1.66,1.16 2.14,1.62 0.77,0.73 1.13,1.83 1.45,2.81 z"
           style="fill:#ffffff"
           id="path34-6" /><polygon
           points="9.45,28.13 3.44,24.77 3.03,23.63 3.25,23.17 0.86,22.31 0.17,23.14 0,24.03 9.36,29.2 "
           style="opacity:0.3;mix-blend-mode:multiply;fill:#809093"
           id="polygon34" /><path
           d="m 68.27,42.81 1.11,68.06 c 0,0 12.13,-1.77 19.51,-10.75 C 75.33,84.81 72.44,61.47 71.69,41.38 c -1.11,0.49 -2.25,0.97 -3.42,1.43 z"
           style="opacity:0.3;mix-blend-mode:multiply;fill:#cc825a"
           id="path35-3" /><path
           d="m 52.26,29.63 c 0.05,0.06 -1.01,4 4.2,5.89 5.21,1.89 7.29,2.89 8.16,-2.95 0.87,-5.84 1.85,-8.76 0,-12.99 -1.85,-4.23 -8.33,-7.06 -12.5,-3.94 -4.09,3.06 -4.17,9.09 0.14,13.98 z"
           style="fill:#ffad80"
           id="path36-6" /><path
           d="m 65.96,19.32 c -0.69,-1.82 -6.89,-8.93 -14.53,-5 -7.64,3.93 -1.01,14.38 -0.43,14.73 0.26,0.16 0.75,0.23 1.2,0.27 -0.15,1.34 -0.09,3.27 1.09,4.54 1.94,2.08 7.61,4.31 9.49,3.65 1.88,-0.67 1.91,-5.31 1.91,-5.31 l 0.3,-1.89 c 0,0 -0.5,0.71 -0.62,0.71 -0.12,0 -1.22,0.23 -1.22,0.23 l -2.92,2.14 c 0,0 -4.72,-2.29 -5.32,-4.23 -0.61,-1.94 -0.03,-3.3 -0.03,-3.3 0,0 4.37,-0.84 5.99,-2.49 1.62,-1.65 2.63,-0.61 3.27,-1.5 0.64,-0.89 1.18,-0.34 1.18,-0.34 0,0 1.34,-0.39 0.65,-2.21 z"
           id="path37-1" /><path
           d="m 51.93,25.32 c -0.35,-0.22 -0.84,-0.36 -1.17,-0.1 -0.28,0.22 -0.31,0.64 -0.3,1 0.06,1.13 0.36,2.24 0.89,3.24 0.22,0.41 0.59,0.86 1.05,0.79 0.38,-0.06 0.6,-0.45 0.72,-0.81 0.5,-1.49 0.23,-3.24 -1.19,-4.12 z"
           style="fill:#ffad80"
           id="path38-5" /><g
           style="opacity:0.3;mix-blend-mode:multiply"
           id="g39"><path
             d="m 98.21,139.72 c 6.26,3.62 6.57,9.47 0.58,13.29 -6.17,3.93 -16.69,4.21 -23.5,0.62 L 9.26,119.31 C 9.07,119.21 8.88,119.11 8.7,119 2.43,115.38 2.11,109.52 8.1,105.7 c 6.18,-3.93 16.69,-4.21 23.49,-0.62 l 66.04,34.33 c 0.19,0.1 0.38,0.21 0.57,0.31 z"
             style="fill:#c1a47e"
             id="path39-4" /></g></g></g></g><g
     inkscape:groupmode="layer"
     id="g186"
     inkscape:label="Full Tile"
     transform="translate(360)"><g
       inkscape:label="Foundation"
       inkscape:groupmode="layer"
       id="g68"
       style="display:inline"><path
         style="display:inline;fill:#71c837;stroke:none;stroke-width:1;stroke-linecap:butt;stroke-linejoin:round;stroke-dasharray:none;stroke-dashoffset:0;stroke-opacity:1;paint-order:fill markers stroke"
         d="m -250,620 -30,-40 v 120 h 30 z"
         id="path65"
         sodipodi:nodetypes="ccccc"
         inkscape:label="West Wall" /><path
         style="display:inline;fill:#71c837;stroke:none;stroke-width:1;stroke-linecap:butt;stroke-linejoin:round;stroke-dasharray:none;stroke-dashoffset:0;stroke-opacity:1;paint-order:fill markers stroke"
         d="m -190,620 30,-40 v 120 h -30 z"
         id="path66"
         sodipodi:nodetypes="ccccc"
         inkscape:label="East Wall" /><path
         style="display:inline;fill:#8dd35f;stroke:none;stroke-width:1;stroke-linecap:butt;stroke-linejoin:round;stroke-dasharray:none;stroke-dashoffset:0;stroke-opacity:1;paint-order:fill markers stroke"
         d="m -250,620 h 60 v 80 h -60 z"
         id="path67"
         sodipodi:nodetypes="ccccc"
         inkscape:label="South Wall" /><path
         style="display:inline;fill:#aade87;stroke:none;stroke-width:1;stroke-linecap:butt;stroke-linejoin:round;stroke-dasharray:none;stroke-dashoffset:0;stroke-opacity:1;paint-order:fill markers stroke"
         d="m -280,580 30,-40 h 60 l 30,40 -30,40 h -60 z"
         id="path68"
         sodipodi:nodetypes="ccccccc"
         inkscape:label="Hex" /></g><g
       inkscape:groupmode="layer"
       id="g71"
       inkscape:label="Layer 2"><path
         style="display:inline;fill:none;stroke:#ffd42a;stroke-width:2;stroke-linecap:butt;stroke-linejoin:round;stroke-dasharray:4, 2;stroke-dashoffset:0;stroke-opacity:1;paint-order:fill markers stroke"
         d="m -280,580 30,-40 h 60 l 30,40 -30,40 h -60 z"
         id="path71"
         sodipodi:nodetypes="ccccccc" /></g><g
       inkscape:groupmode="layer"
       id="g138"
       inkscape:label="Detail"
       transform="translate(0,220)"><g
         id="g137"
         transform="matrix(0.91798178,0,0,1.0810095,-274.47244,295.8273)"
         inkscape:label="Mountain"
         style="display:inline"><g
           id="g91"><path
             d="m 25.06,43.51 c 0,0 10.96,-10.5 15.44,-27.21 l 6.93,0.82 c 0,0 4.84,-12.98 8.97,-17.12 4.48,2.85 8.15,5.71 8.15,5.71 0,0 2.85,9.78 11,19.16 l 3.26,-0.82 c 0,0 7.74,15.49 15.9,22.01 -0.57,8.44 -25.11,14.58 -48.75,7.18 -7.4,2.17 -24,-3.97 -20.89,-9.72 z"
             style="fill:#e7c78a"
             id="path74" /><path
             d="M 57.32,27 C 54.34,21.95 47.43,17.12 47.43,17.12 L 40.5,16.3 c -4.48,16.71 12.21,13.85 12.21,13.85 21.08,-0.84 26.11,-6.11 26.11,-6.11 l -3.26,0.82 C 72.87,25.68 60.69,26.68 57.32,27 Z"
             style="fill:#f4d29a"
             id="path75" /><path
             d="m 64.55,5.71 c 0,0 -3.67,-2.85 -8.15,-5.71 -1.79,1.8 0.33,2.63 -1.28,5.98 5.16,1.77 9.43,-0.27 9.43,-0.27 z"
             style="fill:#f4d29a"
             id="path76" /><path
             d="m 56.66,7.78 c 6.19,-0.37 7.89,-2.07 7.89,-2.07 0,0 -2.89,1.01 -7.38,-1.85 -4.13,4.14 -1.5,3.98 -0.51,3.92 z"
             style="fill:#bf8a3d"
             id="path77" /><path
             d="m 75.56,24.86 c 0,0 -7.24,-6.38 -16.25,-5.52 -0.65,0.06 -2.91,4.58 -1.99,7.66 11.28,0.64 18.24,-2.14 18.24,-2.14 z"
             style="fill:#dcb268"
             id="path78" /><path
             d="M 52.71,30.16 C 49.6,35.91 45.53,40.32 45.96,53.24 69.6,60.64 94.15,54.5 94.71,46.06 92.44,53.48 72.28,51.76 63.07,44.9 54.93,38.84 52.71,30.16 52.71,30.16 Z"
             style="fill:#dcb268"
             id="path79" /><path
             d="m 25.06,43.51 c 0,0 10.96,-10.5 15.44,-27.21 5.77,13.3 12.21,13.85 12.21,13.85 0,0 -5.88,10.11 -6.75,23.08 -7.4,2.17 -24,-3.97 -20.89,-9.72 z"
             style="fill:#d1a052"
             id="path80" /><path
             d="M 57.32,27 C 65.04,19.12 56.66,7.78 56.66,7.78 c 0,0 1.31,-4.6 -0.26,-7.78 -4.13,4.14 -8.97,17.12 -8.97,17.12 0,0 4.14,6.6 9.89,9.88 z"
             style="fill:#d1a052"
             id="path81" /><path
             d="m 25.06,43.51 c 0,0 -1.19,8.27 14.27,-0.91 9.15,-5.44 13.38,-12.45 13.38,-12.45 0,0 -5.88,10.11 -6.75,23.08 -7.4,2.17 -24,-3.97 -20.89,-9.72 z"
             style="fill:#bf8a3d"
             id="path82" /><path
             d="m 57.32,27 c 0,0 -12.36,-11.95 -0.92,-27 -4.13,4.14 -8.97,17.12 -8.97,17.12 0,0 4.14,6.6 9.89,9.88 z"
             style="fill:#bf8a3d"
             id="path83" /><path
             d="m 25.06,43.51 c 0,0 -1.21,2.49 2,4.79 4.35,3.12 13.95,6.12 18.99,4.12 13.14,5.08 45.48,5.27 48.66,-6.37 -0.57,8.44 -25.11,14.75 -48.75,7.35 -7.4,2.17 -24,-4.14 -20.89,-9.89 z"
             style="fill:#aa732b"
             id="path84" /><path
             d="m 56.66,7.78 c 6.19,-0.37 7.89,-2.07 7.89,-2.07 0,0 0.19,0.52 0.2,0.63 -4.83,1.94 -8.09,1.45 -8.09,1.45 z"
             style="fill:#aa732b"
             id="path85" /><g
             style="opacity:0.6"
             id="g86"><path
               d="m 64.55,5.71 c 0,0 -3.89,0.66 -6.92,-2.28 C 57.49,2.21 57.17,1.06 56.4,0 c 1.11,2.67 -0.19,7.94 -0.19,7.94 0,0 8.44,11.59 1.11,19.06 8.23,-7.8 -0.16,-19.2 -0.16,-19.2 0,0 0.65,-1.69 0.53,-3.62 4.35,2.52 6.86,1.53 6.86,1.53 z"
               style="fill:#ffffff"
               id="path86" /></g><path
             d="M 75.56,24.86 75.24,24.44 C 74.59,24.5 69.76,27.25 57.33,27 68.61,27.64 75.57,24.86 75.57,24.86 Z"
             style="fill:#bf8a3d"
             id="path87" /><path
             d="m 57.32,27 c 0,0 -4.07,-2.23 -9.65,-10.5 -0.15,0.4 -0.24,0.62 -0.24,0.62 0,0 4.14,6.6 9.89,9.88 z"
             style="fill:#aa732b"
             id="path88" /><g
             style="opacity:0.6"
             id="g89"><path
               d="m 41.36,16.4 -0.85,-0.1 -0.22,0.8 c 5.71,12.8 12.43,13.06 12.43,13.06 0,0 -6.92,-1.95 -11.35,-13.75 z"
               style="fill:#ffffff"
               id="path89" /></g><g
             style="opacity:0.6"
             id="g90"><path
               d="m 52.71,30.16 c 21.08,-0.84 26.11,-6.11 26.11,-6.11 l -1.32,0.33 c -5.65,4.5 -24.78,5.78 -24.78,5.78 z"
               style="fill:#ffffff"
               id="path90" /></g></g><g
           id="g96"><g
             style="opacity:0.2"
             id="g92"><path
               d="m 111.58,60.4 0.98,-1.2 c 2.1,-3.43 -11.82,-5.91 -17.85,-13.14 -0.2,2.96 -3.35,5.63 -8.37,7.54 -0.59,-0.08 -0.95,-0.12 -0.95,-0.12 l -7.86,2.35 c -8.96,1.38 -20.36,0.91 -31.57,-2.59 -7.4,2.17 -24,-3.97 -20.89,-9.72 0,0 -5.79,7.24 16.36,14.54 0.74,1.79 2.68,3.84 5.19,5.65 -1.01,0.33 -1.62,0.54 -1.62,0.54 0,0 14.88,7.44 24.32,8.44 7.44,-2 5.86,-2 5.86,-2 0,0 -0.88,-1.75 -2.35,-3.88 0.65,-0.1 1.29,-0.22 1.9,-0.34 3.71,1.8 7.78,3.39 11.23,3.89 0.78,-0.04 2.06,-0.37 3.55,-0.85 5.12,2.51 11.13,4.69 13.33,2.47 l 2.1,-3.43 1.62,-1.99 c 2.77,0.19 6.05,-0.94 7.5,-1.69 1.38,0.65 4.71,-0.73 5.04,-1.14 -0.95,-0.98 -4.25,-2.25 -7.51,-3.32 z"
               style="fill:#683600"
               id="path91" /></g><g
             style="opacity:0.2"
             id="g93"><path
               d="M 30.56,63.97 26.84,58.96 0.38,57.67 c 0,0 9.58,12.16 21.31,14.88 5.29,-2.57 8.87,-8.58 8.87,-8.58 z"
               style="fill:#683600"
               id="path92" /></g><g
             style="opacity:0.2"
             id="g94"><path
               d="M 83.79,78 63.6,78.33 c 0,0 6.44,6.09 16.88,6.54 5.29,-1.86 4.71,-4.02 4.71,-4.02 z"
               style="fill:#683600"
               id="path93" /></g><g
             style="opacity:0.2"
             id="g95"><path
               d="m 24.76,76.91 c 0,0 7.01,7.44 12.73,7.22 6.01,2.93 12.37,4.15 14.45,3.93 8.01,-3.5 11.59,-7.87 11.59,-7.87 L 56.19,74.51 24.77,76.9 Z"
               style="fill:#683600"
               id="path94" /></g></g><g
           id="g100"><path
             d="m 83.79,78 c -4.9,3.26 -9.76,4.7 -11.73,4.4 -2.6,-0.39 -3.21,-7.72 -2.33,-8.11 0.87,-0.39 7.43,-1.52 7.78,-1.48 0.35,0.04 4.54,3.47 6.28,5.19 z"
             style="fill:#dcb268"
             id="path96" /><path
             d="m 63.6,78.32 c 2.4,2.27 10.02,4.71 8.19,3.93 -1.83,-0.78 -2.94,-7.57 -2.06,-7.96 l -3.21,-1.28 c -0.63,2.23 -4.17,4.07 -2.92,5.31 z"
             style="fill:#d1a052"
             id="path97" /><path
             d="m 77.51,72.81 c -2.11,0.07 -8.66,1.87 -7.78,1.48 l -3.21,-1.28 c 0,0 4.48,-1.45 11,-0.21 z"
             style="fill:#f4d29a"
             id="path98" /><g
             style="opacity:0.6"
             id="g99"><path
               d="m 66.52,73.01 c 0,0 1.67,0.42 3.4,1.11 1.72,-0.4 7.28,-1.35 7.6,-1.32 0.35,0.04 -4.92,0.86 -7.48,1.71 -0.75,6.65 2.03,7.88 2.03,7.88 -2.75,-0.97 -2.85,-6.78 -2.64,-7.96 L 66.52,73 Z"
               style="fill:#ffffff"
               id="path99" /></g><path
             d="m 72.21,82.16 c 0.86,0.25 4.3,-0.16 11.58,-4.17 -4.9,3.26 -9.76,4.7 -11.73,4.4 -0.27,0.03 -6.37,-2.09 -8.47,-4.07 2.59,2.08 8.62,3.84 8.62,3.84 z"
             style="fill:#aa732b"
             id="path100" /></g><g
           id="g106"><g
             id="g104"><path
               d="m 0,57.8 c 6.36,5.21 12.91,7.89 15.68,7.75 3.66,-0.18 3.64,-17.12 2.48,-17.79 C 17,47.09 7.74,44.86 7.25,44.86 c -0.28,0 -2.6,5.51 -2.6,5.51 0,0 1.37,4.66 -4.64,7.42 z"
               style="fill:#dcb268"
               id="path101" /><path
               d="m 28.01,61.07 c -3.65,2.82 -11.93,4.31 -11.93,4.31 0.46,-2.77 -1.26,-9.96 0.03,-11.42 l 5.82,-6.33 c 0.56,3.19 5.86,9.24 6.09,13.44 z"
               style="fill:#d1a052"
               id="path102" /><path
               d="m 7.25,44.87 c 2.93,0.39 8.86,9.1 8.86,9.1 l 5.82,-6.33 c 0,0 -5.45,-3.58 -14.68,-2.77 z"
               style="fill:#f4d29a"
               id="path103" /><path
               d="M 15.51,65.21 C 14.28,65.44 9.56,64.38 0,57.8 c 6.36,5.21 12.91,7.89 15.68,7.75 0.37,0.07 9.14,-2.01 12.33,-4.48 C 24.13,63.59 15.5,65.2 15.5,65.2 Z"
               style="fill:#aa732b"
               id="path104" /></g><g
             style="opacity:0.6"
             id="g105"><path
               d="m 16.37,54.18 5.55,-6.54 -5.82,5.65 c 0,0 -5.26,-8.26 -8.86,-8.42 2.71,0.36 7.82,8.52 8.55,9.71 -0.73,2.2 0.27,8 0.28,10.8 0,0 0.71,-2.09 -0.06,-8.21 -0.12,-0.97 0.04,-1.99 0.35,-3 z"
               style="fill:#ffffff"
               id="path105" /></g></g><g
           id="g115"><path
             d="m 94.56,61.53 c 6.04,-4.11 9.13,-9.25 9.13,-9.25 0,0 2.51,-1.07 5.49,-2.02 1.73,2.97 2.54,11.08 2.54,11.08 0,0 -6.58,4.22 -17.15,0.19 z"
             style="fill:#e7c78a"
             id="path106" /><path
             d="m 103.69,52.28 c 0,0 2.51,-1.07 5.49,-2.02 0.75,1.29 -0.58,1.45 -0.17,3.59 -3.2,0.23 -5.32,-1.57 -5.32,-1.57 z"
             style="fill:#f4d29a"
             id="path107" /><path
             d="m 107.87,54.64 c -3.46,-1.14 -4.18,-2.36 -4.18,-2.36 0,0 1.49,1.01 4.47,0.05 1.73,2.97 0.26,2.49 -0.3,2.31 z"
             style="fill:#bf8a3d"
             id="path108" /><path
             d="m 94.56,61.53 c 0,0 5.07,-2.55 10.07,-0.71 0.36,0.13 0.97,3.04 -0.02,4.65 C 98.1,64.14 94.56,61.52 94.56,61.52 Z"
             style="fill:#dcb268"
             id="path109" /><path
             d="m 104.61,65.48 c -3.21,-5.64 3.25,-10.83 3.25,-10.83 0,0 -0.06,-2.81 1.32,-4.39 1.73,2.97 2.54,11.08 2.54,11.08 0,0 -3.34,3.13 -7.1,4.14 z"
             style="fill:#d1a052"
             id="path110" /><path
             d="m 104.61,65.48 c 0,0 8.82,-4.95 4.57,-15.22 1.73,2.97 2.54,11.08 2.54,11.08 0,0 -3.34,3.13 -7.1,4.14 z"
             style="fill:#bf8a3d"
             id="path111" /><path
             d="m 107.87,54.64 c -3.46,-1.14 -4.18,-2.36 -4.18,-2.36 0,0 -0.19,0.27 -0.21,0.33 2.45,1.83 4.38,2.03 4.38,2.03 z"
             style="fill:#aa732b"
             id="path112" /><g
             style="opacity:0.6"
             id="g113"><path
               d="m 103.69,52.28 c 0,0 2.11,0.96 4.28,-0.26 0.26,-0.68 0.62,-1.28 1.21,-1.77 -1.03,1.35 -1.08,4.55 -1.08,4.55 0,0 -6.54,5.32 -3.49,10.67 -3.51,-5.67 2.97,-10.9 2.97,-10.9 0,0 -0.12,-1.06 0.24,-2.14 -2.85,0.78 -4.13,-0.16 -4.13,-0.16 z"
               style="fill:#ffffff"
               id="path113" /></g><path
             d="m 94.56,61.53 0.25,-0.19 c 0.34,0.13 2.78,2.55 9.58,3.72 0.32,0.06 0.22,0.42 0.22,0.42 C 98.1,64.15 94.56,61.53 94.56,61.53 Z"
             style="fill:#bf8a3d"
             id="path114" /><path
             d="m 104.61,65.48 -0.22,-0.42 c 2.95,-0.45 4.97,-2.08 7.28,-4.11 0.03,0.25 0.04,0.39 0.04,0.39 0,0 -3.34,3.13 -7.1,4.14 z"
             style="fill:#aa732b"
             id="path115" /></g><g
           id="g123"><path
             d="m 89.47,46.96 c 0,0 -5.46,-1.51 -8.63,-3.43 -1.33,-0.8 -12.65,2.03 -11.93,2.54 1.27,0.89 5.58,4.7 10.28,6.09 0,1.4 11.29,1.65 10.28,-5.2 z"
             style="fill:#f4d29a"
             id="path116" /><path
             d="m 63.45,60.03 c 0,0 4.19,-14.85 5.46,-13.96 1.27,0.89 5.58,4.7 10.28,6.09 1.4,3.93 -0.63,15.1 -0.63,15.1 0,0 -10.15,-3.55 -15.1,-7.23 z"
             style="fill:#bf8a3d"
             id="path117" /><path
             d="m 96.83,58 c 0,0 -4.44,-5.84 -7.36,-11.04 0,0 -3.68,6.35 -10.28,5.2 1.4,3.93 -0.63,15.1 -0.63,15.1 0,0 13.33,-3.05 18.27,-9.26 z"
             style="fill:#dcb268"
             id="path118" /><path
             d="m 63.45,60.03 c 0,0 4.19,-14.85 5.46,-13.96 1.27,0.89 5.58,4.7 10.28,6.09 0,1.4 -9.01,9.26 -15.74,7.87 z"
             style="fill:#d1a052"
             id="path119" /><path
             d="m 89.47,46.96 c 0,0 -3.68,6.35 -10.28,5.2 0.76,4.06 -0.63,15.1 -0.63,15.1 0,0 11.04,-8.25 10.91,-20.31 z"
             style="fill:#d1a052"
             id="path120" /><path
             d="m 78.55,66.5 c -0.98,0.41 -15.1,-6.47 -15.1,-6.47 4.95,3.68 15.1,7.23 15.1,7.23 0,0 13.33,-3.05 18.27,-9.26 0,0 -4.82,5.84 -18.27,8.5 z"
             style="fill:#aa732b"
             id="path121" /><g
             style="opacity:0.6"
             id="g122"><path
               d="m 79.47,51.8 c 0,0 0,-0.01 0,-0.02 -4.7,-1.4 -9.29,-4.82 -10.56,-5.71 2.28,3.68 9.97,6.6 9.97,6.6 0.64,1.54 -0.32,14.59 -0.32,14.59 0,0 1.47,-10.58 1.02,-14.77 1.41,0.11 6.78,0.12 9.89,-5.54 0,0 -3.55,4.79 -9.99,4.84 z"
               style="fill:#ffffff"
               id="path122" /></g></g><g
           id="g127"><path
             d="m 40.53,60.18 c 6.36,5.21 12.91,7.89 15.68,7.75 3.66,-0.18 5.54,-10.28 4.38,-10.94 -1.16,-0.66 -10.11,-3.15 -10.61,-3.15 -0.5,0 -6.8,4.18 -9.45,6.34 z"
             style="fill:#dcb268"
             id="path123" /><path
             d="M 68.54,63.46 C 64.89,66.28 53.95,68.6 56.61,67.77 59.27,66.94 61.75,57.66 60.59,57 l 4.64,-1.33 c 0.56,3.19 5.22,6.24 3.32,7.79 z"
             style="fill:#d1a052"
             id="path124" /><path
             d="m 49.98,53.84 c 2.93,0.39 11.77,3.81 10.61,3.15 l 4.64,-1.33 c 0,0 -6.02,-2.63 -15.25,-1.82 z"
             style="fill:#f4d29a"
             id="path125" /><g
             style="opacity:0.6"
             id="g126"><path
               d="m 65.23,55.67 c 0,0 -2.38,0.35 -4.88,1.07 -2.33,-0.8 -9.92,-2.89 -10.37,-2.89 -0.5,0 6.71,1.88 10.16,3.43 0.11,9.34 -3.93,10.66 -3.93,10.66 3.96,-0.97 4.91,-9.02 4.78,-10.69 z"
               style="fill:#ffffff"
               id="path126" /></g><path
             d="m 56.03,67.59 c -1.23,0.23 -5.95,-0.83 -15.51,-7.41 6.36,5.21 12.91,7.89 15.68,7.75 0.37,0.07 9.14,-2.01 12.33,-4.48 -3.88,2.52 -12.51,4.13 -12.51,4.13 z"
             style="fill:#aa732b"
             id="path127" /></g><g
           id="g136"><path
             d="m 48.67,59.93 -1.54,0.54 c -0.2,-0.32 -0.38,-0.64 -0.57,-0.96 -1.78,0.83 -3.69,1.24 -5.42,1.49 -3.33,0.48 -6.97,-1.19 -8.43,-5.85 -0.48,-0.08 -1.17,-0.19 -2.17,-0.36 -2.12,11.08 -7.3,18.04 -7.3,18.04 -1.47,3.81 6.38,7.88 9.88,6.45 11.18,4.91 22.8,0.84 23.06,-4.76 -3.86,-4.32 -7.52,-14.6 -7.52,-14.6 z"
             style="fill:#e7c78a"
             id="path128" /><path
             d="m 40.18,56.3 c -0.22,0.1 -6.36,-0.97 -6.36,-0.97 l -3.28,-0.54 c -2.12,11.08 5.77,9.19 5.77,9.19 9.97,-0.56 12.35,-4.05 12.35,-4.05 0,0 -1.4,-0.38 -3.57,-1.29 -1.88,-0.72 -4.2,-0.51 -4.92,-2.33 z"
             style="fill:#f4d29a"
             id="path129" /><path
             d="m 36.32,63.98 c -1.47,3.81 -3.4,6.74 -3.19,15.3 11.18,4.91 22.8,0.84 23.06,-4.76 -1.07,4.92 -10.61,3.78 -14.97,-0.77 -3.85,-4.02 -4.9,-9.77 -4.9,-9.77 z"
             style="fill:#dcb268"
             id="path130" /><path
             d="m 23.24,72.83 c 0,0 5.18,-6.96 7.3,-18.04 2.73,8.82 5.77,9.19 5.77,9.19 0,0 -2.78,6.71 -3.19,15.3 -3.5,1.44 -11.36,-2.63 -9.88,-6.45 z"
             style="fill:#d1a052"
             id="path131" /><path
             d="m 23.24,72.83 c 0,0 -0.56,5.48 6.75,-0.6 4.33,-3.6 6.33,-8.26 6.33,-8.26 0,0 -2.78,6.71 -3.19,15.3 -3.5,1.44 -11.36,-2.63 -9.88,-6.45 z"
             style="fill:#bf8a3d"
             id="path132" /><path
             d="m 23.24,72.83 c 0,0 -0.57,1.65 0.94,3.18 2.06,2.07 6.6,4.06 8.98,2.73 6.21,3.37 21.52,3.5 23.02,-4.22 -0.27,5.6 -11.88,9.78 -23.06,4.87 -3.5,1.44 -11.36,-2.75 -9.88,-6.56 z"
             style="fill:#aa732b"
             id="path133" /><g
             style="opacity:0.6"
             id="g134"><path
               d="m 30.95,54.86 -0.4,-0.07 -0.1,0.53 c 2.7,8.49 5.88,8.66 5.88,8.66 0,0 -3.27,-1.29 -5.37,-9.12 z"
               style="fill:#ffffff"
               id="path134" /></g><g
             style="opacity:0.6"
             id="g135"><path
               d="m 36.32,63.98 c 9.97,-0.56 12.35,-4.05 12.35,-4.05 l -0.63,0.22 c -2.67,2.98 -11.72,3.83 -11.72,3.83 z"
               style="fill:#ffffff"
               id="path135" /></g></g></g></g><g
       inkscape:groupmode="layer"
       id="g141"
       inkscape:label="Text and Icons"
       style="display:inline"><text
         xml:space="preserve"
         style="font-style:normal;font-variant:normal;font-weight:bold;font-stretch:normal;font-size:10.6667px;font-family:Junction;-inkscape-font-specification:'Junction, Bold';font-variant-ligatures:normal;font-variant-caps:normal;font-variant-numeric:normal;font-variant-east-asian:normal;text-align:start;writing-mode:lr-tb;direction:ltr;text-anchor:start;display:inline;fill:#000000;fill-opacity:1;stroke:none;stroke-width:1;stroke-linejoin:round;stroke-dasharray:none;stroke-dashoffset:0;stroke-opacity:1;paint-order:fill markers stroke"
         x="-242"
         y="570"
         id="text141"
         inkscape:label="Text"><tspan
           sodipodi:role="line"
           id="tspan141"
           x="-242"
           y="570">Tile Text</tspan></text></g><g
       inkscape:groupmode="layer"
       id="g144"
       inkscape:label="Route Paths"
       style="display:inline"><path
         style="fill:none;fill-opacity:1;stroke:#00aad4;stroke-width:5.1;stroke-linejoin:round;stroke-dasharray:none;stroke-dashoffset:0;stroke-opacity:1;paint-order:fill markers stroke"
         d="m -175,600 -45,-20 -45,20"
         id="path144"
         sodipodi:nodetypes="ccc"
         inkscape:label="Route Path" /></g><g
       inkscape:groupmode="layer"
       id="g185"
       inkscape:label="Units"
       transform="translate(0,560)"><g
         id="g184"
         style="display:inline;isolation:isolate"
         transform="matrix(0.6274993,0,0,0.6274993,-256.85303,244.60904)"
         inkscape:label="Warrior"><polygon
           points="1.02,32.55 1.69,31.36 3.89,32.12 4.02,32.17 3.91,32.39 3.23,33.68 3.49,34.63 3.04,35.22 2.09,35.22 0.27,34.15 0,33.4 0.4,32.78 "
           style="fill:#809093"
           id="polygon145"
           transform="translate(0,-478.08823)" /><polygon
           points="1.69,31.36 3.89,32.12 3.91,32.39 4.02,33.68 1.69,33.68 2.09,35.22 0.27,34.15 0,33.4 0.4,32.78 1.02,32.55 "
           style="opacity:0.3;mix-blend-mode:multiply;fill:#809093"
           id="polygon146"
           transform="translate(0,-478.08823)" /><path
           d="m 40.39,-443.25823 c -5.67,2.98 -17.93,1.97 -17.93,1.97 -8.19,-0.08 -16.42,-7.83 -16.83,-8.23 -0.01,0 2.42,-2.82 2.42,-2.82 7.94,0.75 13.99,3.78 13.99,3.78 5.97,-3.15 11.3,-2.69 11.3,-2.69 h 2.06 l 3.33,5.33 z"
           style="fill:#ffad80"
           id="path146" /><path
           d="m 40.39,-443.25823 c -5.67,2.98 -17.93,1.97 -17.93,1.97 -8.19,-0.08 -16.42,-7.83 -16.83,-8.23 0.41,0.17 10.98,4.69 16.64,5.34 3.78,0.44 11.55,-0.82 16.46,-1.73 l 1.66,2.66 z"
           style="opacity:0.3;mix-blend-mode:multiply;fill:#cc825a"
           id="path147" /><path
           d="m 87.92,-343.85822 -3.25,3.19 c 0,0 -1.18,2.8 -1.18,4.99 0,2.19 1.51,1.9 1.68,3.81 0.17,1.9 1.57,5.27 3.42,5.88 1.85,0.61 7.06,0.56 7.67,-1.96 0.61,-2.52 -3.25,-6.11 -3.53,-7.84 -0.28,-1.74 -1.61,-6.11 -1.61,-6.11 z"
           style="fill:#5e3c2f"
           id="path148" /><path
           d="m 21.37,-375.89822 c 0,0 -4.65,2.69 -7.28,3.03 -2.63,0.34 -6.11,2.63 -4.31,4.82 1.79,2.18 4.59,2.69 8.29,2.3 3.7,-0.39 5.43,-1.9 8.57,-2.3 3.14,-0.39 6.61,-1.85 3.42,-8.74 0,0 -5.77,2.07 -8.68,0.9 z"
           style="fill:#5e3c2f"
           id="path149" /><path
           d="m 89.49,-338.42822 c -3.93,1.24 -4.82,-2.24 -4.82,-2.24 -0.34,-3.25 -4.03,-10.98 -7.17,-19.38 -0.77,-2.06 -1.26,-4.05 -1.58,-5.89 -0.98,-5.69 -0.21,-9.91 -0.21,-9.91 l -1.71,-3.29 -1.21,-2.32 c -0.19,-0.41 -0.39,-0.81 -0.6,-1.22 -5.35,-10.09001 -19.23,-19.62001 -19.23,-19.62001 -13.22,1.85 -21.79,8.97 -21.79,8.97 1.58,1.61001 1.98,4.30001 1.77,6.78001 -0.2,2.35 -0.95,4.52 -1.77,5.42 -1.68,1.85 -1.12,4.32 -1.12,4.32 0,0 -0.28,2.52 -3.64,2.91 -3.36,0.4 -5.04,-2.02 -5.04,-2.02 1.29,-4.93 0.4,-11.7 -1.45,-14.12 -1.85,-2.41 0,-5.88001 0,-5.88001 6.44,-17.74999 25.21,-26.22 25.21,-26.22 2.07,6.25001 8.48,8.09001 11.68,8.63001 6.74,0.91 15.21,-2.47 15.21,-2.47 12.1,19.48999 12.99,39.66 12.99,39.66 4.71,11.43 3.81,28.12 5.6,32.6 1.79,4.48 -1.12,5.26 -1.12,5.26 z"
           style="fill:#ffad80"
           id="path150" /><path
           d="m 74.54,-383.00822 -2.35,0.34 c -5.35,-10.09001 -19.23,-19.62001 -19.23,-19.62001 -13.22,1.85 -21.79,8.97 -21.79,8.97 1.58,1.61001 1.98,4.30001 1.77,6.78001 l -3.66,-2.6 c 0,0 -2.08,-3.79001 2.04,-8.84001 4.12,-5.05 2.78,-13.80999 2.78,-13.80999 l 37.64,0.97 2.79,27.82 z"
           style="opacity:0.3;mix-blend-mode:multiply;fill:#cc825a"
           id="path151" /><path
           d="m 84.1,-378.41822 -5.1,15.13 -3.09,-2.64 c -0.98,-5.69 -0.21,-9.91 -0.21,-9.91 l -1.71,-3.29 2.82,-1.36 7.28,2.07 z"
           style="opacity:0.3;mix-blend-mode:multiply;fill:#cc825a"
           id="path152" /><path
           d="m 17.62,-395.22823 c 0.97,-1.2 6.91,0.86 9.35,6.11001 0,0 3.91,0.74 5.46,-2.15 0,0 2.39,4.1 -0.36,10.05 0,0 -1.57,1.96 -2.02,4.43 0,0 0.03,3.81 -4.55,3.53 -4.58,-0.28 -4.68,-2.33 -4.68,-2.33 1.49,-9.83 -2.76,-11 -3.21,-19.63001 z"
           style="fill:#809093"
           id="path153" /><path
           d="m 25.76,-388.54822 c -1.59,-3.4 -5.79,-5.32001 -7.55,-5.62001 0.28,2.82001 1.39,4.99001 2.1,6.87001 1.11,2.96 1.84,5.89 1.01,11.71 0.21,0.32 1.79,1.38 3.98,1.54 0.84,-5.11 1.52,-10.57 0.55,-14.32 l -0.08,-0.18 z"
           style="fill:#bbd2d6"
           id="path154" /><path
           d="m 91.12,-343.08822 c -3.09,-13.96 0.07,-31.94 -4.56,-35.53 -4.69,-0.39 -6.93,3 -7.77,10.15 -0.16,1.34 -2.18,1.26 -3.45,0.59 2.16,14.37 8.15,20 8.35,27.3 0,0 0.84,3.54 5.69,2.65 0,0 2.7,-0.78 1.74,-5.15 z"
           style="fill:#809093"
           id="path155" /><path
           d="m 85.52,-339.82822 c -0.14,-3.54 -5.99,-25.52 -5.83,-26.88 0.6,-5.09 1.47,-10.47 6.58,-10.34 1.84,1.98 2.12,7.63 2.27,14.38 0.14,6.16 0.47,13.25 1.85,19.49 1.15,5.2 -4.51,4.59 -4.87,3.35 z"
           style="fill:#bbd2d6"
           id="path156" /><path
           d="m 78.12,-404.06823 c -2.57,-0.74999 -4.62,-0.84999 -6.35,-0.53999 -0.13,0.02 -0.26,0.05 -0.38,0.08 -5.14,1.11999 -7.42,5.96999 -12.31,8.07999 -1.79,0.77 -3.93,1.18 -6.68,0.9 -2.3,-0.23 -4.23,-1.43 -5.98,-3.09 -4.09,-3.89 -7.22,-10.31999 -11.88,-12.85999 -0.13,-0.08 -0.27,-0.15 -0.41,-0.22 -0.87,-0.42 -1.81,-0.72 -2.81,-0.83 4.85,-5.2 14.02,-10.79001 14.02,-10.79001 l 13.39,1.65 12.04,1.48 c 1.53,2.03001 3.02,5.06001 4.26,7.95001 1.82,4.25 3.09,8.18999 3.09,8.18999 z"
           style="fill:#5e3c2f"
           id="path157" /><path
           d="m 59.3,-394.01823 c -6.5,2.53001 -13.28,-1.53 -13.28,-1.53 0.05,-0.89 0.19,-1.94 0.4,-3.09 1.28,-6.91999 5.06,-17.29999 5.06,-17.29999 h 5.97 l 1.64,19.48999 z"
           style="fill:#809093"
           id="path158" /><path
           d="m 54.72,-394.53823 c -3.2,0 -6.01,-1.17 -7.29,-1.79 0.58,-5.4 3.95,-15.27999 5,-18.27999 h 3.78 l 1.66,19.64999 c -0.99,0.28 -2.05,0.42 -3.15,0.42 z"
           style="fill:#bbd2d6"
           id="path159" /><path
           d="m 44.17,-452.65823 c 0,0 -3.83,3.29 -1.59,10.24 2.24,6.95 1.99,18.04 1.88,20.05 -0.11,2.02 3.28,9.14001 9.82,10.06001 6.54,0.92 12.81,1.03 15.39,-3.22 2.58,-4.26001 1.2,-23.11001 1.99,-25.46001 0.78,-2.35 -2.77,-5.57 -12.97,-8.04 -10.2,-2.46 -5.1,-3.96 -14.51,-3.63 z"
           style="fill:#bbd2d6"
           id="path160" /><path
           d="m 42.43,-454.37823 c 0,0 -4.71,5.83 -2.46,12.77 2.24,6.95 4.59,15.46 4.48,17.48 -0.11,2.02 3.28,9.14001 9.82,10.06001 6.54,0.92 12.81,1.03 15.39,-3.22 2.58,-4.26001 4.03,-23.19001 4.82,-25.54001 0.78,-2.35 -5.6,-5.49 -15.8,-7.95 -10.2,-2.46 -6.83,-3.92 -16.25,-3.59 z"
           style="fill:#5e3c2f"
           id="path161" /><path
           d="m 77.5,-418.07822 -2.47,5.81 -3.25,7.65 c -0.13,0.02 -0.26,0.05 -0.38,0.08 -5.14,1.11999 -7.42,5.96999 -12.31,8.07999 l 0.21,2.43 c -6.5,2.53001 -13.28,-1.53 -13.28,-1.53 0.05,-0.89 0.19,-1.94 0.4,-3.09 -4.09,-3.89 -7.22,-10.31999 -11.88,-12.85999 -0.13,-0.08 -0.27,-0.15 -0.41,-0.22 l -0.03,-0.06 c 0,0 8.57,0.43 13.32,-4.16 2.51,-2.43 7,-3.51001 11.31,-5.75001 3.83,-1.99 7.53,-4.9 9.59,-10.49 4.36,-11.88 9.18,14.11001 9.18,14.11001 z"
           style="opacity:0.3;mix-blend-mode:multiply;fill:#5e3c2f"
           id="path162" /><path
           d="m 45.35,-454.41823 c 0,0 -2.18,2.45 -2.24,7.64 -0.06,4.56 -2.9,5.92 -2.9,5.92 -7.72,-3.07 -6.84,-11 -6.84,-11 0.24,-0.29 0.49,-0.55 0.75,-0.79 3.41,-3.27 7.78,-2.73 9.93,-2.18 0.81,0.2 1.31,0.41 1.31,0.41 z"
           style="fill:#809093"
           id="path163" /><path
           d="m 44.04,-454.82823 c -1.26,1.86 -2.24,5.1 -2.27,8.03 -0.03,2.57 -1.09,3.87 -1.7,4.41 -4.65,-2.19 -5.96,-6.43 -5.96,-10.26 3.41,-3.27 7.78,-2.73 9.93,-2.18 z"
           style="fill:#bbd2d6"
           id="path164" /><path
           d="m 79,-437.24823 c 0,0 -4.3,4.37 -7.5,4.98 -1.52,0.29 -2.78,-0.26 -3.23,-2.51 -1.38,-7 3.12,-11.64 3.12,-11.64 0.4,0.07 0.77,0.14 1.13,0.24 6.95,1.81 6.47,8.92 6.47,8.92 z"
           style="fill:#809093"
           id="path165" /><path
           d="m 79,-437.24823 c 0,0 -4.3,4.37 -7.5,4.98 -0.89,-0.23 -1.58,-0.97 -1.88,-2.51 -1.2,-6.06 2.02,-10.36 2.9,-11.39 6.95,1.81 6.47,8.92 6.47,8.92 z"
           style="fill:#bbd2d6"
           id="path166" /><g
           id="g169"
           transform="translate(0,-478.08823)"><path
             d="m 68.27,42.81 1.11,68.06 c 0,0 18.49,-2.69 23.7,-18.32 L 91.2,23.66 C 88.15,32.87 79.27,38.49 68.28,42.81 Z"
             style="fill:#bbd2d6"
             id="path167" /><path
             d="m 70.99,44.61 c 5.9,-2.44 15.08,-6.45 19.73,-14.74 l 1.29,60.27 c -3.55,9.94 -14.99,15.93 -20,17.36 L 70.99,44.6 Z"
             style="fill:#d62228"
             id="path168" /><path
             d="m 86.78,70.11 c -0.99,2.62 -3,4.29 -4.48,3.73 -1.48,-0.56 -1.88,-3.14 -0.88,-5.76 0.99,-2.62 3,-4.29 4.48,-3.73 1.48,0.56 1.88,3.14 0.88,5.76 z"
             style="fill:#ffffff"
             id="path169" /></g><path
           d="m 8.77,-448.57823 -0.65,1.68 -1.12,0.87 -1.18,-0.69 -0.73,0.89 -0.37,0.11 -1.51,0.42 -2.04,-1.09 -1.18,-1.88 0.39,-0.81 -0.39,-0.65 0.53,-1.01 v -0.81 l 1.15,-0.78 0.39,-0.87 H 5.6 c 0,0 2.6,1.99 2.74,2.04 l 0.42,2.58 z"
           style="fill:#ffad80"
           id="path170" /><polygon
           points="0,29.82 0.39,29 0,28.36 0.53,27.35 0.53,26.54 1.68,25.76 2.07,24.88 3.6,24.88 8.21,27.96 8.46,28.7 3.61,27.96 2.64,29.2 3.03,31.03 4.73,32.36 3.22,32.78 1.18,31.69 "
           style="opacity:0.3;mix-blend-mode:multiply;fill:#cc825a"
           id="polygon170"
           transform="translate(0,-478.08823)" /><path
           d="m 3.25,-454.91823 -2.39,-0.86 -0.69,0.83 -0.17,0.89 9.35,5.17 0.83,-0.97 0.06,-0.62 -1.31,-0.91 c 0,0 0.08,0.09 0.12,0.14 -0.03,-0.05 -0.08,-0.09 -0.12,-0.14 l -0.96,-0.67 0.1,-0.25 c -1.35,-1.16 -3.2,-1.82 -4.75,-2.77 l -0.06,0.16 z"
           style="fill:#809093"
           id="path171" /><ellipse
           cx="56.950001"
           cy="-444.17825"
           rx="6.7199998"
           ry="7.2199998"
           style="fill:#ffad80"
           id="ellipse171" /><path
           d="m 58.68,-446.72823 c 0,0 -7.74,-4.29 -8.91,1.42 -1.17,5.71 4.1,12.21 8.91,11.32 4.82,-0.9 7.18,-9.08 4.59,-11.99 -2.59,-2.91 -4.59,-0.75 -4.59,-0.75 z"
           style="opacity:0.3;mix-blend-mode:multiply;fill:#cc825a"
           id="path172" /><path
           d="m 15.71,-475.78823 -0.44,-2.3 -1.41,0.9 c -1.57,1 -2.78,2.47 -3.46,4.2 l -7.37,18.53 1.76,1.6 3.02,1.12 7.47,-19.2 c 0.6,-1.54 0.75,-3.23 0.43,-4.85 z"
           style="fill:#bbd2d6"
           id="path173" /><path
           d="m 4.93,-453.19823 2.39,0.76 6.92,-17.83 c 0.62,-1.55 1.23,-3.49 0.93,-5.13 l -0.18,-1.84 z"
           style="fill:#ffffff"
           id="path174" /><path
           d="m 73.69,-442.92823 c 0.71,0.52 1.42,1.04 2.14,1.56 0.19,0.14 0.42,0.28 0.64,0.22 0.18,-0.05 0.3,-0.23 0.34,-0.41 0.04,-0.18 0,-0.37 -0.05,-0.55 -0.24,-0.86 -0.77,-1.63 -1.49,-2.16 -0.52,-0.38 -1.69,-1.04 -2.33,-0.54 -0.78,0.61 0.25,1.51 0.75,1.88 z"
           style="fill:#ffffff"
           id="path175" /><path
           d="m 40.63,-451.33823 c 0.04,0.16 0.12,0.34 0.27,0.4 0.23,0.08 0.44,-0.15 0.56,-0.35 0.28,-0.47 0.51,-0.99 0.66,-1.52 0.1,-0.34 0.17,-0.69 0.11,-1.04 -0.06,-0.35 -0.26,-0.69 -0.58,-0.83 -1.7,-0.77 -1.22,2.67 -1.03,3.35 z"
           style="fill:#ffffff"
           id="path176" /><path
           d="m 85.53,-368.96822 c 0.69,5.19 1.38,10.38 2.07,15.57 -0.03,-5.38 -0.07,-10.76 -0.1,-16.14 0,-0.67 -0.08,-3.68 -1.25,-3.63 -1.22,0.05 -0.81,3.51 -0.72,4.21 z"
           style="fill:#ffffff"
           id="path177" /><path
           d="m 23.31,-387.49822 c 0.49,1.5 0.99,3 1.48,4.5 0.62,-2.06 0.35,-4.37 -0.73,-6.24 -0.32,-0.56 -4.03,-4.66001 -4.35,-2.69 -0.12,0.73 1.66,1.16 2.14,1.62 0.77,0.73 1.13,1.83 1.45,2.81 z"
           style="fill:#ffffff"
           id="path178" /><polygon
           points="9.36,29.2 9.45,28.13 3.44,24.77 3.03,23.63 3.25,23.17 0.86,22.31 0.17,23.14 0,24.03 "
           style="opacity:0.3;mix-blend-mode:multiply;fill:#809093"
           id="polygon178"
           transform="translate(0,-478.08823)" /><path
           d="m 68.27,-435.27823 1.11,68.06001 c 0,0 12.13,-1.77 19.51,-10.75 -13.56,-15.31001 -16.45,-38.65 -17.2,-58.74001 -1.11,0.49 -2.25,0.97 -3.42,1.43 z"
           style="opacity:0.3;mix-blend-mode:multiply;fill:#cc825a"
           id="path179" /><path
           d="m 52.26,-448.45823 c 0.05,0.06 -1.01,4 4.2,5.89 5.21,1.89 7.29,2.89 8.16,-2.95 0.87,-5.84 1.85,-8.76 0,-12.99 -1.85,-4.23 -8.33,-7.06 -12.5,-3.94 -4.09,3.06 -4.17,9.09 0.14,13.98 z"
           style="fill:#ffad80"
           id="path180" /><path
           d="m 65.96,-458.76823 c -0.69,-1.82 -6.89,-8.93 -14.53,-5 -7.64,3.93 -1.01,14.38 -0.43,14.73 0.26,0.16 0.75,0.23 1.2,0.27 -0.15,1.34 -0.09,3.27 1.09,4.54 1.94,2.08 7.61,4.31 9.49,3.65 1.88,-0.67 1.91,-5.31 1.91,-5.31 l 0.3,-1.89 c 0,0 -0.5,0.71 -0.62,0.71 -0.12,0 -1.22,0.23 -1.22,0.23 l -2.92,2.14 c 0,0 -4.72,-2.29 -5.32,-4.23 -0.61,-1.94 -0.03,-3.3 -0.03,-3.3 0,0 4.37,-0.84 5.99,-2.49 1.62,-1.65 2.63,-0.61 3.27,-1.5 0.64,-0.89 1.18,-0.34 1.18,-0.34 0,0 1.34,-0.39 0.65,-2.21 z"
           id="path181" /><path
           d="m 51.93,-452.76823 c -0.35,-0.22 -0.84,-0.36 -1.17,-0.1 -0.28,0.22 -0.31,0.64 -0.3,1 0.06,1.13 0.36,2.24 0.89,3.24 0.22,0.41 0.59,0.86 1.05,0.79 0.38,-0.06 0.6,-0.45 0.72,-0.81 0.5,-1.49 0.23,-3.24 -1.19,-4.12 z"
           style="fill:#ffad80"
           id="path182" /><g
           style="opacity:0.3;mix-blend-mode:multiply"
           id="g183" /></g></g></g></svg>
