<?xml version="1.0" encoding="UTF-8"?>
<svg id="Layer_2" xmlns="http://www.w3.org/2000/svg" viewBox="0 0 55.49 102.35">
  <g id="Layer_1-2" data-name="Layer_1">
    <path id="_x31_" d="M42.03,44.88c0,11.82-.07,23.65.03,35.47.05,6.04.77,6.68,6.77,7.62,4.65.73,6.55,2.61,6.65,6.6.11,4.07-2.14,6.78-6.57,7.34-2.96.37-5.98.27-8.97.29-10.32.07-20.65.2-30.97.11-5.29-.05-7.04-1.56-7.35-5.45-.36-4.62,1.4-7.05,6.03-8.32,6.28-1.72,7.36-2.78,7.43-9.29.18-15.82.18-31.64.14-47.46-.01-4.77-.59-5.14-5.2-4.92-1.49.07-3,.07-4.47-.11-2.44-.31-4.64-1.3-5.23-3.93-.6-2.66-.55-5.45,1.85-7.33,1.54-1.21,3.36-2.11,5.15-2.96,7.49-3.58,15.01-7.08,22.52-10.61.9-.42,1.78-.92,2.71-1.28,4.52-1.75,7.96.02,8.99,4.79.42,1.93.43,3.97.44,5.96.04,11.16.02,22.32.02,33.47.01,0,.02,0,.04,0Z"/>
  </g>
</svg>