<?xml version="1.0" encoding="UTF-8"?>
<svg id="Layer_2" xmlns="http://www.w3.org/2000/svg" viewBox="0 0 71.3 102.32">
  <g id="Layer_1-2" data-name="Layer_1">
    <path id="_x32_" d="M35.94,79.93c9.64.64,17.93.75,24.7-6.26,1.45-1.5,5.02-1.89,7.32-1.39,2.92.63,3.55,3.65,3.28,6.51-.5,5.29-.89,10.61-1.64,15.87-.73,5.16-3.11,7.28-8.31,7.5-4.99.22-9.99.14-14.99.14-12.16.01-24.32.03-36.48-.01-8.67-.03-12.45-6.77-7.87-14.24,1.18-1.93,2.97-3.58,4.75-5.02,10.97-8.9,20.34-19.15,27.24-31.56,3.28-5.9,5.61-12.17,5.78-18.92.08-3.19-.47-6.74-1.88-9.55-2.52-5.03-9.2-5.38-12.4-.75-1.74,2.51-2.74,5.67-3.51,8.68-1.6,6.28-3.72,8.2-9.48,7.76-6.88-.52-11.11-4.02-10.73-10,.25-4,1.19-8.42,3.24-11.77C14.86.85,39.03-4.87,55.42,4.56c9.22,5.31,14.25,18.63,11.63,30.72-2.45,11.29-8.85,20.33-16.36,28.72-4.62,5.15-9.39,10.16-14.74,15.92Z"/>
  </g>
</svg>