<?xml version="1.0" encoding="UTF-8"?>
<svg id="Layer_2" xmlns="http://www.w3.org/2000/svg" viewBox="0 0 71.37 102.9">
  <g id="Layer_1-2" data-name="Layer_1">
    <path id="_x35_" d="M24.33,36.43c7.25,0,13.57-.16,19.87.03,16.06.47,25.33,9.05,26.92,25.04,2.22,22.39-10.29,37.34-32.53,40.72-9.66,1.47-19.32.76-28.29-3.74C2.75,94.69-.67,88.56.11,80.66c.73-7.45,6.33-12.03,13.75-11.23,4.81.51,7.79,2.88,8.62,7.63.72,4.17,1.59,7.99,6.49,8.88,5.45.99,10.24-.02,13.76-4.79,4.12-5.59,4.14-16.77-.12-22.18-2.16-2.74-4.96-4.44-8.51-4.61-5.19-.25-10.34-.32-14.98,2.67-.94.61-2.17.84-3.3,1.1-6.46,1.45-9.72-1.28-9.13-7.83,1.22-13.42,2.48-26.83,3.85-40.24.7-6.84,3.16-8.83,10.08-8.98C34.6.76,48.58.38,62.55,0c4.04-.11,6.25,1.51,5.89,5.53-.41,4.6-1.47,9.18-2.7,13.65-.89,3.23-3.83,3.85-6.85,3.84-6.5-.02-12.99-.06-19.49-.06-3.16,0-6.33.17-9.49.07-2.66-.08-3.98.96-4.25,3.66-.34,3.41-.92,6.79-1.34,9.73Z"/>
  </g>
</svg>