<?xml version="1.0" encoding="UTF-8"?>
<svg id="Layer_2" xmlns="http://www.w3.org/2000/svg" viewBox="0 0 74.8 103.49">
  <g id="Layer_1-2" data-name="Layer_1">
    <path id="_x36_" d="M27.98,42.22c1.25-.55,2.48-.98,3.59-1.61,8.03-4.51,16.57-4.93,25.16-2.44,9.16,2.66,14.19,9.61,16.63,18.42,4.38,15.83-1.46,32.01-14.31,40.5-13.59,8.98-32.16,8.49-44.46-1.36-8.71-6.98-12.84-16.73-14.02-27.33-1.75-15.67.42-30.88,8.63-44.82C19.79,5.59,38.42-3.13,57.81,1.02c9.39,2.01,14.04,7.25,13.81,15.58-.16,5.61-6.9,12.33-12.48,12.27-3.2-.03-6.14-.98-6.74-4.64-1.6-9.66-12.8-8.95-17.85-3.02-4.28,5.02-7.46,14.56-6.55,21.01ZM50.12,69.47c-.68-2.76-1.17-6.39-2.48-9.71-2-5.07-5.91-7.24-10.92-6.84-4.48.36-8.03,3.42-9.36,8.32-1.51,5.54-1.62,11.12-.19,16.72,1.45,5.69,4.78,8.75,9.81,8.92,5.43.19,10.23-2.98,11.73-8.17.77-2.67.88-5.52,1.42-9.24Z"/>
  </g>
</svg>