<?xml version="1.0" encoding="UTF-8"?>
<svg id="Layer_2" xmlns="http://www.w3.org/2000/svg" viewBox="0 0 101.93 101.62">
  <g id="Layer_1-2" data-name="Layer_1">
    <path id="_x40_" d="M60.59,27.96c3.6-1.12,6.2-2.47,8.86-2.63,4.77-.28,7,2.84,6.37,7.66-1.16,8.74-2.31,17.5-3.14,26.27-.18,1.87,1.01,3.87,1.57,5.81,2.02-.96,4.61-1.41,5.96-2.96,5.89-6.74,7.21-14.97,5.74-23.45-2.28-13.11-9.51-19.57-22.68-21.55-10.62-1.6-20.57-.3-29.59,5.92-15.41,10.63-20.65,34.98-10.96,51.02,3.73,6.17,9.3,9.92,16.1,11.85,7.94,2.25,15.8,1.82,23.54-1.11,1.86-.7,3.77-1.36,5.72-1.67,2.53-.4,5.03.61,5.73,2.98.58,1.96.24,4.53-.58,6.45-.64,1.47-2.51,2.69-4.1,3.43-16.81,7.81-33.58,7.57-49.89-1.24C7.57,88.46,2.21,77.75.63,65.05-1.66,46.75,2.07,30.01,15.72,16.86,32.43.76,52.42-4.3,74.25,3.81c28.28,10.5,32.34,38.1,23.55,56.29-5.32,11.03-14.23,17.86-27.1,18.27-4.76.15-8.87-1.15-12.01-5.54-4.45,3.72-9.28,5.93-15.12,5.64-8.08-.4-14.07-4.56-16.27-12.35-3.44-12.17-1.6-23.44,6.65-33.3,7-8.37,16.9-9.96,26.64-4.86ZM58.15,42.61c-.65-1.27-1.22-4.15-2.55-4.56-1.82-.56-4.25.65-6.35,1.32-.7.22-1.27,1.05-1.75,1.72-3.42,4.73-5.07,10.08-4.78,15.87.25,4.8,2.76,7.94,5.89,8.1,2.84.15,5.73-2.49,6.76-6.93,1.12-4.83,1.77-9.77,2.77-15.52Z"/>
  </g>
</svg>