<?xml version="1.0" encoding="UTF-8"?>
<svg id="Layer_2" xmlns="http://www.w3.org/2000/svg" viewBox="0 0 65.76 68.85">
  <g id="Layer_1-2" data-name="Layer_1">
    <path id="Star" d="M33.56,48.44c-2.13,2.77-3.69,4.45-4.85,6.37-1.8,2.98-3.28,6.15-4.97,9.2-3.08,5.56-6.16,6.17-11.2,2.28-.39-.3-.78-.63-1.14-.97-6.21-5.9-5.92-8.55.14-12.99,3.77-2.76,6.72-6.66,10.93-10.96-6.36-2.64-11.48-4.86-16.67-6.89C0,32.22-1.42,28.72,1.4,23.16c2.43-4.78,5.93-5.83,10.69-3.14,4.27,2.41,8.52,4.87,13.7,7.83.71-3,1.55-4.83,1.49-6.63-.14-4.31-.63-8.61-1.11-12.9-.31-2.84.03-5.43,2.68-6.98,2.75-1.62,5.78-1.87,8.54-.13,2.52,1.59,2.96,4.27,2.69,7.07-.37,3.97-.92,7.94-1.03,11.92-.06,2.16.64,4.34,1.21,7.77,4.79-2.83,8.5-4.9,12.07-7.19,2.46-1.58,5.06-3.42,7.75-1.43,3.25,2.4,5.7,5.73,5.68,10.05-.02,2.74-2.31,3.78-4.54,4.72-4.44,1.87-8.85,3.78-13.25,5.75-1.02.46-1.9,1.22-3.67,2.38,3.44,3.23,6.48,6.18,9.63,9,1.23,1.1,2.78,1.83,4.08,2.87,2.83,2.27,3.3,4.01,1.14,6.77-1.92,2.45-4.22,4.74-6.73,6.57-3.24,2.36-5.8,1.75-8-1.68-1.88-2.93-3.25-6.18-5.07-9.15-1.53-2.5-3.39-4.81-5.8-8.16Z"/>
  </g>
</svg>