<?xml version="1.0" encoding="UTF-8"?>
<svg id="Layer_2" xmlns="http://www.w3.org/2000/svg" viewBox="0 0 77.84 105.11">
  <g id="Layer_1-2" data-name="Layer_1">
    <path id="b_lower" d="M30.02,38.46c.94-.6,1.75-1.08,2.52-1.6,16.31-11.07,37.94-3.46,43.35,15.48,3.32,11.61,2.45,23.14-3.03,33.96-5.71,11.27-15.29,17.62-27.76,18.5-8.91.63-17.96.21-26.89-.46-7.27-.55-10.5-4.53-10.84-11.87-.2-4.32-.05-8.66-.05-12.98,0-18.65.02-37.29-.03-55.94,0-1.8-.11-3.71-.72-5.37-.44-1.2-1.69-2.77-2.77-2.95C1.04,14.77-.18,13,.02,10.81c.18-1.93,1.53-3.78,2.52-5.57.27-.49,1.07-.83,1.69-.98C10.2,2.82,16.12,1.06,22.17.16c4.98-.74,7.06,1.11,7.79,6.14.43,2.92.06,5.96.06,8.94,0,7.6,0,15.21,0,23.23ZM29.59,71.74s.03,0,.04,0c0,4.65-.14,9.3.04,13.94.17,4.2,2.02,5.99,6.12,6.38,6.18.59,10.95-1.77,14.48-6.87,3.09-4.47,3.66-9.65,3.75-14.74.1-5.94-.24-12-3.69-17.26-2.87-4.37-7.79-6.1-13.11-4.74-4.77,1.22-7.41,4.68-7.6,10.34-.15,4.31-.03,8.63-.03,12.95Z"/>
  </g>
</svg>