<?xml version="1.0" encoding="UTF-8"?>
<svg id="Layer_2" xmlns="http://www.w3.org/2000/svg" viewBox="0 0 64.3 75.24">
  <g id="Layer_1-2" data-name="Layer_1">
    <path id="c_lower" d="M38.4,0c5.29,1.24,10.8,1.92,15.83,3.86,6.74,2.6,9.87,8.75,8.98,15.65-.55,4.27-2.63,7.53-6.81,9.07-4.62,1.7-8.18.15-10.16-4.37-.47-1.06-.71-2.23-1.2-3.27-3.07-6.54-10.49-7.87-15.73-2.85-7.21,6.91-6.73,26.67.81,33.22,5.3,4.6,13.98,5.46,20.14,1.97,1.45-.82,2.81-1.8,4.3-2.54,2.35-1.17,4.79-1.64,7.03.2,2.26,1.86,3.44,4.59,2.27,7.12-1.56,3.37-3.42,7.11-6.23,9.3-12.06,9.38-25.59,9.93-39.13,4.02C5.65,65.81.48,54.86.04,41.29c-.34-10.3,1.6-19.84,8.42-27.99C16.24,3.99,26.47.64,38.4,0Z"/>
  </g>
</svg>