<?xml version="1.0" encoding="UTF-8"?>
<svg id="Layer_2" xmlns="http://www.w3.org/2000/svg" viewBox="0 0 80.58 106.32">
  <g id="Layer_1-2" data-name="Layer_1">
    <path id="d_lower" d="M48.27,35.93c0-5.38,0-10.03,0-14.68,0-2.81-1.07-4.8-3.99-5.55-2.99-.77-4.55-2.86-4.41-5.85.13-2.96,1.91-4.99,4.77-5.74,5.31-1.39,10.6-2.93,16-3.83,7.29-1.22,10.28,1.46,10.31,8.89.06,18.17-.01,36.33-.02,54.5,0,6-.07,12,.08,18,.11,4.42.63,8.29,6.03,10.18,4.74,1.65,4.66,9.35.17,11.88-1.66.94-3.77,1.38-5.7,1.47-4.66.23-9.33.19-13.99.14-6.36-.08-7.32-.86-9.15-7.29-1.12.83-2.14,1.55-3.11,2.33-12.36,9.91-30.26,7.14-38.98-6.05-10.37-15.66-7.51-41.03,6.07-53.99,8.93-8.52,22.05-10.67,33.37-5.49.59.27,1.19.5,2.56,1.09ZM48.27,67.95s-.02,0-.04,0c0-4.15.16-8.31-.04-12.45-.27-5.65-3.47-8.7-9.15-9.16-4.73-.38-8.4,1.53-11.2,5.2-5.39,7.06-5.3,25.64.12,32.79.4.53.78,1.1,1.28,1.51,4.06,3.36,8.52,4.15,13.47,2.12,4.59-1.88,5.76-5.52,5.57-10.06-.14-3.31-.03-6.64-.03-9.96Z"/>
  </g>
</svg>