<?xml version="1.0" encoding="UTF-8"?>
<svg id="Layer_2" xmlns="http://www.w3.org/2000/svg" viewBox="0 0 54.6 38.65">
  <g id="Layer_1-2" data-name="Layer_1">
    <path id="Double_Quote_Left" d="M54.15,37c-3.9,2.17-7.49,2.2-10.14-.35-7.06-6.79-12.47-14.61-13.06-24.92-.25-4.39,1.07-7.94,5.02-10.05,4.25-2.27,8.66-2.28,12.85.19,6.33,3.73,7.72,13.17,2.85,18.68-3.88,4.4-3.87,4.48-.95,9.8,1.16,2.12,2.22,4.29,3.43,6.65ZM19.07,29.16c-1.77-3.06-2.19-5.68,1.11-8.21,5.04-3.87,3.86-13.36.12-17.19C17,.39,11.06-.88,6.43.94,1.98,2.69-.16,5.95,0,11.59c.32,10.53,6.01,18.44,13.29,25.28,2.51,2.36,6.02,2.38,9.97.04-1.53-2.84-2.8-5.33-4.19-7.75Z"/>
  </g>
</svg>