<?xml version="1.0" encoding="UTF-8"?>
<svg id="Layer_2" xmlns="http://www.w3.org/2000/svg" viewBox="0 0 65.18 74.44">
  <g id="Layer_1-2" data-name="Layer_1">
    <path id="e_lower" d="M25.43,39.42c-.79,6.06.57,10.9,5.3,14.12,5.68,3.86,11.87,3.99,18.07,1.18,1.65-.75,3.15-1.86,4.65-2.9,2.43-1.69,4.95-2.31,7.27-.1,2.23,2.12,3.25,5.01,1.5,7.7-1.97,3.01-4.25,6.07-7.07,8.22-11.01,8.37-28.8,9.07-40.63,1.85C6.09,64.34,1.93,56.48.62,46.91c-1.96-14.27.47-27.2,11.41-37.56C22.07-.17,39.19-2.82,51.67,3.27c6.74,3.29,10.84,8.83,12.48,15.97.88,3.84,1.09,7.93,1.01,11.89-.12,5.9-2.49,7.96-8.42,8-9.33.06-18.66.04-27.99.07-.97,0-1.94.13-3.32.23ZM25.15,27.16h18.67c.57-4.9.73-9.42-3.47-12.46-2.93-2.12-6.37-1.91-9.45-.17-4.83,2.73-5.45,7.46-5.75,12.63Z"/>
  </g>
</svg>