<?xml version="1.0" encoding="UTF-8"?>
<svg id="Layer_2" xmlns="http://www.w3.org/2000/svg" viewBox="0 0 82.87 104.11">
  <g id="Layer_1-2" data-name="Layer_1">
    <path id="E_upper" d="M35.48,14.62v30.17c5.27,0,10.35.2,15.41-.08,2.86-.16,5.26-2.89,5.95-5.14,1.31-4.28,2.6-6.13,6.32-4.18,1.66.87,3.62,3.03,3.7,4.69.36,7.47.23,14.98-.01,22.47-.09,2.87-1.83,4.96-4.82,5.67-3.45.82-3.97-.36-4.82-3.91-.88-3.66-5.07-4.87-8.44-4.88-4.28,0-8.55,0-13.16,0v29.73c8.51,0,16.79.08,25.07-.05,2.95-.05,6.95-1.94,7.99-4.61,1.14-2.94,2.07-5.97,3.03-8.98,1.5-4.68,1.19-5.92,5.53-5.39,4.04.49,5.75,2.16,5.66,6.77-.13,6.82-.52,13.66-1.22,20.44-.5,4.85-2.81,6.73-7.66,6.74-21.83.05-43.67.02-65.5-.07-1.77,0-3.82-.1-5.26-.83-1.55-.79-3.02-1.21-2.95-5.61.03-1.53,1.64-2.15,3.01-2.5,5.71-1.45,6.48-7.46,6.46-12.3-.06-20.66-.09-41.31-.06-61.97,0-4.29-.62-9.8-5.55-11.34C.56,8.35-.05,7.54,0,4.54.06,1.13,3.12.1,6.31.1c15.83-.01,31.66-.07,47.5-.09,5.5,0,11-.06,16.5.09,4.18.12,6.27,1.87,6.64,5.92.53,5.8.83,11.63.89,17.45.05,4.33-1.97,6.67-5.42,7.22-4.21.68-4.42-.47-5.72-5.11-3.57-12.81-7.42-10.87-17.89-10.97-4.29-.04-8.59,0-13.34,0Z"/>
  </g>
</svg>