<?xml version="1.0" encoding="UTF-8"?>
<svg id="Layer_2" xmlns="http://www.w3.org/2000/svg" viewBox="0 0 77.92 51.73">
  <g id="Layer_1-2" data-name="Layer_1">
    <path id="Equals" d="M77.88,43.32c-.06,7.49-1.9,8.98-9.45,7.89-1.97-.29-3.98-.34-5.98-.34-15.83-.03-31.66-.05-47.49.01-2.48.01-4.96.43-7.43.74-4.23.53-6.27-.83-7.06-5.05-.3-1.62-.34-3.31-.29-4.97.2-6.56,2.23-8.19,8.72-7.14.16.03.33.1.49.1,19.48-.02,39,.63,58.44-.4,8.32-.44,10.44,2.31,10.05,9.16ZM70.57.04c-6.79.46-13.6.97-20.39.92C35.55.84,20.92.34,6.29.15c-1.5-.02-3.34.62-4.45,1.6C-.31,3.66-.59,11.51,1.08,14.7c1.94,3.7,5.17,2.88,8.33,2.29.49-.09.99-.15,1.49-.14,20.14.19,40.27.35,60.41.61,3.65.05,5.64-1.22,6.34-4.87.25-1.3.22-2.65.25-3.06,0-7.69-1.96-9.86-7.32-9.5Z"/>
  </g>
</svg>