<?xml version="1.0" encoding="UTF-8"?>
<svg id="Layer_2" xmlns="http://www.w3.org/2000/svg" viewBox="0 0 88.77 105.57">
  <g id="Layer_1-2" data-name="Layer_1">
    <path id="G_upper" d="M81.79,51.38c3.36-.02,6.03,1.22,6.79,4.65.74,3.33-.8,3.96-3.93,5.24-3.65,1.5-4.8,6.04-4.63,9.86.28,6.32-.03,12.67.29,18.99.19,3.8-1.08,6.51-4.3,8.28-2.91,1.6-5.77,3.56-8.92,4.4-18.42,4.93-35.97,4.04-51.37-8.83-6.33-5.29-10.49-12.08-12.78-19.9-4.03-13.78-3.99-27.67.46-41.34C10.96,9.53,30.61-2.61,56,.47c5.86.71,11.6,2.77,17.25,4.66,4.59,1.53,6.87,5.25,6.73,10.05-.14,4.82-.6,9.63-1.17,14.42-.39,3.21-2.77,4.87-5.73,5.48-3.06.64-3.16-.93-4.36-3.64-.8-1.82-1.43-3.73-1.95-5.65-1.86-6.84-7.64-11.8-15.14-12.51-7.57-.72-13.14,2.59-16.85,9.24-3.9,7-5.65,14.57-6.04,22.47-.54,10.99-.99,22.02,3.13,32.56,3.74,9.58,11.18,14.1,20.62,12.98,3.18-.38,4.82-1.44,4.6-4.96-.31-4.98-.36-9.99-.28-14.99.05-3.25-1.07-7.42-4.22-8.51-3.26-1.13-5.59-1.07-5.14-4.94.36-3.07,2.87-5.17,7.36-5.46,4.81-.31,22.81-.28,26.98-.3Z"/>
  </g>
</svg>