<?xml version="1.0" encoding="UTF-8"?>
<svg id="Layer_2" xmlns="http://www.w3.org/2000/svg" viewBox="0 0 82.79 104.57">
  <g id="Layer_1-2" data-name="Layer_1">
    <path id="h_lower" d="M31.94,38.29c1.24-.99,2.32-1.94,3.49-2.78,8.09-5.84,16.87-6.75,26.02-3.15,8.38,3.3,12.2,10.16,12.56,18.75.41,9.97.15,19.97.21,29.96.01,2,.05,4,.2,5.98.19,2.49,1.06,4.47,3.83,5.17,3.46.87,4.84,3.33,4.48,6.76-.33,3.23-2.21,5.17-6.19,5.3-8.48.27-16.99.34-25.46-.02-1.89-.08-4.35-1.89-5.35-3.61-1.37-2.33-.66-5.07,1.27-7.37,1.32-1.56,3.11-3.46,3.16-5.25.33-10.97.31-21.95.23-32.93-.03-3.88-2.16-6.63-5.89-7.81-3.77-1.2-7.53-.66-10.07,2.39-1.59,1.9-2.85,4.69-2.94,7.12-.33,9.81-.17,19.65-.12,29.47.01,2.77.66,5.22,3.66,6.45,2.95,1.21,3.6,3.76,3.11,6.62-.48,2.78-2.31,4.49-5.05,4.8-2.96.33-5.97.31-8.96.33-5.66.04-11.33.21-16.98-.08-5.45-.28-7.9-3-6.97-7.45.3-1.44,1.45-3.49,2.62-3.82,5.04-1.44,5.5-5.14,5.49-9.37-.02-18.65,0-37.3,0-55.95,0-2,0-4,0-6,0-3.14-.94-5.5-4.47-6.17C1.07,15.11.23,12.94.09,10.44c-.14-2.6.91-4.87,3.4-5.51C10.56,3.09,17.67,1.35,24.86.11c3.64-.63,5.9,1.44,6.55,5.27.5,2.92.48,5.94.51,8.92.06,7.81.02,15.62.02,23.99Z"/>
  </g>
</svg>