<?xml version="1.0" encoding="UTF-8"?>
<svg id="Layer_2" xmlns="http://www.w3.org/2000/svg" viewBox="0 0 100.52 104.03">
  <g id="Layer_1-2" data-name="Layer_1">
    <path id="H_upper" d="M35.26,43.59h29.71c0-9.1.46-17.92-.2-26.68-.34-4.44-2.41-5.7-4.27-6.89-1.62-1.04-3.79-.92-4.51-2.82-1.36-3.59.94-6.94,4.77-7.01,11.49-.23,22.99-.17,34.48-.1,2.78.02,5.41,1.6,5.28,4.44-.15,3.03-.58,3.23-3.33,4.57-.74.36-1.54.61-2.34.86-4.68,1.44-5.64,4.52-5.68,9.39-.1,11.5-.09,22.99-.09,34.49,0,10.16,0,20.33.06,30.49.04,5.86.22,8.04,5.55,9.81,3.95,1.31,5.65,1.58,5.14,4.82-.45,2.85-2.87,4.93-6.58,4.97-10.83.12-21.66.13-32.49-.04-4.28-.07-6.28-1.77-6.68-4.66-.47-3.33.87-3.37,5.11-4.84,2.74-.95,5.19-4.28,5.25-7.3.2-9.76.08-19.52.08-29.54h-28.8c-.17,1.27-.43,2.38-.44,3.49-.03,8.16.07,16.33-.03,24.49-.04,3.67,1.24,8.14,5,8.9,3.18.64,4.41.68,4.29,3.76-.13,3.21-2.05,4.76-4.98,5.3-1.3.24-2.63.48-3.94.48-9.33.04-18.66.03-27.99.03-.33,0-.67,0-1-.02-3.06-.13-5.63-1.03-6.37-4.43-.63-2.92.96-4.17,4.28-4.98,4.91-1.2,5.62-6.46,5.61-10.61-.04-21.16-.08-42.32.03-63.48.02-4.55-1.33-9.76-5.98-11.07C1,8.5.14,8.17,0,5.02S2.68.09,6.44.05C17.44-.04,28.43.02,39.43.01c2.99,0,5.92.97,5.88,4.22s-.37,4.06-3.9,5.13c-5.24,1.6-6.37,7.02-6.21,11.9.23,7.29.06,14.59.06,22.33Z"/>
  </g>
</svg>