<?xml version="1.0" encoding="UTF-8"?>
<svg id="Layer_2" xmlns="http://www.w3.org/2000/svg" viewBox="0 0 76.16 100.85">
  <g id="Layer_1-2" data-name="Layer_1">
    <path id="Hash" d="M62.33,43.76c-.76,3.78-1.47,7.29-2.35,11.65,3.54,0,6.48-.05,9.4.01,4.81.1,6.2,1.57,6.01,6.38-.06,1.49-.32,2.98-.59,4.45-.54,2.86-2.35,4.32-5.23,4.37-2.66.05-5.34.18-7.99-.04-3.25-.27-4.78.96-5.46,4.21-1.36,6.51-2.96,12.98-4.73,19.39-1.74,6.27-9.47,8.67-14.82,4.83-2.14-1.53-2.09-3.56-1.59-5.8,1.66-7.29,3.28-14.59,4.91-21.85-5.41-3.65-9.76-2.3-11.26,3.52-1.16,4.51-1.99,9.1-3.16,13.61-1.57,6.03-9.04,8.82-13.75,4.89-1.33-1.11-2.09-3.85-1.87-5.69.68-5.57,1.97-11.07,3.15-17.29-2.21-.21-4.41-.44-6.62-.63C1.49,69.32,0,67.84,0,63.33c-.01-5.57,2.17-8.52,6.65-8.84,1.99-.14,4-.15,5.99-.06,3.25.16,4.96-1.35,5.44-4.51.29-1.94.74-3.87,1.26-6.55-3.67-.45-7.04-.84-10.41-1.27-5.09-.65-6.73-2.53-6.55-7.44.21-5.5,2.28-7.9,7.37-8.06,3.32-.1,6.66.14,9.98.38,2.78.2,4.4-.94,5.06-3.65,1.38-5.65,2.9-11.27,4.23-16.93,1.35-5.72,9.28-8.55,13.66-4.5,1.15,1.06,1.6,3.63,1.32,5.33-.84,5.08-2.22,10.06-3.35,15.09-.36,1.58-.61,3.18-.89,4.67,7.58,3.05,10.12,1.97,12.25-5.01.68-2.22,1.45-4.48,1.68-6.77.38-3.8,2.51-5.18,5.99-5.19.5,0,1-.03,1.5-.03,6.5.04,8.11,1.83,7.06,8.19-.51,3.09-1.37,6.12-2.19,9.71,1.97.1,3.56.13,5.14.26,3.15.26,4.93,2.02,4.94,5.16.04,6.17-1.42,11.41-9.16,10.25-1.41-.21-2.91.11-4.66.2ZM32.87,54.08c2.37.27,3.96.58,5.56.61,4.69.1,6.95-2.77,6.65-8.31-.14-2.58-2.3-3.8-6.58-3.22-1.18.16-2.71,1.31-3.18,2.39-1.03,2.39-1.5,5.03-2.45,8.52Z"/>
  </g>
</svg>