<?xml version="1.0" encoding="UTF-8"?>
<svg id="Layer_2" xmlns="http://www.w3.org/2000/svg" viewBox="0 0 52 42.21">
  <g id="Layer_1-2" data-name="Layer_1">
    <path id="Hat" d="M26.54,0c1.39,1.64,2.24,2.43,2.85,3.38,7.13,11.04,14.23,22.11,21.34,33.17.36.56.9,1.09,1.01,1.7.18,1.03.49,2.7.01,3.03-.89.6-2.49.89-3.46.48-2.29-.95-4.39-2.36-6.54-3.63-5.3-3.13-10.58-6.28-16.15-9.59-6.37,3.85-12.75,7.71-19.14,11.57-1.14.69-2.25,1.47-3.48,1.93-.66.25-1.9.21-2.25-.22-.54-.65-.84-1.8-.69-2.65.16-.91.92-1.74,1.47-2.57C8.67,25.79,15.82,14.95,23.02,4.15c.88-1.32,2.05-2.44,3.52-4.15Z"/>
  </g>
</svg>