<?xml version="1.0" encoding="UTF-8"?>
<svg id="Layer_2" xmlns="http://www.w3.org/2000/svg" viewBox="0 0 42.21 104.99">
  <g id="Layer_1-2" data-name="Layer_1">
    <path id="i_lower" d="M33.27,62.38c0,6.99-.1,13.98.03,20.96.08,4.32.06,8.7,5.96,9.85,2.68.52,3.24,3.54,2.81,5.75-.36,1.87-1.82,3.77-3.3,5.09-.95.84-2.83.87-4.29.89-8.82.07-17.64.14-26.45-.06-2.03-.05-4.45-.61-5.97-1.84-3.37-2.72-2.49-8.19,1.67-9.73,4.04-1.5,5.16-4.11,5.17-7.99.02-10.31.23-20.63.29-30.94.02-3.78-.2-7.34-5.26-8.1-2.4-.36-2.5-2.73-2.55-4.82-.06-2.59.81-5.06,3.31-5.54,7.79-1.51,15.63-2.89,23.52-3.64,3.56-.34,5.06,2.9,5.13,6.17.12,5.65-.04,11.31-.07,16.96-.01,2.33,0,4.66,0,6.99ZM7.51,14.07c-.12,6.89,5.56,12.13,13.06,12.06,8.44-.08,15.79-6.71,15.81-14.26C36.4,4.92,30.92.01,23.14,0,14.39-.02,7.65,6.06,7.51,14.07Z"/>
  </g>
</svg>