<?xml version="1.0" encoding="UTF-8"?>
<svg id="Layer_2" xmlns="http://www.w3.org/2000/svg" viewBox="0 0 46.8 102.47">
  <g id="Layer_1-2" data-name="Layer_1">
    <path id="I_upper" d="M23.42.04c5.66,0,11.33-.11,16.99.04,3.97.1,6.03,1.66,6.07,4.52.04,3.16-1.75,3.05-4.82,4.06-5.85,1.92-5.98,4.18-5.99,10.6-.02,21.15,0,42.3.03,63.45,0,5.23.14,7.33,5.12,9.02,1.09.37,2.19.82,3.19,1.39,2.32,1.32,3.33,1.62,2.52,3.94-.63,1.81-2.23,3.51-3.83,4.68-1.06.77-2.87.69-4.34.7-10.16.04-20.32.06-30.48-.02-4.73-.04-7.13-1.61-7.74-4.74-.61-3.12.85-3.77,5.11-5.51,4.06-1.66,4.03-6.84,4.03-10.2,0-18.99,0-37.97-.02-56.96,0-2.33-.06-4.66-.06-6.99,0-3.51-1.26-8.08-4.87-9.21C1.31,7.85.18,7.7.1,4.48S3.22,0,6.43.01c5.66.03,11.32,0,16.99,0v.02Z"/>
  </g>
</svg>