<?xml version="1.0" encoding="UTF-8"?>
<svg id="Layer_2" xmlns="http://www.w3.org/2000/svg" viewBox="0 0 54.45 135.37">
  <g id="Layer_1-2" data-name="Layer_1">
    <path id="j_lower" d="M50.95,68.01c-.57,11.04-.75,22.05-1.82,32.97-.98,9.97-4.53,19.1-12.17,26.12-6.74,6.19-14.72,8.92-23.84,8.13-6.52-.56-11.1-4.09-12.69-9.53-1.49-5.14.92-10.51,5.57-12.38,4.35-1.76,8.36-.12,11.13,4.83,1.04,1.86,2.13,3.9,4.38,3.14,1.64-.56,3.49-2.19,4.06-3.77,1.05-2.91,1.68-6.14,1.7-9.24.15-17.83.11-35.65.04-53.48-.02-3.9-.39-7.44-5.42-8.77-3.53-.94-3.72-6.77-.58-9.07.91-.67,2.06-1.17,3.17-1.39,5.71-1.09,11.41-2.28,17.17-3.03,7.08-.92,9.17.98,9.24,8.05.1,9.16.02,18.32.02,27.43ZM47.27,1.02c-6.45-2.6-15.24-.02-19.23,5.66-3.81,5.42-2.88,13.51,2.26,17.01,4.95,3.38,10.38,3.36,15.63.74,5.28-2.63,8.47-6.86,8.52-13.03-.04-4.86-2.57-8.52-7.18-10.38Z"/>
  </g>
</svg>