<?xml version="1.0" encoding="UTF-8"?>
<svg id="Layer_2" xmlns="http://www.w3.org/2000/svg" viewBox="0 0 59.15 104.56">
  <g id="Layer_1-2" data-name="Layer_1">
    <path id="J_upper" d="M24.08,49.89c0-10.5-.11-21,.06-31.49.06-3.82-.94-8.42-4.92-9.47-3.03-.8-4.58-.71-4.62-4.12-.04-3.04,2.42-4.7,6.53-4.74C31.78-.04,42.44,0,53.11.05c2.84.01,5.95.75,6.04,4.09.09,3.53-.91,3.26-3.72,4.12-5.27,1.6-6.01,7.57-6.01,12.19.02,17.16.14,34.33-.12,51.49-.08,5.08-.63,10.37-2.15,15.18-2.62,8.3-8.57,13.64-17.14,15.94-7.44,2-14.81,2.18-22.1-.52C2.41,100.5-.19,96.63.01,91.13c.19-5.23,4.05-8.38,9.1-6.89,2.44.72,4.64,2.43,6.77,3.94,3.51,2.5,6.99,1.4,7.86-2.82.36-1.77.27-3.65.27-5.48.02-10,.01-20,.01-29.99.01,0,.03,0,.04,0Z"/>
  </g>
</svg>