<?xml version="1.0" encoding="UTF-8"?>
<svg id="Layer_2" xmlns="http://www.w3.org/2000/svg" viewBox="0 0 93.19 102.47">
  <g id="Layer_1-2" data-name="Layer_1">
    <path id="K_upper" d="M38.95,59.12c-4.15,3.61-6.61,7.35-5.99,12.78.4,3.45.04,6.99.12,10.49.12,5.17.65,7.57,5.56,9.4,1.87.7,4.05-.03,4.95,1.61,2,3.65-.41,7.98-4.6,8.69-2.6.44-5.31.33-7.97.34-8.16.02-16.33.15-24.49-.11-5.35-.17-8.01-4.41-5.68-8.86.75-1.43,2.54-.57,4.11-1.25,2.82-1.23,4.03-5.05,4.03-8.14-.04-22.16-.01-44.32.08-66.48.02-3.44-1.17-7.75-4.52-8.86C1.49,7.72.3,7.62.4,4.31S3.46.03,6.35.02c9.66-.04,19.32,0,28.98.09,2.78.03,5.23,1.3,5.33,4.29s-1.46,3.22-3.23,3.97c-3.52,1.49-4.5,5.88-4.44,9.44.15,8.91.05,17.83.58,26.92,8.76-10.06,16.79-20.44,24.5-31.89,2.11-2.75-3.74-4.44-5.49-4.71-1.4-.21-2.99-1.07-3.05-3.76S51.67.15,54.26.13c9.32-.08,18.65-.01,27.97.08,2.7.03,4.88,1.48,4.64,4.25-.23,2.61-.81,3.04-3.26,3.49-5.96,1.09-8.83,7.52-11.98,11.82-4.82,6.57-9.67,13.13-14.66,19.91,5.33,9.95,10.66,19.89,15.97,29.84,2.51,4.7,5.07,9.37,7.42,14.15,1.55,3.17,3.58,7.31,7.2,8.25,4.82,1.24,6.12,1.37,5.5,5.41-.48,3.15-2.67,4.91-6.98,5.03-5.99.17-11.99.09-17.99.04-4.92-.04-7.93-2.91-10.07-7.02-4.72-9.08-10.25-19.67-16.63-31.88-.74-1.42-1.55-2.8-2.42-4.38Z"/>
  </g>
</svg>