<?xml version="1.0" encoding="UTF-8"?>
<svg id="Layer_2" xmlns="http://www.w3.org/2000/svg" viewBox="0 0 76.05 102.42">
  <g id="Layer_1-2" data-name="Layer_1">
    <path id="L_upper" d="M36.5,90.56c6.58,0,12.86.09,19.13-.04,3.27-.07,6.48-4.66,7.14-7.31,1.08-4.35,1.76-8.81,2.83-13.16.87-3.54.91-4.91,4.5-4.85,3.49.06,5.98,1.85,5.96,5.35-.05,10.14-.4,18.29-1.02,24.4-.56,5.5-3.34,7.42-8.82,7.44-19.31.06-38.63.02-57.94.02-.83,0-1.68.02-2.49-.14-2.79-.55-5.07-1.86-5.64-4.89-.61-3.23.82-3.95,3.77-4.79,5.5-1.58,6.38-7.15,6.33-12.22-.22-20.48-.2-40.96-.01-61.44.04-4.53-1.34-9.29-5.81-10.49C1.59,7.67.18,7.77.17,4.64.15,1.23,3.17.01,6.32,0,17.64,0,28.97,0,40.29.06c2.77.01,5.36,1.14,5.4,4.15s-.83,3.37-3.8,4.13c-4.58,1.18-5.8,6.06-5.77,10.5.15,21.48.06,42.96.08,64.44,0,1.62.18,5.24.3,7.29Z"/>
  </g>
</svg>