<?xml version="1.0" encoding="UTF-8"?>
<svg id="Layer_2" xmlns="http://www.w3.org/2000/svg" viewBox="0 0 34.94 102.07">
  <g id="Layer_1-2" data-name="Layer_1">
    <path id="Left_Curly_Bracket" d="M7.83,78.3c0-5.16-.09-10.32.03-15.48.08-3.48-.99-5.94-4.27-7.71-4.8-2.59-4.82-7.52.15-9.93,3.52-1.71,4.28-3.88,4.21-7.43-.16-9.15-.01-18.31.14-27.46C8.23,2.24,10.21.26,18.16.07c3.82-.09,7.66-.13,11.48.09,3.59.21,5,1.83,5.28,5.36.28,3.58-1.3,5.83-4.64,6.6-4.97,1.15-5.03,1.16-5.09,6.07-.08,6.49-.12,12.98-.07,19.47.02,3.43-.61,6.5-2.82,9.32-.77.98-1.02,3.39-.35,4.28,2.71,3.63,2.87,7.74,2.93,11.9.1,6.66,0,13.31.1,19.97.08,5,.32,5.37,5.06,6.13,3.56.57,4.65,2.79,4.78,5.93.13,3.12-.76,6.08-4.19,6.36-6.1.51-12.27.69-18.38.37-3.63-.19-4.62-3.42-4.67-6.65-.08-5.66-.02-11.32-.02-16.97.1,0,.19,0,.29,0Z"/>
  </g>
</svg>