<?xml version="1.0" encoding="UTF-8"?>
<svg id="Layer_2" xmlns="http://www.w3.org/2000/svg" viewBox="0 0 34.03 105.59">
  <g id="Layer_1-2" data-name="Layer_1">
    <path id="Left_Bracket" d="M0,54.66C.14,33.51,7.67,16.67,22.44,3.14,24.25,1.49,27,.15,29.4.01c4.28-.24,5.8,2.9,3.71,6.73-1.75,3.21-3.82,6.26-5.39,9.56-7.24,15.22-8.2,31.34-6.93,47.84.9,11.78,4.7,22.4,11.37,32.07,1.47,2.13,2.86,4.21.84,6.77-1.96,2.48-4.89,3.43-8.04,1.8-2.6-1.35-5.11-3.19-7.1-5.32C5.87,86.56.04,71.19,0,54.66Z"/>
  </g>
</svg>