<?xml version="1.0" encoding="UTF-8"?>
<svg id="Layer_2" xmlns="http://www.w3.org/2000/svg" viewBox="0 0 118.47 71.42">
  <g id="Layer_1-2" data-name="Layer_1">
    <path id="m_lower" d="M29.5,9.23c12.74-12.95,28.89-11.75,37.79.36,3.89-2.49,7.52-5.54,11.68-7.33,16.25-7,31.76,2.98,32.19,20.59.23,9.49.04,19,.04,28.5,0,3.93.3,7.31,4.8,9.36,3.77,1.72,3.01,8.05-.85,9.84-1.17.54-2.57.79-3.87.8-7.5.08-15,0-22.5.07-2.39.02-4.37-.6-5.22-2.98-.88-2.46-1.07-5.21,1.2-6.9,3.73-2.78,4.16-6.55,4.14-10.65-.02-7.5.03-15-.02-22.5-.05-7.88-3.48-12.17-9.53-12.04-5.92.13-9.25,4.27-9.32,11.84-.08,8.17.05,16.33-.05,24.5-.04,3.59.71,6.56,4.26,8.28,2.46,1.19,3.1,3.32,2.45,5.89-.65,2.53-2.28,4.28-4.86,4.34-8.33.17-16.66.22-24.98-.01-1.23-.03-3.28-1.75-3.43-2.88-.27-2.11-.17-5.51,1.11-6.36,4.98-3.31,4.76-8.04,4.74-12.89-.02-7.33.13-14.67-.15-21.99-.24-6.28-2.94-9.4-8.14-10.34-5.31-.96-9.6,1.67-11.02,6.89-.43,1.59-.69,3.27-.71,4.91-.07,8.17-.03,16.33-.05,24.5,0,3.13.51,5.98,3.62,7.64,2.64,1.41,3.1,3.8,2.52,6.43-.63,2.86-2.83,4.07-5.51,4.22-3.32.19-6.66.1-10,.11-4.5,0-9-.09-13.5,0-3.06.06-5.18-1.14-6.11-4.07-.83-2.62.48-5.86,3.4-6.96,3.45-1.29,4.42-3.63,4.42-6.93,0-10.66,0-21.33.11-31.99.03-3.19-.63-5.61-4.3-6.12C1.24,14.97.33,13,.1,10.71c-.26-2.57.8-5.01,3.23-5.62C10.07,3.38,16.87,1.77,23.75.87c3.53-.46,4.82,1.95,5.75,8.36Z"/>
  </g>
</svg>