<?xml version="1.0" encoding="UTF-8"?>
<svg id="Layer_2" xmlns="http://www.w3.org/2000/svg" viewBox="0 0 117.89 102.53">
  <g id="Layer_1-2" data-name="Layer_1">
    <path id="M_upper" d="M26.89,35.6c-1.02,16.11-2,32.23-3.07,48.34-.22,3.31.88,7.23,4.21,8.29,4.37,1.4,5.64,1.36,5.28,4.68-.32,2.96-2.67,5.16-6.83,5.36-6.81.32-13.65.3-20.48.17-2.82-.05-5.24-1.36-5.85-4.48-.62-3.18.68-4.05,3.55-4.95,4.93-1.55,5.43-7.21,5.65-11.28,1.13-21.12,2.19-42.25,3.38-63.36.21-3.64-.93-8.19-4.45-9.41-3.11-1.08-4.1-1.27-4.17-4.46C4.04,1.01,7.3.05,10.39.04,18.56,0,26.72.02,34.88,0c3.78,0,5.61,2.21,6.76,5.52,4.71,13.63,10.1,29.01,16.11,46.19.2.57.46,1.13,1.1,2.68,3.21-8.23,6.07-15.57,8.93-22.9,3.95-10.12,7.28-18.45,9.76-25.13C79.13,2.08,81.77-.11,86.48,0c7.66.18,15.33-.04,22.98.17,4.16.11,6.4,2.06,5.79,5.16-.36,1.81-1.88,2.11-3.49,2.83-3.92,1.74-4.84,6.54-4.77,10.38.35,20.82.65,41.64.84,62.46.04,4.71.72,10.53,6.31,11.71,2.72.57,3.84.96,3.74,3.79-.1,2.9-1.76,4.57-4.3,5.52-.76.29-1.63.44-2.44.44-10.33.02-20.66.12-30.98-.06-4.33-.08-6.79-2.25-7.28-5.52-.49-3.33,1.33-4.06,5.64-4.95,3.96-.82,5.23-5.05,5.15-8.66-.32-15.31-.64-30.62-1.64-46.17-.54,1.06-1.17,2.09-1.6,3.2-6.64,17.06-13.24,34.13-19.89,51.18-.78,2.01-1.5,4.2-2.86,5.78-1.27,1.49-3.24,2.91-5.11,3.25-2.61.48-4.23-1.63-5.04-3.98-2.64-7.71-5.26-15.43-7.76-23.19-3.87-12.04-7.64-24.11-11.46-36.16-.19-.59-.53-1.13-.8-1.7-.21.04-.42.08-.62.12Z"/>
  </g>
</svg>