<?xml version="1.0" encoding="UTF-8"?>
<svg id="Layer_2" xmlns="http://www.w3.org/2000/svg" viewBox="0 0 91.44 102.87">
  <g id="Layer_1-2" data-name="Layer_1">
    <path id="N_upper" d="M26.15,36.6c-.09,1.27-.25,2.53-.25,3.8-.03,14.33.04,28.66-.11,42.99-.04,3.89,1.12,8.14,5.15,9.19,3.94,1.03,5.12,1.2,4.72,4.56-.38,3.23-2.69,5.23-6.74,5.31-7.16.14-14.33.15-21.49.02-4.54-.08-6.74-1.66-7.26-4.65-.65-3.68.51-4.06,4.74-5.64,3.83-1.43,4.8-5.91,4.78-9.65-.09-21.16-.07-42.32.01-63.48.02-4.27-.94-9.44-5.67-10.62-2.7-.67-3.59-.96-3.73-3.71C.15,1.74,2.6.22,5.38.17,13.54,0,21.7-.05,29.86.05c3.6.05,5.42,2.73,7.13,5.54,9.25,15.23,18.56,30.41,27.86,45.61.34.55.7,1.09,1.56,2.42.17-1.8.34-2.81.34-3.83.03-10.5-.05-21,.1-31.49.06-3.75-.92-8.38-4.73-9.76-2.75-1-3.73-1.31-3.73-4.29,0-3.28,3.06-4.14,5.96-4.16,7-.06,14-.1,20.99-.03,2.81.03,5.45.78,6.01,4.08.52,3.1-1.19,3.34-3.9,4.22-4.4,1.44-5.12,6.53-5.11,10.55.07,23.83.02,47.66.01,71.48,0,.67.05,1.34,0,2-.26,3.72.62,8.07-4.18,9.7-5.94,2.01-11.04.03-14.16-5.11-12.26-20.21-24.54-40.41-36.81-60.61-.35.08-.7.16-1.05.24Z"/>
  </g>
</svg>