<?xml version="1.0" encoding="UTF-8"?>
<svg id="Layer_2" xmlns="http://www.w3.org/2000/svg" viewBox="0 0 92.77 104.19">
  <g id="Layer_1-2" data-name="Layer_1">
    <path id="O_upper" d="M92.71,52.09c.14,7.88-.96,15.57-3.71,23.01-5.92,16.02-17.81,24.87-34.13,28.12-7.05,1.41-14.25,1.27-21.32-.32-13.91-3.13-23.59-11.55-28.66-24.66C-2.37,59.44-1.6,40.69,7.56,22.65,14.33,9.31,25.69,2.22,40.43.42c33.69-4.11,50.57,22.54,52.26,45.18.16,2.15.02,4.32.02,6.49ZM27.18,51.35c.23,4.82-.04,9.73.82,14.43,1.06,5.83,2.22,11.9,4.8,17.15,5.43,11.04,18.92,11.21,25.17.62,1.75-2.96,3.08-6.33,3.84-9.68,3.26-14.32,3.17-28.74.17-43.07-.84-4-2.35-8.05-4.43-11.55-5.56-9.34-18-9.42-23.9-.24-1.85,2.88-3.45,6.23-4.05,9.56-1.34,7.5-2.52,21.61-2.42,22.78Z"/>
  </g>
</svg>