<?xml version="1.0" encoding="UTF-8"?>
<svg id="Layer_2" xmlns="http://www.w3.org/2000/svg" viewBox="0 0 79.04 101.61">
  <g id="Layer_1-2" data-name="Layer_1">
    <path id="p_lower" d="M31.27,68.8c0,5.96-.21,11.75.16,17.51.08,1.27,1.99,2.82,3.41,3.53,2.8,1.39,4.85,2.99,4.29,6.43-.52,3.14-2.73,5.17-6.35,5.24-8.99.17-17.99.1-26.98.09-3.05,0-5.07-1.44-5.64-4.55-.59-3.21.47-5.63,3.7-6.64,3.66-1.15,4.73-3.8,4.72-7.29-.02-20.48-.03-40.97,0-61.45,0-3.16-.89-5.54-4.4-6.21-2.49-.47-3.6-2.24-3.82-4.61-.24-2.63.9-4.94,3.29-5.58C10.5,3.38,17.42,1.56,24.43.52c4.12-.61,5.26,1.29,6.54,7.54.31-.04.73.04.93-.13C48.79-7,71.99-.02,77.42,21.91c2.79,11.27,2.23,22.49-3.75,32.89-7.38,12.85-20.3,18.49-35.19,16.53-2.24-.3-4.36-1.5-7.21-2.53ZM31.32,37.99s0,0,.01,0c0,4.16.03,8.33,0,12.49-.04,3.68,1.93,5.85,5.18,7.12,6.44,2.53,13.92-.87,16.51-8.08,3.02-8.38,2.91-16.97.2-25.48-.35-1.09-1.02-2.1-1.66-3.06-2.9-4.31-7.87-6.06-13.18-4.71-4.5,1.15-6.81,4.39-7.02,10.21-.14,3.83-.03,7.66-.03,11.49Z"/>
  </g>
</svg>