<?xml version="1.0" encoding="UTF-8"?>
<svg id="Layer_2" xmlns="http://www.w3.org/2000/svg" viewBox="0 0 93.13 96.25">
  <g id="Layer_1-2" data-name="Layer_1">
    <path id="Percent" d="M0,26.08C.25,9.75,10.39-.69,24.74.04c8.1.41,14.05,4.57,18.37,11.29,3.6,5.61,11.24,5.36,14.38-.45,1.03-1.9,1.7-4.1,3.07-5.68,1.44-1.67,3.46-3.73,5.37-3.88,2.75-.22,6.31.33,8.28,2.01,2.39,2.03,1.46,5.62-.08,8.33-4.53,7.95-9.2,15.81-13.82,23.71-9.07,15.51-18.13,31.03-27.23,46.52-1.6,2.72-3.31,5.39-5.1,8-3.27,4.77-7.1,6.08-12.51,4.46-3.77-1.13-4.99-3.22-3.36-6.73,1.39-3,3.24-5.8,5.05-8.59,9.37-14.35,18.8-28.67,28.19-43.01,1-1.53,2.04-3.1,2.6-4.81.24-.72-.72-1.83-1.13-2.76-.84.53-2.07.87-2.44,1.63-1,2.07-1.4,4.44-2.46,6.47-5.02,9.7-14.77,14.38-25.39,12.36C7.23,47.13,1.39,39.97.17,28.8c-.13-1.16-.15-2.32-.17-2.72ZM17.13,24.67c.37,2.43.42,4.13.91,5.69.77,2.45,1.96,4.71,5.1,4.57,2.78-.13,4.03-2.08,4.77-4.4,1.34-4.22,1.75-8.58-.02-12.68-.67-1.56-2.67-3.4-4.17-3.5-1.49-.1-3.78,1.49-4.53,2.95-1.25,2.42-1.54,5.33-2.07,7.37ZM93.11,71.3c-.08,6.25-1.36,13.49-7.53,18.92-7.36,6.47-15.74,7.49-24.66,4.26-8.31-3-12.91-9.28-13.55-17.99-.34-4.57-.08-9.32.8-13.82,1.77-9.1,7.75-14.54,16.74-16.3,9.18-1.79,17.56-.35,23.81,7.52,3.08,3.88,4.63,9.26,4.39,17.4ZM76.75,71.03c-.58-2.73-.82-5.79-1.96-8.47-.65-1.54-2.74-3.36-4.22-3.4-1.52-.03-3.81,1.63-4.49,3.13-2.52,5.52-2.59,11.38-.14,16.93.66,1.5,2.98,3.17,4.51,3.15,1.52-.02,3.62-1.78,4.36-3.32,1.12-2.31,1.28-5.09,1.92-8.02Z"/>
  </g>
</svg>