<?xml version="1.0" encoding="UTF-8"?>
<svg id="Layer_2" xmlns="http://www.w3.org/2000/svg" viewBox="0 0 77.78 101.13">
  <g id="Layer_1-2" data-name="Layer_1">
    <path id="q_lower" d="M45.06,67.1c-6.51,4.54-13.08,6.01-20.01,5.02-9.37-1.34-16.21-6.54-20.65-14.83C-3.63,42.3-.35,21.49,11.66,9.72,23.07-1.48,41.24-2.77,51.08,4.66c.37.28.9.37,1.29.52,2.3-1.44,4.37-3.21,6.77-4.14,6.01-2.33,9.84.4,9.83,6.83-.02,11.81-.23,23.63-.24,35.44-.02,12.65.13,25.29.14,37.94,0,4.12.71,7.46,5.5,8.73,2.73.72,3.64,3.24,3.38,6-.25,2.62-1.76,4.8-4.24,4.87-10.95.3-21.91.38-32.86.08-1.36-.04-3.18-2.67-3.83-4.45-.87-2.38.23-4.97,2.74-5.7,4.93-1.44,5.68-4.89,5.55-9.24-.14-4.46-.03-8.94-.03-14.46ZM46.61,36.48c0-4.33.16-8.67-.05-12.98-.19-4.04-1.71-7.59-5.8-9.11-4.2-1.57-8.32-1.05-11.57,2.21-1.59,1.6-3.04,3.64-3.77,5.75-3.06,8.91-2.76,18.01-.49,27.01.54,2.13,2.09,4.17,3.61,5.86,3.05,3.38,8.08,4.13,12.41,2.31,4.27-1.8,5.82-5.1,5.68-9.55-.12-3.83-.03-7.66-.03-11.49Z"/>
  </g>
</svg>