<?xml version="1.0" encoding="UTF-8"?>
<svg id="Layer_2" xmlns="http://www.w3.org/2000/svg" viewBox="0 0 93.72 130.43">
  <g id="Layer_1-2" data-name="Layer_1">
    <path id="Q_upper" d="M63.96,100.32c1.71,7.25,5.2,12.17,12.66,12.69,2.38.16,4.89-.63,7.25-1.29,2.56-.71,5.15-1.19,6.86,1.17,1.8,2.48.76,5.14-.84,7.42-3.01,4.26-7.28,6.76-12.19,8.24-11.34,3.41-22.06,2.43-31.74-4.84-6.02-4.52-8.94-11.05-10.98-18.01-.61-2.08-1.36-3.52-3.64-4.19-16.96-5.02-26.12-17.14-29.59-33.82-2.98-14.31-2.41-28.61,3.76-42.09C12.96,9.31,25.65.35,43.88.03c7.51-.13,14.97.02,22.11,2.94,15.2,6.19,22.89,18.33,26.12,33.61,2.47,11.71,2.13,23.54-1.32,35.1-3.79,12.68-11.69,21.87-23.87,27.25-.9.4-1.77.83-2.96,1.39ZM66.65,50.16c.02-13.02-2.04-23.58-5.96-30.55-5.75-10.23-19.67-10.93-25.87-1.01-2.23,3.57-3.73,7.84-4.61,11.99-2.72,12.83-2.39,25.83-.85,38.77.69,5.79,2.39,11.42,6.27,16.07,3.6,4.31,8.23,6.02,13.76,5.2,7.29-1.08,11.38-5.79,13.58-12.39,3.04-9.11,3.66-18.56,3.68-28.08Z"/>
  </g>
</svg>