<?xml version="1.0" encoding="UTF-8"?>
<svg id="Layer_2" xmlns="http://www.w3.org/2000/svg" viewBox="0 0 33.5 106.51">
  <g id="Layer_1-2" data-name="Layer_1">
    <path id="Right_Square_Bracket" d="M33.45,53.02c0,14.64.05,29.28-.02,43.92-.04,7.64-1.87,9.42-9.43,9.5-5.66.06-11.32.14-16.97-.02C1.84,106.27.04,104.49,0,100.04c-.04-4.63,2.02-7.13,6.98-7.2,8.5-.12,7.35-2,7.38-8.39.08-21.63.03-43.26,0-64.88,0-5.48-.65-6.07-6.41-6.35C2.15,12.93-.24,9.27,1.72,3.77,2.53,1.5,3.9,0,6.4,0c7.15,0,14.3-.01,21.44.17,3.35.08,5.14,2.25,5.38,5.45.26,3.31.25,6.65.26,9.97.03,12.48.01,24.96.01,37.43-.01,0-.02,0-.04,0Z"/>
  </g>
</svg>