<?xml version="1.0" encoding="UTF-8"?>
<svg id="Layer_2" xmlns="http://www.w3.org/2000/svg" viewBox="0 0 33.47 105.76">
  <g id="Layer_1-2" data-name="Layer_1">
    <path id="Right_Bracket" d="M33.46,50.16c.28,22.43-6.41,39.79-22.26,53.2-2.14,1.81-4.31,3.07-7.24,2.02-4.06-1.46-5.15-4.59-2.59-8.03,7.26-9.77,10.79-20.87,11.7-32.87.86-11.31,1.3-22.73-1.98-33.66-2.27-7.56-5.97-14.7-9.27-21.92C.75,6.55-.77,4.54,1.48,2.14,3.49-.02,7.14-.9,9.64,1.2c3.91,3.27,7.72,6.87,10.73,10.95,8.73,11.83,13.37,25.16,13.08,38.01Z"/>
  </g>
</svg>