<?xml version="1.0" encoding="UTF-8"?>
<svg id="Layer_2" xmlns="http://www.w3.org/2000/svg" viewBox="0 0 58.01 73.92">
  <g id="Layer_1-2" data-name="Layer_1">
    <path id="s_lower" d="M26.93,73.92c-6.26.07-12.23-1.13-17.87-3.91C3.34,67.19-.07,62.63,0,56.23c.03-2.64.98-5.7,2.55-7.79,3.28-4.34,8.47-3.27,10.56,1.78.57,1.38,1.01,2.83,1.68,4.16,3.04,6.01,10.91,9.05,17.03,6.23,1.7-.78,3.33-2.71,4-4.49.87-2.3-.15-4.63-2.51-5.91-2.33-1.26-4.75-2.37-7.11-3.57-5.47-2.78-11.28-5.05-16.32-8.48C-1.9,30.14.02,13.82,9.82,6.98,21.48-1.15,34.29-2.05,47.26,3.62c6.06,2.65,8.33,7.74,7.59,14.35-.43,3.84-2.66,6.57-5.87,7.2-3.11.61-5.73-.84-7.67-4.3-.57-1.01-.96-2.12-1.51-3.15-2.68-5.05-9.35-6.82-14.15-3.78-3.84,2.43-3.96,7.34.08,9.8,3.1,1.89,6.61,3.11,9.93,4.64,4.07,1.88,8.29,3.5,12.17,5.71,7.53,4.29,10.72,10.94,10.1,19.63-.54,7.68-4.9,12.46-11.22,15.92-6.16,3.38-12.9,4.21-19.78,4.29Z"/>
  </g>
</svg>