<?xml version="1.0" encoding="UTF-8"?>
<svg id="Layer_2" xmlns="http://www.w3.org/2000/svg" viewBox="0 0 68.84 104.16">
  <g id="Layer_1-2" data-name="Layer_1">
    <path id="S_upper" d="M38,.05c4.47.17,10.76.89,16.82,2.99,5.05,1.74,8.04,5.14,7.74,10.82-.22,4.15-.32,8.31-.58,12.46-.2,3.27-2.02,5.88-5.25,5.72s-3.52-1.06-4.86-4.51c-1.08-2.79-1.76-5.74-2.96-8.47-2.71-6.19-12.63-8.83-19.48-6.01-6.07,2.5-9.41,8.85-6.61,14.6,1.73,3.54,4.91,6.73,8.15,9.09,4.4,3.21,9.65,5.24,14.25,8.22,5.28,3.42,10.81,6.76,15.24,11.14,14.32,14.15,9.64,36.66-9.07,44.19-13.38,5.38-27.03,4.86-40.57.31-5.52-1.85-8.92-5.72-9.58-11.63C.69,84.18,0,79.37,0,74.57c0-4.36,2.1-6.57,5.98-6.59,4.31-.02,4.33.85,5.65,5.27.38,1.28.67,2.58,1.03,3.86,3.11,11.15,15.17,16.43,26.11,12.67,6.35-2.18,9.35-9.05,6.04-14.96-1.48-2.64-3.87-5.05-6.37-6.79-3.94-2.74-8.42-4.7-12.52-7.23-4.81-2.96-9.77-5.8-14.1-9.38C2.48,43.72-.59,33.44,1.93,21.8,4.51,9.86,13.14,3.73,24.37.91,28.2-.05,32.21-.07,38,.05Z"/>
  </g>
</svg>