<?xml version="1.0" encoding="UTF-8"?>
<svg id="Layer_2" xmlns="http://www.w3.org/2000/svg" viewBox="0 0 25.09 78.39">
  <g id="Layer_1-2" data-name="Layer_1">
    <path id="Semi_Colon" d="M25.09,51.39c-1.05,9.87-5.72,18.14-12.39,25.33-1.06,1.14-3.29,1.57-5.02,1.66-3.89.2-5.04-1.84-3.25-5.3.38-.73.87-1.41,1.3-2.12,3.02-5.09,2.69-6.91-.95-11.53-1.79-2.28-3.58-4.95-4.17-7.7-1.4-6.49,3.48-13.11,9.99-14.46,5.65-1.17,11.84,2.91,13.62,9.09.46,1.58.57,3.26.87,5.04ZM12.45,0C5.4-.13-.05,5.73,0,13.38c.04,6.65,5.5,12.39,11.82,12.43,6.93.04,12.51-5.64,12.55-12.81C24.42,6.17,18.87.12,12.45,0Z"/>
  </g>
</svg>