<?xml version="1.0" encoding="UTF-8"?>
<svg id="Layer_2" xmlns="http://www.w3.org/2000/svg" viewBox="0 0 24.84 40">
  <g id="Layer_1-2" data-name="Layer_1">
    <path id="Single_Quote_Dumb" d="M19.36,27.48c-.08,7.77,1.01,4.11-3.87,12.21-.12.2-1.46.29-2.98.31h-.18c-1.52-.02-2.86-.11-2.98-.31-4.88-8.1-3.79-4.44-3.87-12.21-.01-.9-.02-1.71-.02-2.46-.02-1.53-.64-2.97-1.71-4.07C1.49,18.63.05,15.49,0,12.08-.1,5.43,5.12.11,11.87,0h1.1c6.75.11,11.97,5.43,11.87,12.08-.05,3.41-1.49,6.55-3.75,8.87-1.07,1.1-1.69,2.54-1.71,4.07,0,.75-.01,1.56-.02,2.46Z"/>
  </g>
</svg>