<?xml version="1.0" encoding="UTF-8"?>
<svg id="Layer_2" xmlns="http://www.w3.org/2000/svg" viewBox="0 0 50.27 89.45">
  <g id="Layer_1-2" data-name="Layer_1">
    <path id="t_lower" d="M8.28,30.06c-1.25-.42-1.56-.61-1.87-.62-2.32-.05-4.97.32-5.94-2.48-.99-2.84-.44-5.59,1.78-7.83,5.28-5.3,10.47-10.7,15.9-15.84,1.49-1.41,3.57-2.59,5.57-3,5.71-1.18,8.5,1.3,8.56,7.11.03,3.11,0,6.23,0,9.75,3.85,0,7.47-.09,11.07.02,4.46.15,6.5,1.91,6.86,5.63.39,4.01-1.3,6.71-5.56,7.53-4.04.77-8.22.81-12.72,1.2-.18,1.3-.51,2.56-.51,3.83-.04,9.32-.03,18.63-.02,27.95,0,.99,0,2.01.16,2.98,1.05,6.28,4.07,7.81,9.7,4.75,2.41-1.31,4.67-2.02,6.8.16,2.2,2.24,1.8,4.8.41,7.34-5.6,10.2-22.39,14.33-32.01,7.73-6.23-4.27-7.99-10.83-8.12-17.86-.19-10.81-.06-21.63-.06-32.44,0-1.96,0-3.91,0-5.9Z"/>
  </g>
</svg>