<?xml version="1.0" encoding="UTF-8"?>
<svg id="Layer_2" xmlns="http://www.w3.org/2000/svg" viewBox="0 0 81.01 73.23">
  <g id="Layer_1-2" data-name="Layer_1">
    <path id="u_lower" d="M50.23,64.51c-7.21,7.68-15.58,10.02-25.02,8.08-9.41-1.94-15.86-8.58-16.6-18.18-.8-10.27-.5-20.62-.67-30.93-.02-1.33-.03-2.66-.03-3.99,0-2.66-.99-4.51-3.87-4.87C1.17,14.27.11,12.37,0,9.77c-.11-2.85,1.2-4.93,3.99-5.58C10.3,2.72,16.6,1.11,22.99.19c6.49-.93,8.97,1.43,9.04,8.01.12,11.82,0,23.64.06,35.46.01,2.31.23,4.66.71,6.92.97,4.57,4.44,7.01,9.06,6.65,4.56-.36,7.76-3.43,7.82-8.1.14-9.66.02-19.31.03-28.97,0-2.9-1.12-4.68-4.21-5.15-2.44-.38-3.64-2.12-3.84-4.57-.21-2.61.62-4.91,3.2-5.56,7.05-1.78,14.14-3.58,21.32-4.65,3.73-.56,5.95,2.07,6.2,6.25.21,3.47-.21,6.98-.22,10.47-.04,11.32-.03,22.64-.02,33.97,0,4.69.5,8.9,6.21,10.49,1.29.36,2.71,3.11,2.65,4.7-.06,1.83-1.3,4.12-2.77,5.26-1.4,1.1-3.73,1.25-5.68,1.34-4.15.19-8.32.09-12.49.06-6.29-.04-8.1-1.48-9.84-8.27Z"/>
  </g>
</svg>