<?xml version="1.0" encoding="UTF-8"?>
<svg id="Layer_2" xmlns="http://www.w3.org/2000/svg" viewBox="0 0 95.1 102.9">
  <g id="Layer_1-2" data-name="Layer_1">
    <path id="U_upper" d="M8.1,44.81c0-9-.05-18,.03-27,.03-3.53-1.02-8.14-4.6-9.41C.62,7.37.08,7.16,0,4.12S3.02-.01,6.04,0c10.5.04,21,.04,31.5.02,3,0,6,1,5.92,4.18s-1.17,3.24-4.03,4.03c-4.19,1.16-5.18,5.88-5.14,9.88.14,17-.04,34,.15,51,.04,3.42.55,7.09,1.88,10.2,3.23,7.56,11.18,10.73,20.24,8.71,7.53-1.68,12.02-7.32,12.06-15.6.09-18.17-.02-36.33.1-54.5.02-3.73-.97-8.32-4.66-9.88-2.66-1.12-3.25-1.63-3.13-4.57.13-3.17,3.18-3.43,5.87-3.41,7.33.06,14.66.05,22,.05,2.91,0,5.33.77,6.15,3.93.71,2.73-.65,3.35-4.13,4.43-4.61,1.43-5.51,6.47-5.47,10.75.14,15.83.28,31.67-.05,47.5-.12,5.57-.78,11.4-2.6,16.61-3.34,9.56-11.27,14.64-20.62,17.31-10.63,3.02-21.43,3.11-32.02-.21-13.05-4.08-20.92-14.01-21.56-27.62-.44-9.31-.08-18.66-.08-27.99h-.28Z"/>
  </g>
</svg>