<?xml version="1.0" encoding="UTF-8"?>
<svg id="Layer_2" xmlns="http://www.w3.org/2000/svg" viewBox="0 0 75.87 72.39">
  <g id="Layer_1-2" data-name="Layer_1">
    <path id="l_lower" d="M42.93,45.67c1.58-5.14,3.16-10.28,4.73-15.42,1.21-3.97,2.48-7.93,3.58-11.94.81-2.96,1.25-5.8-2.02-7.94-2.22-1.46-2.62-4.15-1.39-6.26.97-1.66,3-3.65,4.68-3.78,6.12-.46,12.3-.32,18.46-.13,2.79.08,5.03,1.95,4.89,4.7-.1,1.99-1.38,5.01-2.92,5.63-3.99,1.62-5.23,4.71-6.49,8.22-4.96,13.76-9.89,27.54-15.12,41.19-1.21,3.16-3.11,6.38-5.52,8.7-6.52,6.28-16.91,4.39-21.19-3.59-1.25-2.33-2.11-4.88-2.96-7.39-4.55-13.38-9.05-26.78-13.56-40.17-.96-2.86-1.88-5.52-5.4-6.57C1.43,10.55-.18,8.06.02,6.78.33,4.73,1.82,2.74,3.2,1.03,3.79.3,5.35.1,6.47.09,14.96.02,23.45-.08,31.94.12c4.37.1,6.8,2.9,5.96,6.76-.34,1.58-1.66,3.25-3.01,4.23-1.98,1.43-2.44,2.99-1.79,5.14,2.97,9.79,5.93,19.58,8.9,29.37.31.01.62.03.93.04Z"/>
  </g>
</svg>