<?xml version="1.0" encoding="UTF-8"?>
<svg id="Layer_2" xmlns="http://www.w3.org/2000/svg" viewBox="0 0 94.17 101.52">
  <g id="Layer_1-2" data-name="Layer_1">
    <path id="V_upper" d="M51.44,65.71c3.51-10.53,7.03-21.06,10.53-31.59,1.83-5.53,3.47-11.13,5.48-16.59,1.2-3.24.81-7.53-2.52-8.89-3.15-1.29-3.24-1.89-2.98-4.66.22-2.31,1.49-3.81,3.81-3.84,7.83-.1,15.65-.08,23.48-.05,2.47.01,4.09,1.4,4.67,3.76.67,2.69.06,3.53-2.57,4.35-6.17,1.93-7.38,9.03-9,14.15-7.43,23.48-14.91,46.94-22.43,70.39-2.34,7.31-4.28,8.67-11.89,8.76-1.83.02-3.66-.05-5.5-.08-6.02-.12-8.22-1.86-10.01-7.66-7.92-25.59-15.91-51.17-23.79-76.77-.94-3.05-2.31-7.41-5.43-8.62C.28,7.22-.43,6.71.22,3.82.89.9,3.04,0,5.86,0,16.18.04,26.51,0,36.84,0c2.47,0,4.81.46,5.45,3.3.65,2.9-.36,3.19-3.02,4.74-5.44,3.18-5.41,5.2-3.55,11.11,4.9,15.54,9.79,31.08,14.69,46.62.35-.02.69-.04,1.04-.06Z"/>
  </g>
</svg>