<?xml version="1.0" encoding="UTF-8"?>
<svg id="Layer_2" xmlns="http://www.w3.org/2000/svg" viewBox="0 0 116.29 72.89">
  <g id="Layer_1-2" data-name="Layer_1">
    <path id="w_lower" d="M84.18,40.68c2.17-8.3,4.45-16.58,6.39-24.94.26-1.14-.88-3.15-1.96-3.94-2.56-1.87-4.06-4.09-3.17-7.16.93-3.22,3.64-3.99,6.73-3.95,5.83.07,11.66-.01,17.48.06,3,.04,5.71.83,6.47,4.24.68,3.05-.76,5.55-4.36,6.79-3.23,1.12-4.69,3.4-5.72,6.37-5,14.28-10.04,28.54-15.14,42.79-.78,2.18-1.78,4.32-2.98,6.29-2.34,3.85-5.79,5.9-10.42,5.5-4.65-.4-7.77-3.12-9.33-7.24-2.3-6.05-4.17-12.28-6.16-18.44-1.48-4.58-2.88-9.19-4.59-14.68-.74,1.8-1.26,2.87-1.62,4-2.95,9.18-5.87,18.36-8.81,27.54-1.1,3.45-2.89,6.37-6.38,7.88-6.65,2.87-12.56.09-15.32-7.43-2.87-7.8-5.51-15.68-8.23-23.54-2.55-7.38-5.06-14.78-7.59-22.17-1.05-3.06-2.22-5.85-6.03-6.52C.61,11.61-.37,8.98.12,6.73c.43-1.99,2.08-3.89,3.62-5.37.77-.74,2.53-.61,3.84-.61,8.33-.05,16.65-.03,24.98-.03.67,0,1.34-.03,1.99.07,2.57.39,5.04,1.15,5.66,4.07.61,2.89-.38,5.53-3.14,6.67-3.1,1.28-3.28,3.05-2.42,5.9,2.32,7.74,4.4,15.55,6.87,24.4,4.08-12.06,7.82-23.04,11.5-34.05,1.18-3.52,3.06-6.14,6.87-7.22,5.7-1.62,10.41.4,12.32,6.01,3.85,11.29,7.46,22.67,11.16,34.01.27.04.54.08.81.12Z"/>
  </g>
</svg>