<?xml version="1.0" encoding="UTF-8"?>
<svg id="Layer_2" xmlns="http://www.w3.org/2000/svg" viewBox="0 0 90.6 101.37">
  <g id="Layer_1-2" data-name="Layer_1">
    <path id="X_upper" d="M64.89,10.61c1.11-1.68.67-2.32-4.61-2.1-1.98.08-2.14-2.75-2.12-4.65.02-2.4,2.06-3.71,4.52-3.74,7.33-.07,14.66-.12,21.99-.08,2.88.02,4.71,1.54,5.05,4.49.32,2.82-.73,3.43-3.54,3.82-5.35.75-4.94.25-10.27,8.47-5.79,8.92-10.59,17.25-16.07,26.58-1.27,2.16-1.52,3.61-.31,5.85,6.1,11.27,12.02,22.64,17.97,33.99,1.89,3.61,4.01,9.23,8.58,9.45,2.69.13,4.27.44,4.53,3.55s-2.68,5.01-6.39,5.05c-10.16.11-20.32.04-30.49.06-2.94,0-6.05-.84-6.08-4.04s1.11-4.34,3.35-4.43c.94-.04,2.88.05,4.67,0-4.31-8.44-10.05-20.59-14.77-29.83-5.35,9.1-10.18,19.32-15.17,27.8-1.11,1.8.02,2.8,1.12,2.8,3.13,0,5.14.47,4.83,4.06-.22,2.54-2,3.56-4.75,3.6-7.33.09-14.66.08-21.99.02-2.99-.02-5.05-1.03-4.94-3.79.11-2.61,1.16-4.02,4-4.33,1-.11,2.25-.06,3.39-.28,3.2-.62,4.53-5.82,6.13-8.56,5.65-9.62,11.29-19.24,17.16-28.72,1.73-2.8,1.63-4.98.08-7.78-5.87-10.64-11.6-21.35-17.19-32.13-1.43-2.75-3.27-6.37-6.26-7.11-3.37-.83-4.36-1.15-4.3-4.11C3.09,1.34,5.37,0,8.54.02,19.37.06,30.2.04,41.02,0c3.21-.01,6.42,1.03,6.24,4.46-.15,2.91-1.65,3.35-5.54,3.83-5.83.72-4.26,6.3-2.2,10.9,2.69,6.01,5.75,11.86,9.07,18.64,5.67-8.77,10.78-18.68,16.29-27.22Z"/>
  </g>
</svg>