<?xml version="1.0" encoding="UTF-8"?>
<svg id="Layer_2" xmlns="http://www.w3.org/2000/svg" viewBox="0 0 82.5 103.95">
  <g id="Layer_1-2" data-name="Layer_1">
    <path id="_x30_" d="M82.47,52.9c.07,10.69-.97,19.84-5.13,28.49-8.6,17.88-25.99,24.59-44.56,22.04-16.13-2.22-28.86-15.64-31.39-33.19C-.74,55.46-.94,40.7,4.58,26.41,13.5,3.33,39-6.65,60.42,4.7c8.99,4.76,14.51,12.61,17.82,21.99,3.12,8.86,4.48,18.08,4.23,26.21ZM25.84,51.85c.48,6.23.51,12.94,1.68,19.44.77,4.27,2.58,8.65,5.01,12.26,3.68,5.46,11.77,5.88,16.05.89,2.36-2.75,4-6.49,4.9-10.05,2.65-10.42,2.41-21.14,1.52-31.73-.51-6.04-2.02-12.12-4.01-17.86-1.63-4.71-5.31-8.14-10.91-7.97-5.6.17-8.61,3.91-10.51,8.59-1.05,2.58-1.84,5.37-2.17,8.13-.7,5.93-1.03,11.9-1.55,18.3Z"/>
  </g>
</svg>