<?xml version="1.0" encoding="UTF-8"?>
<svg id="Layer_2" xmlns="http://www.w3.org/2000/svg" viewBox="0 0 72.65 103.46">
  <g id="Layer_1-2" data-name="Layer_1">
    <path id="_x33_" d="M56.37,44.62c3.96,3.33,8.06,5.84,10.91,9.35,8.55,10.56,6.62,27.58-3.81,37.7-14.42,14-39.59,15.79-55.78,3.95C2.83,92.07-.13,87.44,0,81.26c.15-7.12,6.14-12.48,13.19-12.03,4.49.29,7.5,2.42,8.87,6.76.25.79.43,1.61.69,2.4,2.07,6.34,5.24,8.74,11.21,8.49,5.41-.23,10.86-4.5,12.17-9.56,2.6-10.02-3.5-18.08-13.88-18.3-1-.02-2,0-3-.03-5.15-.2-7.5-2.04-8.09-6.28-.76-5.51,1.26-8.98,6.18-10.44,1.59-.47,3.27-.64,4.88-1.03,8.27-2.01,12.53-9.68,9.82-17.67-1.11-3.28-3.3-5.31-6.78-5.85-3.61-.56-6.68.25-8.55,3.63-1.04,1.88-1.83,3.89-2.65,5.88-2.16,5.26-5.88,7.63-10.81,6.8-5.18-.87-7.95-4.41-7.83-10.46.12-6.79,3.36-12.17,8.51-16.27C22.9.16,33.35-.9,44.25.58c6.04.82,11.62,2.84,16.23,7.06,10.16,9.32,10.29,23.63.26,33.1-1.44,1.36-2.96,2.63-4.38,3.88Z"/>
  </g>
</svg>