<?xml version="1.0" encoding="UTF-8"?>
<svg id="Layer_2" xmlns="http://www.w3.org/2000/svg" viewBox="0 0 78.39 100.83">
  <g id="Layer_1-2" data-name="Layer_1">
    <path id="_x34_" d="M67.69,78.37c-1,6.83-.92,7.12,4.32,9.98,2.91,1.58,4.81,3.56,4,7.15-.74,3.3-2.92,5.21-6.92,5.26-10.48.13-20.97.06-31.45,0-1.3,0-2.88-.12-3.83-.85-1.59-1.21-3.4-2.74-3.99-4.51-.81-2.44.8-4.45,3.15-5.56,1.65-.78,3.38-1.4,5.04-2.16,1.2-.56,2.83-.96,3.4-1.93,1.01-1.72,1.83-3.86,1.74-5.77-.04-.72-2.84-1.86-4.38-1.86-9.82.04-19.63.41-29.45.53-7.61.09-9.13-1.67-9.3-9.46-.1-4.51,1.24-8.3,3.75-12.09C14.95,40.19,26.02,23.2,36.8,6.02,39.2,2.21,41.76.06,46.27.15c4.16.08,8.32-.25,12.48-.12,6.9.22,8.93,2.22,8.96,9.11.06,13.31-.07,26.62-.11,39.93,0,2.83.02,5.66-.02,8.49-.03,2.41,1.15,3.53,3.49,4.01,6.6,1.34,7.37,2.24,7.33,7.68-.05,5.82-1.58,7.44-8.08,8.62-.8.14-1.59.31-2.63.51ZM20.21,60.49l.83,1.21c5.75,0,11.5.17,17.24-.05,4.69-.18,5.04-.71,5.11-5.37.14-8.98.24-17.96.31-26.94,0-.72-.35-1.44-.73-2.89-7.88,11.79-15.32,22.91-22.75,34.03Z"/>
  </g>
</svg>