<?xml version="1.0" encoding="UTF-8"?>
<svg id="Layer_2" xmlns="http://www.w3.org/2000/svg" viewBox="0 0 67.66 100.21">
  <g id="Layer_1-2" data-name="Layer_1">
    <path id="_x37_" d="M43.26,23.3c-1.33-.77-1.89-1.37-2.44-1.37-7.65.06-15.31-.03-22.92.53-1.56.12-3.16,2.64-4.32,4.35-1.57,2.3-3.21,4.22-6.19,4.51C2.46,31.79-.47,29.31.06,24.43c.66-6.11,1.67-12.19,2.86-18.23C3.68,2.37,6.43.18,10.43.15,27.26.02,44.09-.05,60.91.05c5.39.03,7.82,3.45,6.31,8.74-.95,3.34-2.51,6.51-3.94,9.7-10.39,23.18-18.19,47.19-23.28,72.08-1.43,6.99-3.56,9.08-10.63,9.47-4.15.23-8.34.25-12.48-.08-7.8-.62-10.35-4.91-6.82-11.87,8.13-16.03,16.55-31.91,24.79-47.89,2.87-5.56,5.57-11.22,8.39-16.91Z"/>
  </g>
</svg>