<?xml version="1.0" encoding="UTF-8"?>
<svg id="Layer_2" xmlns="http://www.w3.org/2000/svg" viewBox="0 0 76.85 103.69">
  <g id="Layer_1-2" data-name="Layer_1">
    <path id="_x38_" d="M18.85,48.6c-1.93-1.44-3.41-2.48-4.83-3.59C2.5,35.99,1.7,20.24,12.32,10.13,25.95-2.87,48-2.07,60.79,5.3c13.01,7.51,13.88,26.6,4.22,35.33-1.96,1.78-3.91,3.57-6.24,5.7,1.93,1.21,3.64,2.38,5.44,3.4,17.16,9.75,14.99,32.2,4.58,42.1-13.97,13.28-40.18,15.93-56.21,5.26-16.02-10.66-16.88-31.05-1.76-43,2.33-1.84,4.9-3.37,8.03-5.5ZM37.9,87.64c1.25-.33,3.78-.65,6.01-1.62,7.78-3.38,9.48-12.19,3.06-17.72-3.42-2.95-7.81-4.91-12.01-6.73-1.47-.63-4,0-5.52.92-5.33,3.22-7.71,10.22-5.87,16.14,1.58,5.1,7.1,8.88,14.33,9.01ZM50.56,25.31c-.08-7.26-3.88-11.45-9.83-11.64-6.14-.2-10.9,3.95-11.47,9.99-.42,4.51,2.1,7.66,5.29,10.11,9.31,7.19,12.63,4.81,15.45-4.86.41-1.41.46-2.93.56-3.61Z"/>
  </g>
</svg>