<?xml version="1.0" encoding="UTF-8"?>
<svg id="Layer_2" xmlns="http://www.w3.org/2000/svg" viewBox="0 0 76.89 103.96">
  <g id="Layer_1-2" data-name="Layer_1">
    <path id="_x39_" d="M49.49,61.68c-3.37,2.17-5.78,4.3-8.59,5.45C21.12,75.2.6,61.45.02,40.09-.33,26.8,3.4,15.46,14.34,7.19c15.23-11.52,47.19-11.45,58.27,16.99,10.32,26.49,1.86,57.79-23.85,73.62-9.75,6-20.52,8.03-31.63,4.22-3.65-1.25-7.18-3.54-10.1-6.11-4.04-3.56-4.63-9.39-2.31-14.27,2.32-4.89,6.43-7.12,12.22-6.71,4.46.31,7.34,2.63,9.07,6.7,2.88,6.78,7.31,7.92,13.13,3.28,1.92-1.53,3.61-3.48,5.03-5.5,3.53-5.03,4.77-10.83,5.33-17.74ZM24.55,34.48c.64,2.99.98,6.32,2.08,9.37,1.65,4.59,5.05,7.46,10.16,7.37,4.96-.08,8.71-2.67,10.49-7.17,2.96-7.49,2.45-15.06-1.48-22.09-2.05-3.67-5.57-5.91-9.96-5.43-4.69.51-8.04,3.25-9.37,7.82-.91,3.15-1.25,6.48-1.92,10.13Z"/>
  </g>
</svg>