<?xml version="1.0" encoding="UTF-8"?>
<svg id="Layer_2" xmlns="http://www.w3.org/2000/svg" viewBox="0 0 95.42 104.12">
  <g id="Layer_1-2" data-name="Layer_1">
    <path id="A_upper" d="M70.68,104.04c-5.33,0-10.67.08-16-.03-4.27-.09-6.82-1.57-6.69-4.56s1.57-3.06,4.58-4.25c5.27-2.09,6.61-10.92,2.59-14.94-.69-.69-2.08-.92-3.16-.93-7.66-.09-15.33.02-23-.12-2.27-.04-3.38.9-3.95,2.91-.41,1.44-.91,2.86-1.35,4.29-1.48,4.73-1.51,6.9,3.02,8.62,2.8,1.07,4.5,1.05,4.46,3.79s-2.4,4.97-5.87,5.09c-6.66.23-13.35.35-19.98-.11-1.86-.13-4.87-1.84-5.19-3.79-.43-2.66-.07-3.25,2.13-4.6,4.57-2.82,6-9.37,7.49-13.93,6.84-20.88,13.61-42.78,20.38-63.67,1.26-3.9.75-7.03-2.91-9.36-1.25-.8-3.68-1.98-4.03-3.05-1.28-3.94-.17-4.96,4.16-5.15,9.14-.4,18.32-.31,27.47-.07,3.52.09,4.81,3.28,5.74,6.17,2.65,8.24,5.18,16.52,7.76,24.78,5.5,17.64,11.02,35.28,16.51,52.92,1.07,3.44,2.53,8.47,6.2,9.93,3.05,1.22,4.4,1.92,4.34,4.93-.07,3.53-3.6,4.83-6.74,4.95-5.99.23-11.99.07-17.99.07,0,.03,0,.06,0,.09ZM41.8,31.91c-.36.03-.73.07-1.09.1-3.58,10.99-7.16,21.98-10.86,33.33h21.48c-3.28-11.51-6.4-22.47-9.52-33.43Z"/>
  </g>
</svg>