<?xml version="1.0" encoding="UTF-8"?>
<svg id="Layer_2" xmlns="http://www.w3.org/2000/svg" viewBox="0 0 96.43 97.1">
  <g id="Layer_1-2" data-name="Layer_1">
    <path id="Ampersand" d="M45.28,46.48c5.58,6.71,10.74,12.9,16.11,19.36,3.7-4.04,4.72-8.8,6.15-13.28.25-.78-1.46-2.83-2.65-3.28-2.79-1.06-5.55-1.77-4.92-5.63.52-3.26,3.79-6.51,7.14-6.63,7.16-.26,14.32-.39,21.48-.35,3.98.02,5.92,1.95,6.37,5.6.44,3.59-1.36,7.54-4.63,7.86-7.14.7-9.52,5.81-12,11.19-2.02,4.37-4.21,8.66-6.28,12.88,3.36,4.46,7.36,5.32,11.68,2.52,1.52-.98,2.74-2.45,4.26-3.43,3.9-2.49,8.45,0,8.43,4.63,0,1.45-.41,2.98-.98,4.33-5.17,12.24-19.16,17.67-31.23,12.07-2.85-1.32-5.48-3.14-8.56-4.93-2.85,1.38-5.94,2.95-9.09,4.37-9.08,4.11-18.42,4.26-27.81,1.34-9.79-3.05-16.68-9.19-18.34-19.68-1.81-11.41,2.12-20.64,11.86-27.14,2.32-1.55,4.78-2.91,7.5-4.56-.98-1.97-1.79-3.74-2.71-5.45C10.46,26.05,14.77,5.83,32.47,1.2c11.92-3.11,23.67-.16,29.18,8.48,6.63,10.39,3.99,24.01-6.3,30.77-2.91,1.91-5.97,3.58-10.07,6.03ZM28.03,56.77c-5.64,4.95-6.76,15.5-2.35,20.41,5.13,5.71,16.28,6.5,21.51,1.53-5.86-6.99-11.72-13.99-17.6-20.97-.3-.36-.83-.52-1.56-.96ZM48.06,23.58c-.37-2.34-.48-3.67-.81-4.95-.73-2.81-2.45-4.78-5.46-4.99-3.26-.24-5.34,1.59-6.3,4.57-1.46,4.52-1,8.82,1.93,12.71,2.74,3.63,5.5,3.81,7.81.02,1.49-2.45,2.11-5.42,2.83-7.36Z"/>
  </g>
</svg>