<?xml version="1.0" encoding="UTF-8"?>
<svg id="Layer_2" xmlns="http://www.w3.org/2000/svg" viewBox="0 0 85.44 104.13">
  <g id="Layer_1-2" data-name="Layer_1">
    <path id="B_upper" d="M65.94,48.76c2.04.8,4.07,1.41,5.93,2.37,16.14,8.27,18.3,29.56,4.29,41.87-8.98,7.89-19.82,10.7-31.38,10.98-12.15.29-24.31.09-36.47.09-1,0-2.01.01-2.98-.18-2.61-.51-5.21-1.57-5.09-4.63.1-2.42.83-3.78,3.67-4.36,6.4-1.31,6.73-7.6,6.69-12.82-.14-20.32-.15-40.64.05-60.95.05-4.96-1.24-10.34-6.3-11.85C1.37,8.36.08,7.57,0,4.89-.09,1.83,2.72,0,6.51,0c15.65.01,31.3.08,46.95.29,2.96.04,5.95.69,8.86,1.35,8.78,1.99,15.25,6.84,17.48,15.86,2.35,9.48.78,18.25-6.52,25.32-2.23,2.16-4.85,3.93-7.36,5.93ZM35.13,90.22c2.61,0,4.57,0,6.54,0,14.93.02,19.94-9.47,17.3-22.52-.86-4.24-3.2-7.9-7.64-9.12-5.29-1.46-10.74-1.57-16.2-.78v32.42ZM35.12,43.33c7.57.22,14.46-.38,17.95-7.68,2.94-6.15,3.1-12.74-1.23-18.44-4.35-5.72-10.7-3.56-16.72-4.15v30.27Z"/>
  </g>
</svg>