<?xml version="1.0" encoding="UTF-8"?>
<svg id="Layer_2" xmlns="http://www.w3.org/2000/svg" viewBox="0 0 81.76 105.59">
  <g id="Layer_1-2" data-name="Layer_1">
    <path id="C_upper" d="M50.15,105.56C23.97,106.45,3.01,87.68.47,61.47-.66,49.81.05,38.5,4.89,27.71,12.54,10.66,25.65,1.25,44.4.17c9.03-.52,17.99.04,26.5,3.63,6.64,2.81,8.81,5.98,8.49,13.04-.22,4.66-.53,9.32-1.14,13.94-.54,4.09-2.4,5.94-5.45,6.08-3.39.15-5.14-2.87-6.14-5.82-1.01-3-.1-4.97-1.02-7.99-3.52-11.6-20.99-12.52-27.76-5-3.82,4.25-5.87,9.33-6.98,14.72-2.54,12.36-3.21,24.86-.16,37.19,1.21,4.9,3.31,9.83,6.09,14.03,4.18,6.3,13.03,8.43,20.15,5.85,5.14-1.86,9.14-5.59,10.43-10.8.48-1.94.71-3.97,1.4-5.82,1.08-2.89,2.62-3.81,5.45-3.75,2.69.06,4.33,1.7,4.83,4.26.96,4.9,1.98,9.8,2.57,14.74.57,4.74-1.61,8.25-5.65,10.85-7.92,5.11-16.8,6.03-25.88,6.25Z"/>
  </g>
</svg>