<?xml version="1.0" encoding="UTF-8"?>
<svg id="Layer_2" xmlns="http://www.w3.org/2000/svg" viewBox="0 0 96.83 104.07">
  <g id="Layer_1-2" data-name="Layer_1">
    <path id="D_upper" d="M50.69.24c21.72.59,39.2,14.72,44.19,35.93,3.05,12.95,2.79,25.87-2.72,38.19-7.76,17.33-21.73,27.02-40.21,28.77-15.04,1.43-30.27.79-45.42.88-3.89.02-5.84-1.91-6.4-5.07-.63-3.6,1.05-3.83,4.31-4.84,3.48-1.08,4.6-5.59,4.6-8.85.03-22.15.03-46.31.02-68.46,0-3.15-1.52-5.22-4.47-6.53C.34,8.37-.09,8.07.03,4.66S2.57.09,7.22.03c7.66-.1,36.64.02,43.46.2ZM34.39,15.37c0,2.46,0,4.26,0,6.05,0,10.81.01,21.62.01,32.44,0,10.31,0,20.63-.01,30.94,0,2.04-.2,4.24,2.73,4.35,14.73.52,25.1-3.55,29.76-17.27,4.29-12.65,4.05-25.61-.22-38.22-4.39-12.97-12.31-18.25-25.91-18.27-1.82,0-3.64,0-6.36,0Z"/>
  </g>
</svg>