<?xml version="1.0" encoding="UTF-8"?>
<svg id="Layer_2" xmlns="http://www.w3.org/2000/svg" viewBox="0 0 69.56 110.28">
  <g id="Layer_1-2" data-name="Layer_1">
    <path id="Dollars" d="M41.5,23.95c0,6.59-.26,12.59.16,18.54.12,1.74,1.83,3.81,3.39,4.93,3.78,2.71,7.92,4.89,11.86,7.38,19.74,12.47,14.66,35.09-3.29,43.11-3.61,1.61-7.5,2.58-11.39,3.89-.14.32-.41.75-.52,1.23-1.49,6.29-4.52,8.23-10.76,6.84-2.46-.55-4.38-1.59-4.39-4.55,0-2.62-1.49-3.71-3.99-4.19-6.32-1.22-12.08-3.75-16.84-8.2C.81,88.33-.91,82.7.44,76.13c.78-3.78,3.13-6.16,6.72-7.36,5.3-1.78,8.4-.05,9.34,5.46.76,4.48,2.23,8.38,6.59,10.51.84.41,1.82.51,3.26.88,0-6.84.23-13.28-.18-19.68-.09-1.46-2.26-2.99-3.74-4.13-4.72-3.63-10.09-6.56-14.29-10.7C-5.31,37.83,1.27,14.36,21.63,10.37c1.28-.25,2.57-.44,3.76-.64C27.65,1.2,28.79-.1,33.82,0c4.97.1,6.26,1.59,8.23,9.33,4.75,1.32,9.65,1.99,13.87,4.06,3.56,1.75,7.08,4.62,9.29,7.89,4.55,6.72.26,15.38-7.74,16.82-3.66.66-6.71-1.1-8.21-4.73-2.75-6.68-2.82-6.77-7.76-9.43ZM25.19,39.38c.35-.16.71-.32,1.06-.48,0-3.25.01-6.5,0-9.75,0-1.16.04-2.33-.14-3.47-.37-2.38-1.76-2.95-3.84-1.71-3.97,2.38-4.89,7.57-1.81,11.16,1.37,1.59,3.14,2.84,4.73,4.24ZM41.68,70.67v17.42c4.03-1.43,6.95-3.45,7.29-7.58.39-4.76-2.39-7.61-7.29-9.83Z"/>
  </g>
</svg>