<?xml version="1.0" encoding="UTF-8"?>
<svg id="Layer_2" xmlns="http://www.w3.org/2000/svg" viewBox="0 0 54.59 38.46">
  <g id="Layer_1-2" data-name="Layer_1">
    <path id="Double_Quite_Right" d="M.48,36.49c1.52-2.81,2.8-5.3,4.2-7.73,1.69-2.94,1.72-5.25-1.13-7.83C-.44,17.31-1,11.13,1.52,6.25,3.89,1.66,9-.71,14.62.19c5.51.88,8.89,4.59,8.97,10.17.16,11.02-5.72,19.17-13.16,26.35-2.63,2.54-6.16,2.18-9.95-.21ZM41.39,36.72c7.46-7.15,13.34-15.31,13.2-26.32-.07-5.6-3.42-9.31-8.92-10.2-5.61-.91-10.74,1.44-13.12,6.01-2.55,4.9-2.04,11.11,1.98,14.68,3.14,2.79,2.64,5.26.95,8.27-1.36,2.43-2.63,4.91-4.37,8.17,4.26,1.38,7.73,1.84,10.28-.61Z"/>
  </g>
</svg>