<?xml version="1.0" encoding="UTF-8"?>
<svg id="Layer_2" xmlns="http://www.w3.org/2000/svg" viewBox="0 0 26.43 99.41">
  <g id="Layer_1-2" data-name="Layer_1">
    <path id="Exclamation_Mark" d="M.88,15.07C.49,2,3.19-.63,15.59.12c7.46.45,10.35,3.17,9.74,10.78-1.32,16.24-3.08,32.45-4.8,48.65-.42,3.94-2.21,5.35-6.98,5.57-7.73.35-8.87-1.82-9.29-7.33C3.13,43.36,1.98,28.94.88,15.07ZM13.17,72.03C5.27,72.15-.11,78.04,0,86.43c.1,7.46,5.61,13,12.9,12.98,7.93-.02,13.63-5.97,13.53-14.12-.09-7.58-5.89-13.38-13.26-13.27Z"/>
  </g>
</svg>