<?xml version="1.0" encoding="UTF-8"?>
<svg id="Layer_2" xmlns="http://www.w3.org/2000/svg" viewBox="0 0 78.44 104.09">
  <g id="Layer_1-2" data-name="Layer_1">
    <path id="F_upper" d="M35.84,14.78v30.64c4.67,0,9.12.26,13.51-.15,1.36-.13,6.1-.51,6.69-3.26.79-3.74,1.78-4.21,3.99-4.29,3.01-.11,5.14,2.64,5.22,6.25.15,6.82.16,13.66-.03,20.48-.1,3.72-2.21,5.78-5.36,6.11-3.51.36-3.07-1.66-4.1-4.64-2.22-6.35-4.51-6.5-11.22-6.49-2.65,0-5.29,0-8.52,0-.14,2.5-.35,4.58-.36,6.67-.04,6.49.04,12.99,0,19.49-.02,3.51.41,8.17,8.9,9.23,3.04.38,3.56,1.64,3.65,4.35.1,3-2.37,4.22-5.03,4.74-.81.16-1.66.15-2.49.15-10.99.01-21.98.06-32.98,0-4.59-.03-7.57-1.73-7.63-4.88s.6-3.8,3.81-4.64c4.84-1.27,6.07-6.6,6.07-11-.01-20.81-.02-41.63.01-62.44,0-4.54-1.15-10.03-6.08-11.63C.41,8.32-.01,7.79,0,4.42.01.8,3.04.02,6.18.02c21.32,0,42.63-.06,63.95.02,4.8.02,6.8,1.72,7.26,6.43.61,6.12.79,12.28,1.04,18.42.12,3.07-1.49,5-4.48,5.75-3.28.82-4.36-.16-5.71-2.93-1.16-2.37-1.88-4.96-2.62-7.51-.95-3.28-5.09-5.27-8.41-5.36-6.94-.19-13.89-.06-21.37-.06Z"/>
  </g>
</svg>