<?xml version="1.0" encoding="UTF-8"?>
<svg id="Layer_2" xmlns="http://www.w3.org/2000/svg" viewBox="0 0 75.18 105.54">
  <g id="Layer_1-2" data-name="Layer_1">
    <path id="g_lower" d="M12.9,44.66C.59,33.59,2.57,16.41,12.39,7.8,18.07,2.82,24.73.65,31.99.15c8.44-.58,16.63.48,23.57,5.43,3.39-1.7,6.5-3.66,9.87-4.86,4.77-1.69,8.12.15,9.33,4.51,1.33,4.79-.55,8.09-5.43,9.42-1.26.34-2.57.48-4.38.81,2.09,11.31-.6,21.18-9.85,28.43-8.97,7.03-19.42,7.93-30.24,6.16-1.91,6.63-.92,8.07,5.55,8.12,7.32.05,14.67-.33,21.97.15,4.03.26,8.37,1.18,11.88,3.07,7.33,3.95,9.93,12.95,7.07,21.89-3.03,9.48-9.95,15.34-18.85,18.62-12.71,4.69-25.81,4.8-38.7.71-7.31-2.32-12.99-6.73-13.72-15.34-.45-5.35,1.54-9.39,5.96-12.32.94-.62,1.87-1.24,2.82-1.87-7.98-10.8-7.28-15.64,4.07-28.41ZM19.15,75.2c-1.92,8.38.01,13.15,6.19,15.4,6.8,2.48,13.74,2.41,20.55-.03,4.33-1.55,6.62-5.18,6.17-9.18-.4-3.58-2.87-5.92-7.83-6.11-8.29-.31-16.6-.08-25.08-.08ZM26.36,25.81c.69,3.51,1.05,7.15,2.16,10.55.95,2.9,3.7,4.28,6.68,4.35,2.87.06,5.14-1.47,6.15-4.22,2.47-6.74,2.74-13.59.3-20.4-1.03-2.86-3.22-4.76-6.33-4.81-3.25-.05-5.9,1.59-6.91,4.71-1,3.09-1.36,6.39-2.04,9.82Z"/>
  </g>
</svg>