<?xml version="1.0" encoding="UTF-8"?>
<svg id="Layer_2" xmlns="http://www.w3.org/2000/svg" viewBox="0 0 81.49 104.24">
  <g id="Layer_1-2" data-name="Layer_1">
    <path id="k_lower" d="M32.34,60.15c4.52-4.2,9.59-8.68,14.35-13.46,1.84-1.84,1.43-4.05-1.25-5.17-2.83-1.18-4.43-3.1-3.6-6.22.86-3.23,3.28-4.26,6.5-4.22,7.66.1,15.33,0,23,.06,4.14.04,5.64,1.35,6.09,5,.43,3.5-.87,4.93-4.69,6.39-2.58.99-5.18,2.33-7.24,4.13-3.49,3.05-6.57,6.58-10.13,10.23,5.58,10.37,11.14,20.93,16.99,31.33.85,1.52,2.9,2.58,4.61,3.38,3.57,1.67,4.91,3.69,4.43,7.38-.45,3.47-2.97,4.95-5.89,5.08-6.32.28-12.66.2-18.98-.02-3.15-.11-4.88-2.39-6.17-5.14-3.79-8.14-7.69-16.23-11.56-24.34-.33-.7-.75-1.36-1.14-2.06-6.23,4.03-8.49,11.09-5.49,17.15.6,1.21,1.91,2.24,3.13,2.95,2.53,1.48,3.34,3.66,2.94,6.33-.42,2.77-2.15,4.43-4.97,4.83-1.31.18-2.64.4-3.96.41-6.83.06-13.66.09-20.5.05-1.48,0-2.97-.26-4.43-.56-2.6-.52-4.05-2.21-4.32-4.83-.28-2.7.36-5.29,3.13-6.15,4.54-1.41,5-4.81,5-8.65,0-7,0-14,0-21,0-13.5-.01-27,.04-40.49.01-3.39-.38-5.96-4.5-7.11C-.65,14.2-1.24,8.78,2.35,5.9c.88-.71,2.01-1.25,3.11-1.51C11.94,2.91,18.41,1.38,24.94.17c4.06-.75,6.51.97,7.12,4.99.46,3.1.27,6.3.27,9.46.02,15.31,0,30.63,0,45.52Z"/>
  </g>
</svg>