<?xml version="1.0" encoding="UTF-8"?>
<svg id="Layer_2" xmlns="http://www.w3.org/2000/svg" viewBox="0 0 40.2 104.38">
  <g id="Layer_1-2" data-name="Layer_1">
    <path id="l_lower" d="M32.1,46.52c0,12.33,0,24.66,0,36.98,0,4.03.57,7.51,5.21,9.09,2.75.93,3.1,3.78,2.79,6.35-.3,2.48-1.7,4.32-4.32,4.88-1.13.24-2.29.5-3.44.5-8.16.04-16.33.1-24.49-.01-5.27-.07-7.61-2.18-7.72-6.47-.06-2.35.52-4.38,2.98-5.18,3.51-1.13,4.34-3.84,4.35-7.05.02-21.66,0-43.32.04-64.97,0-2.68-.98-4.55-3.73-5.08C1.22,15.08-.28,13.29.04,11.05c.3-2.07,1.47-4.36,2.97-5.8,1.31-1.26,3.58-1.65,5.51-2.09,4.7-1.07,9.42-2.02,14.17-2.87,6.49-1.17,9.61,1.19,9.66,7.75.08,9.99-.2,19.99-.31,29.98-.03,2.83,0,5.66,0,8.5.02,0,.05,0,.07,0Z"/>
  </g>
</svg>