<?xml version="1.0" encoding="UTF-8"?>
<svg id="Layer_2" xmlns="http://www.w3.org/2000/svg" viewBox="0 0 33.29 106.44">
  <g id="Layer_1-2" data-name="Layer_1">
    <path id="Left_Square_Bracket" d="M0,52.78C0,38.3-.02,23.82.02,9.34.03,2.02,1.31.58,8.64.26,14.46,0,20.29-.11,26.1.13c5.06.2,6.88,2.49,6.67,7.34-.15,3.54-1.46,5.04-5.02,5.69-.81.15-1.65.15-2.48.21-5.01.39-5.34.66-5.35,5.66-.05,15.81-.03,31.62-.04,47.43,0,6.49-.03,12.98,0,19.47.03,6.94.44,7.36,7.22,7.68.17,0,.33,0,.5,0,4.34.25,5.48,1.31,5.68,5.26.22,4.38-1.2,6.75-5.18,7.01-7.3.47-14.63.56-21.94.55-3.23,0-5.19-2.04-5.71-5.24-.21-1.3-.26-2.65-.26-3.97-.02-14.81-.01-29.62-.01-44.44H0Z"/>
  </g>
</svg>