<?xml version="1.0" encoding="UTF-8"?>
<svg id="Layer_2" xmlns="http://www.w3.org/2000/svg" viewBox="0 0 81.03 71.34">
  <g id="Layer_1-2" data-name="Layer_1">
    <path id="n_lower" d="M31.24,8.35C37.41,2.73,43.96-.3,51.97.02c11.23.45,19.71,7.83,20.61,19.11.61,7.61.27,15.3.37,22.95.05,3.66.13,7.32.17,10.99.03,3.42.83,6.06,4.77,7.09,2.86.75,3.4,3.44,3.05,6.11-.37,2.79-2,4.62-4.86,4.85-2.81.23-5.65.16-8.48.17-6.33.02-12.66.03-18.98-.01-2.24-.01-4.8-.28-5-2.99-.16-2.11.15-5.41,1.48-6.26,5.61-3.6,5.82-8.82,5.7-14.46-.15-6.99.09-13.99-.21-20.98-.18-4.24-1.21-8.27-6.16-9.8-6.16-1.89-12.13,1.08-13.59,7.32-.71,3.03-.75,6.26-.81,9.4-.11,6.49-.11,12.99,0,19.48.05,2.8.07,5.81,3.1,7.39,2.77,1.45,3.8,3.57,2.84,6.6-.94,2.99-3.27,4.1-6.1,4.26-2.99.17-5.99.07-8.99.07-4.83,0-9.66-.05-14.49-.01-3.21.03-5.61-1.1-6.23-4.47-.58-3.14.51-5.78,3.67-6.76,3.14-.96,4.19-3.06,4.21-5.95.05-11.32.1-22.65.03-33.97-.01-2.31-.15-4.88-3.45-5.11-3.03-.21-3.75-2.37-4.04-4.82-.36-2.94,1.21-4.94,3.78-5.75,4.11-1.3,8.35-2.18,12.54-3.22.64-.16,1.31-.22,1.96-.35,8.85-1.67,9.57-1.25,12.39,7.44Z"/>
  </g>
</svg>