<?xml version="1.0" encoding="UTF-8"?>
<svg id="Layer_2" xmlns="http://www.w3.org/2000/svg" viewBox="0 0 73.05 73.91">
  <g id="Layer_1-2" data-name="Layer_1">
    <path id="o_lower" d="M36.13,73.9C10.61,74.3-4.16,54.05,1.04,29.28,5.25,9.23,22.81-1.83,43.07.25c18.99,1.95,32.08,16.91,29.7,39.64-.97,9.25-4.12,17.45-10.86,24.01-7.3,7.11-16.2,10.2-25.78,10ZM50.8,35.68c-1.02-4.8-1.63-10.5-3.51-15.74-2.4-6.67-8.98-9.23-15.08-6.69-4.64,1.93-6.64,6.02-7.58,10.51-1.74,8.23-1.65,16.55-.04,24.8.38,1.92,1.21,3.83,2.21,5.53,2.07,3.55,5.21,5.45,9.44,5.5,5.81.07,10.21-2.92,12.04-9.27,1.27-4.43,1.62-9.14,2.53-14.64Z"/>
  </g>
</svg>