<?xml version="1.0" encoding="UTF-8"?>
<svg id="Layer_2" xmlns="http://www.w3.org/2000/svg" viewBox="0 0 85.27 102.55">
  <g id="Layer_1-2" data-name="Layer_1">
    <path id="P_upper" d="M38.23,64.34c0,7.37-.07,13.99.04,20.6.04,2.39-.18,7.14,3.51,7.6,1.24.15,6.85,1.54,6.81,4.59-.03,2.62-1.46,3.67-3.32,4.6-1.13.57-2.85.79-4.32.79-10.66.05-21.32,0-31.98-.01-.33,0-.67,0-1-.02-3.02-.25-6.48-1.11-6.39-4.53.08-2.92.61-2.97,4-3.96,5.56-1.63,6.14-8.44,6.09-13.47-.21-20.32-.05-40.64-.07-60.97,0-6.33-.46-8.87-6.48-10.78C1.25,7.55-.05,7.43,0,4.53S2.87.05,6.89.03C19.55-.03,32.21,0,44.87.06c4,.02,7.99.17,11.99.35,15.86.72,24.97,8.66,27.77,24.13,2.89,15.98-4.06,30.96-17.66,36.58-4.65,1.92-9.95,2.52-15.02,3.11-4.26.5-8.63.1-13.71.1ZM38.49,12.15c-1.19,9.65-.64,34.41.81,37.53,11.87,1.04,17.6-3.36,18.69-14.45.2-1.98.3-3.98.25-5.96-.34-13.19-5.3-17.86-18.52-17.52-.31,0-.62.19-1.23.39Z"/>
  </g>
</svg>