<?xml version="1.0" encoding="UTF-8"?>
<svg id="Layer_2" xmlns="http://www.w3.org/2000/svg" viewBox="0 0 75.93 80.57">
  <g id="Layer_1-2" data-name="Layer_1">
    <path id="Plus" d="M28.07,64.74c0-3.5-.1-7,.03-10.49.11-2.99-1.16-4.27-4.12-4.21-5.33.1-10.66.18-15.99.12C1.74,50.08.09,48.34,0,42c-.02-1.49,0-3.02.25-4.48.84-4.74,2.56-6.24,7.37-6.35,4.66-.1,9.33,0,13.99-.05,5.46-.06,6.45-.96,6.54-6.31.11-5.83.07-11.66.08-17.49,0-4.92,1.47-6.61,6.27-7.18.5-.06,1-.07,1.5-.09,8.83-.37,10.66,1.32,10.76,10.05.05,5,.02,10,.03,14.99.02,5.13.46,5.7,5.7,5.88,5.33.18,10.66.09,15.99.15,5.32.06,7.13,1.82,7.4,7.16.07,1.33.05,2.67-.05,4-.49,6.19-2.33,7.95-8.43,7.92-5.16-.02-10.33-.2-15.49-.25-4.38-.04-5.26.73-5.36,5.2-.13,5.83.04,11.66-.07,17.49-.13,6.44-1.58,7.76-8.16,7.89-9.89.2-10.37-.29-10.26-10.31.02-1.83,0-3.67,0-5.5h.02Z"/>
  </g>
</svg>