<?xml version="1.0" encoding="UTF-8"?>
<svg id="Layer_2" xmlns="http://www.w3.org/2000/svg" viewBox="0 0 61.46 96.66">
  <g id="Layer_1-2" data-name="Layer_1">
    <path id="Question_Mark" d="M61.45,23.29c.15,6.48-1.82,11.76-5.01,16.53-6.16,9.2-13.99,16.89-22.4,24.02-2.76,2.34-5.99,3.3-9.25,1.51-3.5-1.92-5.29-5.32-4.52-9.25.59-3.01,1.83-6.07,3.47-8.66,2.12-3.35,4.87-6.3,7.46-9.34,3.06-3.59,5.76-7.35,6.38-12.19.51-4.03-1.16-7.45-4.2-8.81-2.89-1.3-6.36-.55-8.99,2.41-1.74,1.96-2.98,4.36-4.49,6.53-1.41,2.03-2.62,4.28-4.36,5.99-3,2.95-7.53,3.43-11.11,1.53C.89,31.69-.19,28.4.03,24.73c.4-6.87,3.5-12.54,8.95-16.59C19.84.05,31.98-2.01,44.91,1.96c10.17,3.12,16.53,11.89,16.54,21.33ZM29.45,71c-7.3-.11-12.95,5.85-12.9,13.58.05,6.84,5.16,11.97,12.01,12.08,7.73.12,12.91-4.92,13-12.65.09-7.57-4.88-12.9-12.12-13.01Z"/>
  </g>
</svg>