<?xml version="1.0" encoding="UTF-8"?>
<svg id="Layer_2" xmlns="http://www.w3.org/2000/svg" viewBox="0 0 65.63 73.16">
  <g id="Layer_1-2" data-name="Layer_1">
    <path id="r_lower" d="M32.94,9.27C38.56,3,44.9-.57,53.02.07c4.52.36,8.41,2.01,10.93,6.03,4.07,6.5.31,18.33-6.78,21.43-4.77,2.08-8.95.23-10.54-4.78-.84-2.62-1.62-5.2-5.02-5.33-3.49-.13-6.33,1.28-7.72,4.44-.9,2.05-1.27,4.48-1.31,6.75-.15,8.32,0,16.65-.1,24.98-.05,4.03.64,7.2,5.41,8.1,2.62.49,3.67,2.67,3.52,5.32-.14,2.57-1.26,4.52-3.81,5.27-1.58.46-3.25.81-4.89.83-7.99.08-15.99.07-23.98.01-1.47-.01-2.95-.41-4.42-.65-2.73-.44-4.03-2.28-4.26-4.82-.25-2.67.53-5.27,3.29-6.08,4.48-1.31,5.33-4.52,5.34-8.45.01-10.16.01-20.32.03-30.48,0-3.03-.53-5.33-4.15-6.35C-.07,14.99-.83,9.63,2.88,6.56c.75-.62,1.65-1.21,2.58-1.44C11.91,3.52,18.34,1.77,24.86.58c4.53-.83,6.47,1.45,8.08,8.69Z"/>
  </g>
</svg>