<?xml version="1.0" encoding="UTF-8"?>
<svg id="Layer_2" xmlns="http://www.w3.org/2000/svg" viewBox="0 0 92.53 101.41">
  <g id="Layer_1-2" data-name="Layer_1">
    <path id="R_upper" d="M66.11,55.84c5.03,10.19,9.88,20.02,14.75,29.84,1.08,2.18,2.56,5.72,5.29,5.95,1.58.13,4.67.74,5.31,1.58,1.16,1.55,1.28,2.29.82,3.98-.45,1.64-2.73,3.82-4.32,3.91-7.13.41-14.31.38-21.45.06-3.72-.16-5.62-3.18-7.08-6.32-4.41-9.5-8.86-18.99-13.26-28.5-3-6.49-2.97-6.51-11.15-5.8,0,4.84,0,9.76,0,14.69,0,1.67.13,3.34-.01,4.99-.46,5.53.57,11.81,7.21,12.75,2.9.41,3.96.87,3.55,3.69-.4,2.77-1.93,4.65-4.93,4.67-11.82.07-23.64.09-35.46.07-2.88,0-4.57-1.55-5.27-4.37-.43-1.72.39-3.22,3.01-4.14.81-.28,2.38-.58,3.01-.84,4.03-1.63,4.16-5.95,4.15-9.58-.04-18.15-.02-36.3-.02-54.45,0-3.16-.08-6.33.03-9.49.12-3.6-1.17-8.12-4.8-9.19-.95-.28-1.89-.68-2.75-1.18-1.36-.79-2.28-1.14-2.44-3.42s.18-2.69,1.84-3.82S6.13,0,7.28,0c14.98,0,29.97-.03,44.95.08,6.54.05,12.9,1.14,18.85,4.15,6,3.03,9.88,7.7,11.73,14.14,3.78,13.14-.59,25.86-11.72,33.94-1.59,1.15-3.2,2.27-4.98,3.53ZM35.38,46.25c8.24.05,16.59.8,21.31-7.08,3.97-6.63,4.19-14.25-.37-20.84-5.23-7.56-13.37-5.63-20.94-5.68v33.61Z"/>
  </g>
</svg>