<?xml version="1.0" encoding="UTF-8"?>
<svg id="Layer_2" xmlns="http://www.w3.org/2000/svg" viewBox="0 0 34.76 103">
  <g id="Layer_1-2" data-name="Layer_1">
    <path id="Right_Curly_Bracket" d="M10.7,88.93c.27-6.37.56-12.48.78-18.6.24-6.62-.3-13.34,4.19-19.12.65-.84.21-3.38-.62-4.39-2.87-3.46-3.57-7.48-3.71-11.66-.2-5.82-.31-11.66-.17-17.48.08-3.19-1.23-4.47-4.24-4.88-4.97-.69-5.91-1.82-5.85-6.19C1.13,2.39,2.6.56,7.08.26c4.64-.31,9.33-.35,13.97-.04,4.88.33,6.95,2.33,7.13,7.31.32,9.15.25,18.31.18,27.47-.03,3.66.32,6.73,3.94,8.98,2.98,1.85,3.38,6.43.47,9.2-4.43,4.22-4.61,9.18-4.48,14.63.2,8.66.11,17.32-.03,25.98-.11,6.87-2.22,8.93-8.99,9.09-4.16.1-8.34.26-12.48-.04-5.86-.42-8.55-5.69-5.56-10.81.63-1.09,2.2-1.87,3.5-2.26,1.69-.52,3.54-.52,5.97-.83Z"/>
  </g>
</svg>