<?xml version="1.0" encoding="UTF-8"?>
<svg id="Layer_2" xmlns="http://www.w3.org/2000/svg" viewBox="0 0 84.44 101.48">
  <g id="Layer_1-2" data-name="Layer_1">
    <path id="T_upper" d="M28.71,13.06c-1.08-.18-1.73-.36-2.37-.38-12.58-.2-14.75.44-16.42,11.24-.1.66-.28,1.3-.45,1.94-1.06,4.02-1.01,5.09-3.96,5.48C2.2,31.78-.11,28.85,0,24.87c.18-6.65.73-13.29,1.37-19.91C1.7,1.65,4.02.09,7.27.04,11.27-.02,15.26,0,19.26,0c18.48,0,36.96.01,55.44.03,6.47,0,8.16,1.52,8.71,8.12.45,5.47.88,10.95,1.03,16.43.12,4.32-1.55,6.95-4.82,6.97-3.99.03-4.1-.77-5.37-5.52-.73-2.73-1.45-5.5-1.75-8.29-.35-3.29-4.2-4.78-7.19-4.95-3.12-.18-6.25-.04-9.67-.04-.13,1.92-.31,3.36-.31,4.81-.02,21.48-.03,42.95-.03,64.43,0,5.73.23,8.02,5.43,9.91,3.81,1.39,5.52,1.49,5.18,4.36-.4,3.29-2.56,5.07-6.81,5.11-11.15.11-22.31.06-33.46.11-2.9.01-5.34-.7-6.21-3.83-.86-3.08.3-3.9,3.88-5.12,4.5-1.53,5.74-6.65,5.74-10.77.03-22.14.02-44.28,0-66.42,0-.64-.19-1.28-.34-2.28Z"/>
  </g>
</svg>