<?xml version="1.0" encoding="UTF-8"?>
<svg id="Layer_2" xmlns="http://www.w3.org/2000/svg" viewBox="0 0 80.19 28.69">
  <g id="Layer_1-2" data-name="Layer_1">
    <path id="Tilde" d="M54.81,28.69c-3.4-1.15-8.63-2.69-13.67-4.71-4.31-1.73-8.3-4.24-12.6-6.02-7.06-2.92-11.84-1.53-16.78,4.39-3.07,3.69-4.96,4.44-8.02,3.17C.85,24.33-.55,21.2.2,17.05c.78-4.3,3.37-7.56,6.63-10.28C15.91-.8,26.1-1.65,36.82,2.38c6.37,2.39,12.56,5.27,18.79,8.03,4.51,2,8.4,1,12-2.04.76-.64,1.61-1.19,2.35-1.86,2.23-1.98,4.56-2.71,7.19-.75,2.53,1.88,3.61,4.38,2.73,7.42-.45,1.57-1.2,3.13-2.13,4.47-5.07,7.23-12.33,10.32-22.94,11.03Z"/>
  </g>
</svg>