<?xml version="1.0" encoding="UTF-8"?>
<svg id="Layer_2" xmlns="http://www.w3.org/2000/svg" viewBox="0 0 129.41 101.57">
  <g id="Layer_1-2" data-name="Layer_1">
    <path id="W_upper" d="M63.55,49.94c-1.65,6.37-3.38,12.72-4.91,19.12-2.02,8.42-3.8,16.89-5.84,25.31-1.25,5.16-3.55,6.92-8.78,7.13-2.66.1-5.33.1-8-.01-5.5-.22-7.83-2.09-9.15-7.41-4.59-18.41-9.13-36.84-13.69-55.26-1.84-7.43-3.72-14.85-5.49-22.3-.66-2.78-2-6.87-4.66-8.07C.04,7.09-.42,6.59.3,3.74.97,1.08,2.92.06,5.54.06c9.5,0,18.99-.03,28.49-.02,2.88,0,4.82,1.42,5.34,4.26.49,2.66-.19,2.98-3.01,4.15-2.35.97-4.05,4.38-3.39,7.29,3.88,17.03,7.77,34.06,11.65,51.08.34.02.68.03,1.03.05.79-2.93,1.62-5.85,2.35-8.8,3.22-12.92,6.44-25.84,9.59-38.79,1.27-5.23,1.12-7.64-3.27-10.53-2.74-1.8-2.87-2.37-2.37-5.04.52-2.74,2.67-3.61,5.24-3.62,5.17-.02,10.33-.15,15.5-.02,4.5.12,6.14,2.27,6.1,6.68,0,.93-.24,4.03.84,8.79,3.71,16.38,7.58,32.73,12.18,49.19.38-1.33.8-2.65,1.12-4,3.38-14.08,6.75-28.17,10.09-42.26,1.2-5.07,2.29-9.53-2.21-10.65-3.32-.82-4.6-1.14-4.13-3.94.52-3.09,2.77-3.84,5.53-3.83,7.33.03,14.66.03,21.99.01,2.59,0,5.11.82,5.21,3.5.07,1.99-.88,3.6-2.48,3.85-4.96.79-5.9,8.37-7.04,12.76-6.3,24.16-12.63,48.31-18.97,72.46-1.98,7.55-3.83,8.96-11.51,8.89-12.58-.11-13.01-.49-15.84-12.88-2.6-11.36-5.27-22.7-7.93-34.05-.36-1.54-.84-3.06-1.26-4.58-.27-.03-.55-.05-.82-.08Z"/>
  </g>
</svg>