<?xml version="1.0" encoding="UTF-8"?>
<svg id="Layer_2" xmlns="http://www.w3.org/2000/svg" viewBox="0 0 80.04 96.89">
  <g id="Layer_1-2" data-name="Layer_1">
    <path id="y_lower" d="M45.68,42.93c2.95-9.17,5.91-18.33,8.86-27.5.67-2.09.59-3.88-1.66-5.09-2.59-1.39-3.31-3.66-2.41-6.36C51.35,1.31,53.34,0,56.16,0c6.16.02,12.32-.04,18.48.11,2.73.07,4.85,1.4,5.29,4.34.45,2.99-.65,5.41-3.67,6.23-3.33.9-4.74,3.26-5.93,6.15-7.5,18.3-14.99,36.61-22.66,54.85-1.73,4.12-3.87,8.13-6.29,11.88-5.48,8.51-13.15,13.73-23.58,13.32-2.96-.12-6.35-1.3-8.69-3.1-8.62-6.6-4.71-15.46,2.04-19.62,2.93-1.81,5.76-.91,8.13,1.48,1.05,1.06,1.99,2.3,3.21,3.1,2.15,1.42,4.67,1.57,6.39-.41,1.84-2.11,4.59-4.22,3.2-7.67-7.09-17.57-14.26-35.12-21.4-52.67-.25-.62-.55-1.21-.81-1.82-1.07-2.56-2.58-4.41-5.59-5.11C.99,10.28-.4,7.85.1,4.76.59,1.67,2.55.07,5.61.06,15.1,0,24.59.02,34.08.07c2.35.01,4.17,1,5,3.37.87,2.46.57,4.94-1.6,6.25-3.27,1.98-2.86,4.33-1.83,7.24,3.05,8.59,5.98,17.21,8.96,25.82l1.05.18Z"/>
  </g>
</svg>