<?xml version="1.0" encoding="UTF-8"?>
<svg id="Layer_2" xmlns="http://www.w3.org/2000/svg" viewBox="0 0 92.35 101.78">
  <g id="Layer_1-2" data-name="Layer_1">
    <path id="Y_upper" d="M50.83,43.3c2.9-4.57,5.2-8.16,7.47-11.78,2.92-4.66,5.89-9.28,8.69-14.01,2.28-3.86,2.04-6.82-1.91-8.31-3.24-1.22-3.96-1.2-4-4.56S63.16.14,67.11.08c6.33-.1,12.66,0,19-.03,3.21-.01,6.62,1.1,6.22,4.49-.37,3.11-1.63,2.64-4.11,4.1-2.2,1.3-4.49,4.96-5.88,7.04-7.74,11.65-15.15,23.52-22.83,35.21-1.84,2.79-2.59,5.59-2.53,8.89.14,7.66.02,15.32-.02,22.99-.03,5.49.33,8.01,5.61,9.72,3.83,1.24,5.14,2.03,5.06,4.33-.11,3.11-2.52,4.79-6.54,4.84-11.16.14-22.33.11-33.49.1-2.9,0-5.84-.89-5.95-4.18s.67-3.93,4.18-4.89c4.43-1.21,5.63-6.05,5.59-10.17-.08-8.33.14-16.67-.09-24.99-.06-2.38-.82-4.94-1.95-7.05-6.23-11.58-12.7-23.04-19.02-34.57-1.34-2.44-2.91-6.24-5.82-6.99C1.15,8.05.2,7.41,0,4.8-.19,2.03,2.81.13,6.19.05c4.66-.11,9.33,0,14,.01,6.83.01,13.67-.02,20.5.04,4.12.04,6.26,1.47,6.49,4.7.2,2.79-1.12,3.07-4.92,4.42-5.17,1.83-5.8,5.17-3.41,10.07,3.77,7.73,7.68,15.39,12,24.02Z"/>
  </g>
</svg>