<?xml version="1.0" encoding="UTF-8"?>
<svg id="Layer_2" xmlns="http://www.w3.org/2000/svg" viewBox="0 0 58.83 69.1">
  <g id="Layer_1-2" data-name="Layer_1">
    <path id="z_lower" d="M29.49,55.25c4.46,0,8.15.41,11.69-.16,2.05-.33,4-2.04,5.73-3.47,1.25-1.03,1.89-2.77,3.08-3.89,3.33-3.12,8.35-1.82,8.71,2.62.4,4.89-.2,9.92-.95,14.8-.42,2.72-3.05,3.88-5.75,3.88-15.33.04-30.66.14-45.98-.06-5.54-.07-7.66-4.35-4.67-9.55,5.3-9.23,10.95-18.26,16.46-27.38,3.59-5.95,7.18-11.91,11.28-18.7-3.8,0-6.91-.35-9.89.13-1.76.29-3.47,1.71-4.89,2.98-1.07.96-1.58,2.52-2.44,3.74-1.67,2.36-3.86,3.78-6.84,2.86-2.78-.85-3.89-3.12-3.81-5.81.11-3.99.25-8,.83-11.93C2.61,1.5,4.98.02,9.82,0c12.16-.03,24.32.03,36.48.04,1.5,0,3,.04,4.5-.02,2.88-.12,5.34.6,6.61,3.45,1.16,2.61.87,5.04-.71,7.55-8.33,13.23-16.56,26.54-24.8,39.82-.69,1.11-1.26,2.29-2.41,4.39Z"/>
  </g>
</svg>