<?xml version="1.0" encoding="UTF-8"?>
<svg id="Layer_2" xmlns="http://www.w3.org/2000/svg" viewBox="0 0 78.83 102.3">
  <g id="Layer_1-2" data-name="Layer_1">
    <path id="Z_upper" d="M46.33,11.66c-7.71,0-14.68-.05-21.64.02-3.06.03-6.87,1.81-7.75,4.66-1.13,3.65-2.37,7.28-3.44,10.95-.95,3.24-2.75,4.34-4.34,4.41-3.42.14-6.08-1.87-6.14-5.32-.14-7.45.24-14.94.99-22.35.14-1.39,2.81-3.09,4.61-3.61C10.94-.25,13.57.08,16.06.08c17.66-.03,35.31-.03,52.97-.04.83,0,1.66.06,2.5.08,3.2.07,5.98.79,7.03,4.34.96,3.26-.83,5.27-3,7.33-1.66,1.58-3.22,3.4-4.34,5.39-12.75,22.8-25.41,45.66-38.08,68.51-.62,1.12-1.04,2.35-1.79,4.09,9.01,0,17.46.24,25.88-.2,1.75-.09,5.93-2.39,6.93-4.21,1.75-3.18,2.67-6.8,4.05-10.19,1.39-3.41,2.05-4.4,4.94-4.28,3.27.13,5.2,2.76,5.08,6.39-.21,6.48-.61,12.97-1.25,19.43-.39,3.96-2.21,5.5-6.38,5.51-21.49.07-42.98.08-64.47-.06-5.65-.04-7.77-4.67-4.78-9.93,6.17-10.84,12.47-21.62,18.61-32.48,8.03-14.2,15.96-28.45,23.9-42.7.86-1.54,1.47-3.22,2.46-5.42Z"/>
  </g>
</svg>