<?xml version="1.0" encoding="UTF-8"?>
<svg id="Layer_1" xmlns="http://www.w3.org/2000/svg" viewBox="0 0 119.1 88.09">
  <g>
    <path d="M25.06,43.51s10.96-10.5,15.44-27.21l6.93.82S52.27,4.14,56.4,0c4.48,2.85,8.15,5.71,8.15,5.71,0,0,2.85,9.78,11,19.16l3.26-.82s7.74,15.49,15.9,22.01c-.57,8.44-25.11,14.58-48.75,7.18-7.4,2.17-24-3.97-20.89-9.72Z" style="fill: #e7c78a;"/>
    <path d="M57.32,27c-2.98-5.05-9.89-9.88-9.89-9.88l-6.93-.82c-4.48,16.71,12.21,13.85,12.21,13.85,21.08-.84,26.11-6.11,26.11-6.11l-3.26.82c-2.69.82-14.87,1.82-18.24,2.14Z" style="fill: #f4d29a;"/>
    <path d="M64.55,5.71s-3.67-2.85-8.15-5.71c-1.79,1.8.33,2.63-1.28,5.98,5.16,1.77,9.43-.27,9.43-.27Z" style="fill: #f4d29a;"/>
    <path d="M56.66,7.78c6.19-.37,7.89-2.07,7.89-2.07,0,0-2.89,1.01-7.38-1.85-4.13,4.14-1.5,3.98-.51,3.92Z" style="fill: #bf8a3d;"/>
    <path d="M75.56,24.86s-7.24-6.38-16.25-5.52c-.65.06-2.91,4.58-1.99,7.66,11.28.64,18.24-2.14,18.24-2.14Z" style="fill: #dcb268;"/>
    <path d="M52.71,30.16c-3.11,5.75-7.18,10.16-6.75,23.08,23.64,7.4,48.19,1.26,48.75-7.18-2.27,7.42-22.43,5.7-31.64-1.16-8.14-6.06-10.36-14.74-10.36-14.74Z" style="fill: #dcb268;"/>
    <path d="M25.06,43.51s10.96-10.5,15.44-27.21c5.77,13.3,12.21,13.85,12.21,13.85,0,0-5.88,10.11-6.75,23.08-7.4,2.17-24-3.97-20.89-9.72Z" style="fill: #d1a052;"/>
    <path d="M57.32,27c7.72-7.88-.66-19.22-.66-19.22,0,0,1.31-4.6-.26-7.78-4.13,4.14-8.97,17.12-8.97,17.12,0,0,4.14,6.6,9.89,9.88Z" style="fill: #d1a052;"/>
    <path d="M25.06,43.51s-1.19,8.27,14.27-.91c9.15-5.44,13.38-12.45,13.38-12.45,0,0-5.88,10.11-6.75,23.08-7.4,2.17-24-3.97-20.89-9.72Z" style="fill: #bf8a3d;"/>
    <path d="M57.32,27s-12.36-11.95-.92-27c-4.13,4.14-8.97,17.12-8.97,17.12,0,0,4.14,6.6,9.89,9.88Z" style="fill: #bf8a3d;"/>
    <path d="M25.06,43.51s-1.21,2.49,2,4.79c4.35,3.12,13.95,6.12,18.99,4.12,13.14,5.08,45.48,5.27,48.66-6.37-.57,8.44-25.11,14.75-48.75,7.35-7.4,2.17-24-4.14-20.89-9.89Z" style="fill: #aa732b;"/>
    <path d="M56.66,7.78c6.19-.37,7.89-2.07,7.89-2.07,0,0,.19.52.2.63-4.83,1.94-8.09,1.45-8.09,1.45Z" style="fill: #aa732b;"/>
    <g style="opacity: .6;">
      <path d="M64.55,5.71s-3.89.66-6.92-2.28c-.14-1.22-.46-2.37-1.23-3.43,1.11,2.67-.19,7.94-.19,7.94,0,0,8.44,11.59,1.11,19.06,8.23-7.8-.16-19.2-.16-19.2,0,0,.65-1.69.53-3.62,4.35,2.52,6.86,1.53,6.86,1.53Z" style="fill: #fff;"/>
    </g>
    <path d="M75.56,24.86l-.32-.42c-.65.06-5.48,2.81-17.91,2.56,11.28.64,18.24-2.14,18.24-2.14Z" style="fill: #bf8a3d;"/>
    <path d="M57.32,27s-4.07-2.23-9.65-10.5c-.15.4-.24.62-.24.62,0,0,4.14,6.6,9.89,9.88Z" style="fill: #aa732b;"/>
    <g style="opacity: .6;">
      <path d="M41.36,16.4l-.85-.1-.22.8c5.71,12.8,12.43,13.06,12.43,13.06,0,0-6.92-1.95-11.35-13.75Z" style="fill: #fff;"/>
    </g>
    <g style="opacity: .6;">
      <path d="M52.71,30.16c21.08-.84,26.11-6.11,26.11-6.11l-1.32.33c-5.65,4.5-24.78,5.78-24.78,5.78Z" style="fill: #fff;"/>
    </g>
  </g>
  <g>
    <g style="opacity: .2;">
      <path d="M111.58,60.4l.98-1.2c2.1-3.43-11.82-5.91-17.85-13.14-.2,2.96-3.35,5.63-8.37,7.54-.59-.08-.95-.12-.95-.12l-7.86,2.35c-8.96,1.38-20.36.91-31.57-2.59-7.4,2.17-24-3.97-20.89-9.72,0,0-5.79,7.24,16.36,14.54.74,1.79,2.68,3.84,5.19,5.65-1.01.33-1.62.54-1.62.54,0,0,14.88,7.44,24.32,8.44,7.44-2,5.86-2,5.86-2,0,0-.88-1.75-2.35-3.88.65-.1,1.29-.22,1.9-.34,3.71,1.8,7.78,3.39,11.23,3.89.78-.04,2.06-.37,3.55-.85,5.12,2.51,11.13,4.69,13.33,2.47l2.1-3.43,1.62-1.99c2.77.19,6.05-.94,7.5-1.69,1.38.65,4.71-.73,5.04-1.14-.95-.98-4.25-2.25-7.51-3.32Z" style="fill: #683600;"/>
    </g>
    <g style="opacity: .2;">
      <path d="M30.56,63.97l-3.72-5.01L.38,57.67s9.58,12.16,21.31,14.88c5.29-2.57,8.87-8.58,8.87-8.58Z" style="fill: #683600;"/>
    </g>
    <g style="opacity: .2;">
      <path d="M83.79,78l-20.19.33s6.44,6.09,16.88,6.54c5.29-1.86,4.71-4.02,4.71-4.02l-1.4-2.85Z" style="fill: #683600;"/>
    </g>
    <g style="opacity: .2;">
      <path d="M24.76,76.91s7.01,7.44,12.73,7.22c6.01,2.93,12.37,4.15,14.45,3.93,8.01-3.5,11.59-7.87,11.59-7.87l-7.34-5.68-31.42,2.39Z" style="fill: #683600;"/>
    </g>
  </g>
  <g>
    <path d="M83.79,78c-4.9,3.26-9.76,4.7-11.73,4.4-2.6-.39-3.21-7.72-2.33-8.11.87-.39,7.43-1.52,7.78-1.48.35.04,4.54,3.47,6.28,5.19Z" style="fill: #dcb268;"/>
    <path d="M63.6,78.32c2.4,2.27,10.02,4.71,8.19,3.93-1.83-.78-2.94-7.57-2.06-7.96l-3.21-1.28c-.63,2.23-4.17,4.07-2.92,5.31Z" style="fill: #d1a052;"/>
    <path d="M77.51,72.81c-2.11.07-8.66,1.87-7.78,1.48l-3.21-1.28s4.48-1.45,11-.21Z" style="fill: #f4d29a;"/>
    <g style="opacity: .6;">
      <path d="M66.52,73.01s1.67.42,3.4,1.11c1.72-.4,7.28-1.35,7.6-1.32.35.04-4.92.86-7.48,1.71-.75,6.65,2.03,7.88,2.03,7.88-2.75-.97-2.85-6.78-2.64-7.96l-2.91-1.43Z" style="fill: #fff;"/>
    </g>
    <path d="M72.21,82.16c.86.25,4.3-.16,11.58-4.17-4.9,3.26-9.76,4.7-11.73,4.4-.27.03-6.37-2.09-8.47-4.07,2.59,2.08,8.62,3.84,8.62,3.84Z" style="fill: #aa732b;"/>
  </g>
  <g>
    <g>
      <path d="M0,57.8c6.36,5.21,12.91,7.89,15.68,7.75,3.66-.18,3.64-17.12,2.48-17.79s-10.42-2.9-10.91-2.9c-.28,0-2.6,5.51-2.6,5.51,0,0,1.37,4.66-4.64,7.42Z" style="fill: #dcb268;"/>
      <path d="M28.01,61.07c-3.65,2.82-11.93,4.31-11.93,4.31.46-2.77-1.26-9.96.03-11.42l5.82-6.33c.56,3.19,5.86,9.24,6.09,13.44Z" style="fill: #d1a052;"/>
      <path d="M7.25,44.87c2.93.39,8.86,9.1,8.86,9.1l5.82-6.33s-5.45-3.58-14.68-2.77Z" style="fill: #f4d29a;"/>
      <path d="M15.51,65.21c-1.23.23-5.95-.83-15.51-7.41,6.36,5.21,12.91,7.89,15.68,7.75.37.07,9.14-2.01,12.33-4.48-3.88,2.52-12.51,4.13-12.51,4.13Z" style="fill: #aa732b;"/>
    </g>
    <g style="opacity: .6;">
      <path d="M16.37,54.18l5.55-6.54-5.82,5.65s-5.26-8.26-8.86-8.42c2.71.36,7.82,8.52,8.55,9.71-.73,2.2.27,8,.28,10.8,0,0,.71-2.09-.06-8.21-.12-.97.04-1.99.35-3Z" style="fill: #fff;"/>
    </g>
  </g>
  <g>
    <path d="M94.56,61.53c6.04-4.11,9.13-9.25,9.13-9.25,0,0,2.51-1.07,5.49-2.02,1.73,2.97,2.54,11.08,2.54,11.08,0,0-6.58,4.22-17.15.19Z" style="fill: #e7c78a;"/>
    <path d="M103.69,52.28s2.51-1.07,5.49-2.02c.75,1.29-.58,1.45-.17,3.59-3.2.23-5.32-1.57-5.32-1.57Z" style="fill: #f4d29a;"/>
    <path d="M107.87,54.64c-3.46-1.14-4.18-2.36-4.18-2.36,0,0,1.49,1.01,4.47.05,1.73,2.97.26,2.49-.3,2.31Z" style="fill: #bf8a3d;"/>
    <path d="M94.56,61.53s5.07-2.55,10.07-.71c.36.13.97,3.04-.02,4.65-6.51-1.33-10.05-3.95-10.05-3.95Z" style="fill: #dcb268;"/>
    <path d="M104.61,65.48c-3.21-5.64,3.25-10.83,3.25-10.83,0,0-.06-2.81,1.32-4.39,1.73,2.97,2.54,11.08,2.54,11.08,0,0-3.34,3.13-7.1,4.14Z" style="fill: #d1a052;"/>
    <path d="M104.61,65.48s8.82-4.95,4.57-15.22c1.73,2.97,2.54,11.08,2.54,11.08,0,0-3.34,3.13-7.1,4.14Z" style="fill: #bf8a3d;"/>
    <path d="M107.87,54.64c-3.46-1.14-4.18-2.36-4.18-2.36,0,0-.19.27-.21.33,2.45,1.83,4.38,2.03,4.38,2.03Z" style="fill: #aa732b;"/>
    <g style="opacity: .6;">
      <path d="M103.69,52.28s2.11.96,4.28-.26c.26-.68.62-1.28,1.21-1.77-1.03,1.35-1.08,4.55-1.08,4.55,0,0-6.54,5.32-3.49,10.67-3.51-5.67,2.97-10.9,2.97-10.9,0,0-.12-1.06.24-2.14-2.85.78-4.13-.16-4.13-.16Z" style="fill: #fff;"/>
    </g>
    <path d="M94.56,61.53l.25-.19c.34.13,2.78,2.55,9.58,3.72.32.06.22.42.22.42-6.51-1.33-10.05-3.95-10.05-3.95Z" style="fill: #bf8a3d;"/>
    <path d="M104.61,65.48l-.22-.42c2.95-.45,4.97-2.08,7.28-4.11.03.25.04.39.04.39,0,0-3.34,3.13-7.1,4.14Z" style="fill: #aa732b;"/>
  </g>
  <g>
    <path d="M89.47,46.96s-5.46-1.51-8.63-3.43c-1.33-.8-12.65,2.03-11.93,2.54,1.27.89,5.58,4.7,10.28,6.09,0,1.4,11.29,1.65,10.28-5.2Z" style="fill: #f4d29a;"/>
    <path d="M63.45,60.03s4.19-14.85,5.46-13.96c1.27.89,5.58,4.7,10.28,6.09,1.4,3.93-.63,15.1-.63,15.1,0,0-10.15-3.55-15.1-7.23Z" style="fill: #bf8a3d;"/>
    <path d="M96.83,58s-4.44-5.84-7.36-11.04c0,0-3.68,6.35-10.28,5.2,1.4,3.93-.63,15.1-.63,15.1,0,0,13.33-3.05,18.27-9.26Z" style="fill: #dcb268;"/>
    <path d="M63.45,60.03s4.19-14.85,5.46-13.96c1.27.89,5.58,4.7,10.28,6.09,0,1.4-9.01,9.26-15.74,7.87Z" style="fill: #d1a052;"/>
    <path d="M89.47,46.96s-3.68,6.35-10.28,5.2c.76,4.06-.63,15.1-.63,15.1,0,0,11.04-8.25,10.91-20.31Z" style="fill: #d1a052;"/>
    <path d="M78.55,66.5c-.98.41-15.1-6.47-15.1-6.47,4.95,3.68,15.1,7.23,15.1,7.23,0,0,13.33-3.05,18.27-9.26,0,0-4.82,5.84-18.27,8.5Z" style="fill: #aa732b;"/>
    <g style="opacity: .6;">
      <path d="M79.47,51.8s0-.01,0-.02c-4.7-1.4-9.29-4.82-10.56-5.71,2.28,3.68,9.97,6.6,9.97,6.6.64,1.54-.32,14.59-.32,14.59,0,0,1.47-10.58,1.02-14.77,1.41.11,6.78.12,9.89-5.54,0,0-3.55,4.79-9.99,4.84Z" style="fill: #fff;"/>
    </g>
  </g>
  <g>
    <path d="M40.53,60.18c6.36,5.21,12.91,7.89,15.68,7.75,3.66-.18,5.54-10.28,4.38-10.94s-10.11-3.15-10.61-3.15-6.8,4.18-9.45,6.34Z" style="fill: #dcb268;"/>
    <path d="M68.54,63.46c-3.65,2.82-14.59,5.14-11.93,4.31s5.14-10.11,3.98-10.77l4.64-1.33c.56,3.19,5.22,6.24,3.32,7.79Z" style="fill: #d1a052;"/>
    <path d="M49.98,53.84c2.93.39,11.77,3.81,10.61,3.15l4.64-1.33s-6.02-2.63-15.25-1.82Z" style="fill: #f4d29a;"/>
    <g style="opacity: .6;">
      <path d="M65.23,55.67s-2.38.35-4.88,1.07c-2.33-.8-9.92-2.89-10.37-2.89-.5,0,6.71,1.88,10.16,3.43.11,9.34-3.93,10.66-3.93,10.66,3.96-.97,4.91-9.02,4.78-10.69l4.24-1.58Z" style="fill: #fff;"/>
    </g>
    <path d="M56.03,67.59c-1.23.23-5.95-.83-15.51-7.41,6.36,5.21,12.91,7.89,15.68,7.75.37.07,9.14-2.01,12.33-4.48-3.88,2.52-12.51,4.13-12.51,4.13Z" style="fill: #aa732b;"/>
  </g>
  <g>
    <path d="M48.67,59.93l-1.54.54c-.2-.32-.38-.64-.57-.96-1.78.83-3.69,1.24-5.42,1.49-3.33.48-6.97-1.19-8.43-5.85-.48-.08-1.17-.19-2.17-.36-2.12,11.08-7.3,18.04-7.3,18.04-1.47,3.81,6.38,7.88,9.88,6.45,11.18,4.91,22.8.84,23.06-4.76-3.86-4.32-7.52-14.6-7.52-14.6Z" style="fill: #e7c78a;"/>
    <path d="M40.18,56.3c-.22.1-6.36-.97-6.36-.97l-3.28-.54c-2.12,11.08,5.77,9.19,5.77,9.19,9.97-.56,12.35-4.05,12.35-4.05,0,0-1.4-.38-3.57-1.29-1.88-.72-4.2-.51-4.92-2.33Z" style="fill: #f4d29a;"/>
    <path d="M36.32,63.98c-1.47,3.81-3.4,6.74-3.19,15.3,11.18,4.91,22.8.84,23.06-4.76-1.07,4.92-10.61,3.78-14.97-.77-3.85-4.02-4.9-9.77-4.9-9.77Z" style="fill: #dcb268;"/>
    <path d="M23.24,72.83s5.18-6.96,7.3-18.04c2.73,8.82,5.77,9.19,5.77,9.19,0,0-2.78,6.71-3.19,15.3-3.5,1.44-11.36-2.63-9.88-6.45Z" style="fill: #d1a052;"/>
    <path d="M23.24,72.83s-.56,5.48,6.75-.6c4.33-3.6,6.33-8.26,6.33-8.26,0,0-2.78,6.71-3.19,15.3-3.5,1.44-11.36-2.63-9.88-6.45Z" style="fill: #bf8a3d;"/>
    <path d="M23.24,72.83s-.57,1.65.94,3.18c2.06,2.07,6.6,4.06,8.98,2.73,6.21,3.37,21.52,3.5,23.02-4.22-.27,5.6-11.88,9.78-23.06,4.87-3.5,1.44-11.36-2.75-9.88-6.56Z" style="fill: #aa732b;"/>
    <g style="opacity: .6;">
      <path d="M30.95,54.86l-.4-.07-.1.53c2.7,8.49,5.88,8.66,5.88,8.66,0,0-3.27-1.29-5.37-9.12Z" style="fill: #fff;"/>
    </g>
    <g style="opacity: .6;">
      <path d="M36.32,63.98c9.97-.56,12.35-4.05,12.35-4.05l-.63.22c-2.67,2.98-11.72,3.83-11.72,3.83Z" style="fill: #fff;"/>
    </g>
  </g>
</svg>