<?xml version="1.0" encoding="UTF-8"?>
<svg xmlns="http://www.w3.org/2000/svg" viewBox="0 0 103.1 156.16">
  <g style="isolation: isolate;">
    <g id="Layer_1">
      <polygon points="3.91 32.39 3.23 33.68 3.49 34.63 3.04 35.22 2.09 35.22 .27 34.15 0 33.4 .4 32.78 1.02 32.55 1.69 31.36 3.89 32.12 4.02 32.17 3.91 32.39" style="fill: #809093;"/>
      <polygon points="1.69 33.68 2.09 35.22 .27 34.15 0 33.4 .4 32.78 1.02 32.55 1.69 31.36 3.89 32.12 3.91 32.39 4.02 33.68 1.69 33.68" style="fill: #809093; mix-blend-mode: multiply; opacity: .3;"/>
      <path d="M40.39,34.83c-5.67,2.98-17.93,1.97-17.93,1.97-8.19-.08-16.42-7.83-16.83-8.23-.01,0,2.42-2.82,2.42-2.82,7.94.75,13.99,3.78,13.99,3.78,5.97-3.15,11.3-2.69,11.3-2.69h2.06l3.33,5.33,1.66,2.66Z" style="fill: #ffad80;"/>
      <path d="M40.39,34.83c-5.67,2.98-17.93,1.97-17.93,1.97-8.19-.08-16.42-7.83-16.83-8.23.41.17,10.98,4.69,16.64,5.34,3.78.44,11.55-.82,16.46-1.73l1.66,2.66Z" style="fill: #cc825a; mix-blend-mode: multiply; opacity: .3;"/>
      <path d="M87.92,134.23l-3.25,3.19s-1.18,2.8-1.18,4.99,1.51,1.9,1.68,3.81c.17,1.9,1.57,5.27,3.42,5.88s7.06.56,7.67-1.96-3.25-6.11-3.53-7.84c-.28-1.74-1.61-6.11-1.61-6.11l-3.2-1.96Z" style="fill: #5e3c2f;"/>
      <path d="M21.37,102.19s-4.65,2.69-7.28,3.03-6.11,2.63-4.31,4.82c1.79,2.18,4.59,2.69,8.29,2.3,3.7-.39,5.43-1.9,8.57-2.3,3.14-.39,6.61-1.85,3.42-8.74,0,0-5.77,2.07-8.68.9Z" style="fill: #5e3c2f;"/>
      <path d="M89.49,139.66c-3.93,1.24-4.82-2.24-4.82-2.24-.34-3.25-4.03-10.98-7.17-19.38-.77-2.06-1.26-4.05-1.58-5.89-.98-5.69-.21-9.91-.21-9.91l-1.71-3.29-1.21-2.32c-.19-.41-.39-.81-.6-1.22-5.35-10.09-19.23-19.62-19.23-19.62-13.22,1.85-21.79,8.97-21.79,8.97,1.58,1.61,1.98,4.3,1.77,6.78-.2,2.35-.95,4.52-1.77,5.42-1.68,1.85-1.12,4.32-1.12,4.32,0,0-.28,2.52-3.64,2.91-3.36.4-5.04-2.02-5.04-2.02,1.29-4.93.4-11.7-1.45-14.12-1.85-2.41,0-5.88,0-5.88,6.44-17.75,25.21-26.22,25.21-26.22,2.07,6.25,8.48,8.09,11.68,8.63,6.74.91,15.21-2.47,15.21-2.47,12.1,19.49,12.99,39.66,12.99,39.66,4.71,11.43,3.81,28.12,5.6,32.6,1.79,4.48-1.12,5.26-1.12,5.26Z" style="fill: #ffad80;"/>
      <path d="M74.54,95.08l-2.35.34c-5.35-10.09-19.23-19.62-19.23-19.62-13.22,1.85-21.79,8.97-21.79,8.97,1.58,1.61,1.98,4.3,1.77,6.78l-3.66-2.6s-2.08-3.79,2.04-8.84c4.12-5.05,2.78-13.81,2.78-13.81l37.64.97,2.79,27.82Z" style="fill: #cc825a; mix-blend-mode: multiply; opacity: .3;"/>
      <path d="M84.1,99.67l-5.1,15.13-3.09-2.64c-.98-5.69-.21-9.91-.21-9.91l-1.71-3.29,2.82-1.36,7.28,2.07Z" style="fill: #cc825a; mix-blend-mode: multiply; opacity: .3;"/>
      <path d="M17.62,82.86c.97-1.2,6.91.86,9.35,6.11,0,0,3.91.74,5.46-2.15,0,0,2.39,4.1-.36,10.05,0,0-1.57,1.96-2.02,4.43,0,0,.03,3.81-4.55,3.53-4.58-.28-4.68-2.33-4.68-2.33,1.49-9.83-2.76-11-3.21-19.63Z" style="fill: #809093;"/>
      <path d="M25.76,89.54c-1.59-3.4-5.79-5.32-7.55-5.62.28,2.82,1.39,4.99,2.1,6.87,1.11,2.96,1.84,5.89,1.01,11.71.21.32,1.79,1.38,3.98,1.54.84-5.11,1.52-10.57.55-14.32l-.08-.18Z" style="fill: #bbd2d6;"/>
      <path d="M91.12,135c-3.09-13.96.07-31.94-4.56-35.53-4.69-.39-6.93,3-7.77,10.15-.16,1.34-2.18,1.26-3.45.59,2.16,14.37,8.15,20,8.35,27.3,0,0,.84,3.54,5.69,2.65,0,0,2.7-.78,1.74-5.15Z" style="fill: #809093;"/>
      <path d="M85.52,138.26c-.14-3.54-5.99-25.52-5.83-26.88.6-5.09,1.47-10.47,6.58-10.34,1.84,1.98,2.12,7.63,2.27,14.38.14,6.16.47,13.25,1.85,19.49,1.15,5.2-4.51,4.59-4.87,3.35Z" style="fill: #bbd2d6;"/>
      <path d="M78.12,74.02c-2.57-.75-4.62-.85-6.35-.54-.13.02-.26.05-.38.08-5.14,1.12-7.42,5.97-12.31,8.08-1.79.77-3.93,1.18-6.68.9-2.3-.23-4.23-1.43-5.98-3.09-4.09-3.89-7.22-10.32-11.88-12.86-.13-.08-.27-.15-.41-.22-.87-.42-1.81-.72-2.81-.83,4.85-5.2,14.02-10.79,14.02-10.79l13.39,1.65,12.04,1.48c1.53,2.03,3.02,5.06,4.26,7.95,1.82,4.25,3.09,8.19,3.09,8.19Z" style="fill: #5e3c2f;"/>
      <path d="M59.3,84.07c-6.5,2.53-13.28-1.53-13.28-1.53.05-.89.19-1.94.4-3.09,1.28-6.92,5.06-17.3,5.06-17.3h5.97l1.64,19.49.21,2.43Z" style="fill: #809093;"/>
      <path d="M54.72,83.55c-3.2,0-6.01-1.17-7.29-1.79.58-5.4,3.95-15.28,5-18.28h3.78l1.66,19.65c-.99.28-2.05.42-3.15.42h0Z" style="fill: #bbd2d6;"/>
      <path d="M44.17,25.43s-3.83,3.29-1.59,10.24,1.99,18.04,1.88,20.05c-.11,2.02,3.28,9.14,9.82,10.06s12.81,1.03,15.39-3.22c2.58-4.26,1.2-23.11,1.99-25.46.78-2.35-2.77-5.57-12.97-8.04-10.2-2.46-5.1-3.96-14.51-3.63Z" style="fill: #bbd2d6;"/>
      <path d="M42.43,23.71s-4.71,5.83-2.46,12.77c2.24,6.95,4.59,15.46,4.48,17.48-.11,2.02,3.28,9.14,9.82,10.06,6.54.92,12.81,1.03,15.39-3.22,2.58-4.26,4.03-23.19,4.82-25.54.78-2.35-5.6-5.49-15.8-7.95-10.2-2.46-6.83-3.92-16.25-3.59Z" style="fill: #5e3c2f;"/>
      <path d="M77.5,60.01l-2.47,5.81-3.25,7.65c-.13.02-.26.05-.38.08-5.14,1.12-7.42,5.97-12.31,8.08l.21,2.43c-6.5,2.53-13.28-1.53-13.28-1.53.05-.89.19-1.94.4-3.09-4.09-3.89-7.22-10.32-11.88-12.86-.13-.08-.27-.15-.41-.22l-.03-.06s8.57.43,13.32-4.16c2.51-2.43,7-3.51,11.31-5.75,3.83-1.99,7.53-4.9,9.59-10.49,4.36-11.88,9.18,14.11,9.18,14.11Z" style="fill: #5e3c2f; mix-blend-mode: multiply; opacity: .3;"/>
      <path d="M45.35,23.67s-2.18,2.45-2.24,7.64c-.06,4.56-2.9,5.92-2.9,5.92-7.72-3.07-6.84-11-6.84-11,.24-.29.49-.55.75-.79,3.41-3.27,7.78-2.73,9.93-2.18.81.2,1.31.41,1.31.41Z" style="fill: #809093;"/>
      <path d="M44.04,23.26c-1.26,1.86-2.24,5.1-2.27,8.03-.03,2.57-1.09,3.87-1.7,4.41-4.65-2.19-5.96-6.43-5.96-10.26,3.41-3.27,7.78-2.73,9.93-2.18Z" style="fill: #bbd2d6;"/>
      <path d="M79,40.84s-4.3,4.37-7.5,4.98c-1.52.29-2.78-.26-3.23-2.51-1.38-7,3.12-11.64,3.12-11.64.4.07.77.14,1.13.24,6.95,1.81,6.47,8.92,6.47,8.92Z" style="fill: #809093;"/>
      <path d="M79,40.84s-4.3,4.37-7.5,4.98c-.89-.23-1.58-.97-1.88-2.51-1.2-6.06,2.02-10.36,2.9-11.39,6.95,1.81,6.47,8.92,6.47,8.92Z" style="fill: #bbd2d6;"/>
      <g>
        <path d="M68.27,42.81l1.11,68.06s18.49-2.69,23.7-18.32l-1.88-68.89c-3.05,9.21-11.93,14.83-22.92,19.15Z" style="fill: #bbd2d6;"/>
        <path d="M70.99,44.61c5.9-2.44,15.08-6.45,19.73-14.74l1.29,60.27c-3.55,9.94-14.99,15.93-20,17.36l-1.02-62.9Z" style="fill: #d62228;"/>
        <path d="M86.78,70.11c-.99,2.62-3,4.29-4.48,3.73-1.48-.56-1.88-3.14-.88-5.76.99-2.62,3-4.29,4.48-3.73s1.88,3.14.88,5.76Z" style="fill: #fff;"/>
      </g>
      <path d="M8.77,29.51l-.65,1.68-1.12.87-1.18-.69-.73.89-.37.11-1.51.42-2.04-1.09-1.18-1.88.39-.81-.39-.65.53-1.01v-.81l1.15-.78.39-.87h3.54s2.6,1.99,2.74,2.04l.42,2.58Z" style="fill: #ffad80;"/>
      <polygon points="3.03 31.03 4.73 32.36 3.22 32.78 1.18 31.69 0 29.82 .39 29 0 28.36 .53 27.35 .53 26.54 1.68 25.76 2.07 24.88 3.6 24.88 8.21 27.96 8.46 28.7 3.61 27.96 2.64 29.2 3.03 31.03" style="fill: #cc825a; mix-blend-mode: multiply; opacity: .3;"/>
      <path d="M3.25,23.17l-2.39-.86-.69.83L0,24.03l9.35,5.17.83-.97.06-.62-1.31-.91s.08.09.12.14c-.03-.05-.08-.09-.12-.14l-.96-.67.1-.25c-1.35-1.16-3.2-1.82-4.75-2.77l-.06.16Z" style="fill: #809093;"/>
      <ellipse cx="56.95" cy="33.91" rx="6.72" ry="7.22" style="fill: #ffad80;"/>
      <path d="M58.68,31.36s-7.74-4.29-8.91,1.42c-1.17,5.71,4.1,12.21,8.91,11.32,4.82-.9,7.18-9.08,4.59-11.99-2.59-2.91-4.59-.75-4.59-.75Z" style="fill: #cc825a; mix-blend-mode: multiply; opacity: .3;"/>
      <path d="M15.71,2.3l-.44-2.3-1.41.9c-1.57,1-2.78,2.47-3.46,4.2L3.03,23.63l1.76,1.6,3.02,1.12L15.28,7.15c.6-1.54.75-3.23.43-4.85Z" style="fill: #bbd2d6;"/>
      <path d="M4.93,24.89l2.39.76L14.24,7.82c.62-1.55,1.23-3.49.93-5.13l-.18-1.84L4.93,24.89Z" style="fill: #fff;"/>
      <path d="M73.69,35.16c.71.52,1.42,1.04,2.14,1.56.19.14.42.28.64.22.18-.05.3-.23.34-.41.04-.18,0-.37-.05-.55-.24-.86-.77-1.63-1.49-2.16-.52-.38-1.69-1.04-2.33-.54-.78.61.25,1.51.75,1.88Z" style="fill: #fff;"/>
      <path d="M40.63,26.75c.04.16.12.34.27.4.23.08.44-.15.56-.35.28-.47.51-.99.66-1.52.1-.34.17-.69.11-1.04-.06-.35-.26-.69-.58-.83-1.7-.77-1.22,2.67-1.03,3.35Z" style="fill: #fff;"/>
      <path d="M85.53,109.12c.69,5.19,1.38,10.38,2.07,15.57-.03-5.38-.07-10.76-.1-16.14,0-.67-.08-3.68-1.25-3.63-1.22.05-.81,3.51-.72,4.21Z" style="fill: #fff;"/>
      <path d="M23.31,90.59c.49,1.5.99,3,1.48,4.5.62-2.06.35-4.37-.73-6.24-.32-.56-4.03-4.66-4.35-2.69-.12.73,1.66,1.16,2.14,1.62.77.73,1.13,1.83,1.45,2.81Z" style="fill: #fff;"/>
      <polygon points="3.25 23.17 .86 22.31 .17 23.14 0 24.03 9.36 29.2 9.45 28.13 3.44 24.77 3.03 23.63 3.25 23.17" style="fill: #809093; mix-blend-mode: multiply; opacity: .3;"/>
      <path d="M68.27,42.81l1.11,68.06s12.13-1.77,19.51-10.75c-13.56-15.31-16.45-38.65-17.2-58.74-1.11.49-2.25.97-3.42,1.43Z" style="fill: #cc825a; mix-blend-mode: multiply; opacity: .3;"/>
      <path d="M52.26,29.63c.05.06-1.01,4,4.2,5.89,5.21,1.89,7.29,2.89,8.16-2.95s1.85-8.76,0-12.99-8.33-7.06-12.5-3.94c-4.09,3.06-4.17,9.09.14,13.98Z" style="fill: #ffad80;"/>
      <path d="M65.96,19.32c-.69-1.82-6.89-8.93-14.53-5-7.64,3.93-1.01,14.38-.43,14.73.26.16.75.23,1.2.27-.15,1.34-.09,3.27,1.09,4.54,1.94,2.08,7.61,4.31,9.49,3.65,1.88-.67,1.91-5.31,1.91-5.31l.3-1.89s-.5.71-.62.71-1.22.23-1.22.23l-2.92,2.14s-4.72-2.29-5.32-4.23c-.61-1.94-.03-3.3-.03-3.3,0,0,4.37-.84,5.99-2.49,1.62-1.65,2.63-.61,3.27-1.5s1.18-.34,1.18-.34c0,0,1.34-.39.65-2.21Z"/>
      <path d="M51.93,25.32c-.35-.22-.84-.36-1.17-.1-.28.22-.31.64-.3,1,.06,1.13.36,2.24.89,3.24.22.41.59.86,1.05.79.38-.06.6-.45.72-.81.5-1.49.23-3.24-1.19-4.12Z" style="fill: #ffad80;"/>
      <g style="mix-blend-mode: multiply; opacity: .3;">
        <path d="M98.21,139.72c6.26,3.62,6.57,9.47.58,13.29-6.17,3.93-16.69,4.21-23.5.62L9.26,119.31c-.19-.1-.38-.2-.56-.31-6.27-3.62-6.59-9.48-.6-13.3,6.18-3.93,16.69-4.21,23.49-.62l66.04,34.33c.19.1.38.21.57.31Z" style="fill: #c1a47e;"/>
      </g>
    </g>
  </g>
</svg>